<svg xmlns="http://www.w3.org/2000/svg" xmlns:xlink="http://www.w3.org/1999/xlink" width="5952" zoomAndPan="magnify" viewBox="0 0 4464 899.99999" height="1200" preserveAspectRatio="xMidYMid meet" version="1.0"><defs><g/></defs><path stroke-linecap="round" transform="matrix(1.875, 0, 0, 1.875, 21.37084, -36.270755)" fill="none" stroke-linejoin="round" d="M 253.600148 424.600675 L 316.200152 424.600675 C 334.500153 424.600675 351.500153 415.000674 361.000154 399.400673 L 407.400156 322.800669 " stroke="#18130b" stroke-width="15" stroke-opacity="1" stroke-miterlimit="10"/><path stroke-linecap="round" transform="matrix(1.875, 0, 0, 1.875, 21.37084, -36.270755)" fill="none" stroke-linejoin="round" d="M 405.800156 168.000661 L 361.000154 94.000657 C 351.500153 78.300656 334.500153 68.800656 316.200152 68.800656 L 159.800143 68.800656 C 141.500142 68.800656 124.500142 78.400657 115.000141 94.000657 L 39.000137 219.600664 C 28.900137 236.300665 28.900137 257.100666 39.000137 273.800667 L 122.100141 411.100674 " stroke="#18130b" stroke-width="15" stroke-opacity="1" stroke-miterlimit="10"/><path stroke-linecap="round" transform="matrix(1.875, 0, 0, 1.875, 21.37084, -36.270755)" fill="none" stroke-linejoin="round" d="M 410.800157 227.700664 L 417.700157 267.700666 " stroke="#18130b" stroke-width="70" stroke-opacity="1" stroke-miterlimit="10"/><path stroke-linecap="round" transform="matrix(1.875, 0, 0, 1.875, 21.37084, -36.270755)" fill="none" stroke-linejoin="round" d="M 320.700152 267.700666 L 212.000146 145.60066 " stroke="#f9ef82" stroke-width="80" stroke-opacity="1" stroke-miterlimit="10"/><path stroke-linecap="round" transform="matrix(1.875, 0, 0, 1.875, 21.37084, -36.270755)" fill="none" stroke-linejoin="round" d="M 260.500149 334.90067 L 129.000142 261.000666 " stroke="#18130b" stroke-width="70" stroke-opacity="1" stroke-miterlimit="10"/><path stroke-linecap="round" transform="matrix(1.875, 0, 0, 1.875, 21.37084, -36.270755)" fill="none" stroke-linejoin="round" d="M 216.500146 388.000673 L 158.600143 372.300672 " stroke="#f9ef82" stroke-width="50" stroke-opacity="1" stroke-miterlimit="10"/><path stroke-linecap="round" transform="matrix(1.875, 0, 0, 1.875, 21.37084, -36.270755)" fill="none" stroke-linejoin="round" d="M 199.600146 437.100675 L 150.100143 431.800675 " stroke="#18130b" stroke-width="40" stroke-opacity="1" stroke-miterlimit="10"/><path stroke-linecap="round" transform="matrix(1.875, 0, 0, 1.875, 21.37084, -36.270755)" fill="none" stroke-linejoin="round" d="M 461.100159 230.200664 L 481.90016 221.900664 " stroke="#18130b" stroke-width="15" stroke-opacity="1" stroke-miterlimit="10"/><path stroke-linecap="round" transform="matrix(1.875, 0, 0, 1.875, 21.37084, -36.270755)" fill="none" stroke-linejoin="round" d="M 465.500159 261.000666 L 486.600161 269.500667 " stroke="#18130b" stroke-width="15" stroke-opacity="1" stroke-miterlimit="10"/><g fill="#18130b" fill-opacity="1"><g transform="translate(996.032228, 540.669265)"><g><path d="M 275.125 -119.03125 L 57.796875 -119.03125 C 59.765625 -92.03125 70.132812 -70.210938 88.90625 -53.578125 C 107.675781 -36.953125 131.382812 -28.640625 160.03125 -28.640625 C 176.164062 -28.640625 190.984375 -31.519531 204.484375 -37.28125 C 217.984375 -43.050781 229.675781 -51.535156 239.5625 -62.734375 L 259.3125 -40.015625 C 247.789062 -26.179688 233.382812 -15.640625 216.09375 -8.390625 C 198.8125 -1.148438 179.796875 2.46875 159.046875 2.46875 C 132.367188 2.46875 108.738281 -3.207031 88.15625 -14.5625 C 67.582031 -25.925781 51.53125 -41.648438 40 -61.734375 C 28.476562 -81.828125 22.71875 -104.550781 22.71875 -129.90625 C 22.71875 -155.257812 28.234375 -177.976562 39.265625 -198.0625 C 50.296875 -218.15625 65.441406 -233.796875 84.703125 -244.984375 C 103.972656 -256.179688 125.625 -261.78125 149.65625 -261.78125 C 173.695312 -261.78125 195.265625 -256.179688 214.359375 -244.984375 C 233.460938 -233.796875 248.445312 -218.238281 259.3125 -198.3125 C 270.175781 -178.394531 275.609375 -155.59375 275.609375 -129.90625 Z M 149.65625 -231.65625 C 124.632812 -231.65625 103.644531 -223.671875 86.6875 -207.703125 C 69.726562 -191.734375 60.097656 -170.90625 57.796875 -145.21875 L 242.03125 -145.21875 C 239.726562 -170.90625 230.097656 -191.734375 213.140625 -207.703125 C 196.179688 -223.671875 175.019531 -231.65625 149.65625 -231.65625 Z M 149.65625 -231.65625 "/></g></g></g><g fill="#18130b" fill-opacity="1"><g transform="translate(1294.369746, 540.669265)"><g><path d="M 181.28125 -261.78125 C 213.875 -261.78125 239.800781 -252.3125 259.0625 -233.375 C 278.332031 -214.445312 287.96875 -186.875 287.96875 -150.65625 L 287.96875 0 L 252.890625 0 L 252.890625 -147.1875 C 252.890625 -174.195312 246.140625 -194.78125 232.640625 -208.9375 C 219.140625 -223.09375 199.878906 -230.171875 174.859375 -230.171875 C 146.867188 -230.171875 124.722656 -221.851562 108.421875 -205.21875 C 92.117188 -188.59375 83.96875 -165.628906 83.96875 -136.328125 L 83.96875 0 L 48.90625 0 L 48.90625 -259.8125 L 82.484375 -259.8125 L 82.484375 -211.90625 C 92.035156 -227.707031 105.289062 -239.96875 122.25 -248.6875 C 139.207031 -257.414062 158.882812 -261.78125 181.28125 -261.78125 Z M 181.28125 -261.78125 "/></g></g></g><g fill="#18130b" fill-opacity="1"><g transform="translate(1628.764659, 540.669265)"><g><path d="M 214.375 0 L 131.875 -108.671875 L 48.90625 0 L 9.390625 0 L 112.125 -133.359375 L 14.328125 -259.8125 L 53.84375 -259.8125 L 131.875 -158.0625 L 209.921875 -259.8125 L 248.453125 -259.8125 L 150.65625 -133.359375 L 254.375 0 Z M 214.375 0 "/></g></g></g><g fill="#18130b" fill-opacity="1"><g transform="translate(1892.5267, 540.669265)"><g><path d="M 139.78125 -261.78125 C 173.695312 -261.78125 199.710938 -253.300781 217.828125 -236.34375 C 235.941406 -219.382812 245 -194.28125 245 -161.03125 L 245 0 L 211.40625 0 L 211.40625 -40.5 C 203.5 -27 191.890625 -16.460938 176.578125 -8.890625 C 161.265625 -1.316406 143.070312 2.46875 122 2.46875 C 93.019531 2.46875 69.96875 -4.441406 52.84375 -18.265625 C 35.726562 -32.097656 27.171875 -50.378906 27.171875 -73.109375 C 27.171875 -95.171875 35.15625 -112.953125 51.125 -126.453125 C 67.09375 -139.953125 92.53125 -146.703125 127.4375 -146.703125 L 209.921875 -146.703125 L 209.921875 -162.5 C 209.921875 -184.894531 203.664062 -201.9375 191.15625 -213.625 C 178.644531 -225.3125 160.367188 -231.15625 136.328125 -231.15625 C 119.859375 -231.15625 104.050781 -228.4375 88.90625 -223 C 73.757812 -217.570312 60.753906 -210.082031 49.890625 -200.53125 L 34.078125 -226.71875 C 47.253906 -237.914062 63.0625 -246.554688 81.5 -252.640625 C 99.9375 -258.734375 119.363281 -261.78125 139.78125 -261.78125 Z M 127.4375 -25.1875 C 147.195312 -25.1875 164.15625 -29.710938 178.3125 -38.765625 C 192.46875 -47.828125 203.003906 -60.921875 209.921875 -78.046875 L 209.921875 -120.515625 L 128.421875 -120.515625 C 83.960938 -120.515625 61.734375 -105.039062 61.734375 -74.09375 C 61.734375 -58.945312 67.492188 -47.007812 79.015625 -38.28125 C 90.546875 -29.550781 106.6875 -25.1875 127.4375 -25.1875 Z M 127.4375 -25.1875 "/></g></g></g><g fill="#18130b" fill-opacity="1"><g transform="translate(2183.949203, 540.669265)"><g><path d="M 372.921875 -261.78125 C 405.523438 -261.78125 431.128906 -252.394531 449.734375 -233.625 C 468.335938 -214.863281 477.640625 -187.207031 477.640625 -150.65625 L 477.640625 0 L 442.5625 0 L 442.5625 -147.1875 C 442.5625 -174.195312 436.054688 -194.78125 423.046875 -208.9375 C 410.046875 -223.09375 391.691406 -230.171875 367.984375 -230.171875 C 340.984375 -230.171875 319.742188 -221.851562 304.265625 -205.21875 C 288.785156 -188.59375 281.046875 -165.628906 281.046875 -136.328125 L 281.046875 0 L 245.984375 0 L 245.984375 -147.1875 C 245.984375 -174.195312 239.476562 -194.78125 226.46875 -208.9375 C 213.457031 -223.09375 194.9375 -230.171875 170.90625 -230.171875 C 144.226562 -230.171875 123.066406 -221.851562 107.421875 -205.21875 C 91.785156 -188.59375 83.96875 -165.628906 83.96875 -136.328125 L 83.96875 0 L 48.90625 0 L 48.90625 -259.8125 L 82.484375 -259.8125 L 82.484375 -212.390625 C 91.703125 -228.203125 104.546875 -240.382812 121.015625 -248.9375 C 137.484375 -257.5 156.414062 -261.78125 177.8125 -261.78125 C 199.550781 -261.78125 218.40625 -257.171875 234.375 -247.953125 C 250.34375 -238.734375 262.28125 -225.066406 270.1875 -206.953125 C 279.738281 -224.078125 293.484375 -237.492188 311.421875 -247.203125 C 329.367188 -256.921875 349.867188 -261.78125 372.921875 -261.78125 Z M 372.921875 -261.78125 "/></g></g></g><g fill="#18130b" fill-opacity="1"><g transform="translate(2708.015756, 540.669265)"><g><path d="M 275.125 -119.03125 L 57.796875 -119.03125 C 59.765625 -92.03125 70.132812 -70.210938 88.90625 -53.578125 C 107.675781 -36.953125 131.382812 -28.640625 160.03125 -28.640625 C 176.164062 -28.640625 190.984375 -31.519531 204.484375 -37.28125 C 217.984375 -43.050781 229.675781 -51.535156 239.5625 -62.734375 L 259.3125 -40.015625 C 247.789062 -26.179688 233.382812 -15.640625 216.09375 -8.390625 C 198.8125 -1.148438 179.796875 2.46875 159.046875 2.46875 C 132.367188 2.46875 108.738281 -3.207031 88.15625 -14.5625 C 67.582031 -25.925781 51.53125 -41.648438 40 -61.734375 C 28.476562 -81.828125 22.71875 -104.550781 22.71875 -129.90625 C 22.71875 -155.257812 28.234375 -177.976562 39.265625 -198.0625 C 50.296875 -218.15625 65.441406 -233.796875 84.703125 -244.984375 C 103.972656 -256.179688 125.625 -261.78125 149.65625 -261.78125 C 173.695312 -261.78125 195.265625 -256.179688 214.359375 -244.984375 C 233.460938 -233.796875 248.445312 -218.238281 259.3125 -198.3125 C 270.175781 -178.394531 275.609375 -155.59375 275.609375 -129.90625 Z M 149.65625 -231.65625 C 124.632812 -231.65625 103.644531 -223.671875 86.6875 -207.703125 C 69.726562 -191.734375 60.097656 -170.90625 57.796875 -145.21875 L 242.03125 -145.21875 C 239.726562 -170.90625 230.097656 -191.734375 213.140625 -207.703125 C 196.179688 -223.671875 175.019531 -231.65625 149.65625 -231.65625 Z M 149.65625 -231.65625 "/></g></g></g><g fill="#18130b" fill-opacity="1"><g transform="translate(3006.346786, 540.669265)"><g><path d="M 112.625 -280.5625 L 1.96875 -280.5625 L 1.96875 -345.75 L 303.28125 -345.75 L 303.28125 -280.5625 L 192.640625 -280.5625 L 192.640625 0 L 112.625 0 Z M 112.625 -280.5625 "/></g></g></g><g fill="#18130b" fill-opacity="1"><g transform="translate(3311.599425, 540.669265)"><g><path d="M 308.703125 -64.21875 L 308.703125 0 L 41 0 L 41 -345.75 L 302.296875 -345.75 L 302.296875 -281.546875 L 120.515625 -281.546875 L 120.515625 -206.46875 L 281.046875 -206.46875 L 281.046875 -144.234375 L 120.515625 -144.234375 L 120.515625 -64.21875 Z M 308.703125 -64.21875 "/></g></g></g><g fill="#18130b" fill-opacity="1"><g transform="translate(3643.030725, 540.669265)"><g><path d="M 206.46875 5.921875 C 171.226562 5.921875 139.363281 -1.734375 110.875 -17.046875 C 82.394531 -32.359375 60.003906 -53.597656 43.703125 -80.765625 C 27.410156 -107.929688 19.265625 -138.632812 19.265625 -172.875 C 19.265625 -207.125 27.410156 -237.832031 43.703125 -265 C 60.003906 -292.164062 82.394531 -313.40625 110.875 -328.71875 C 139.363281 -344.03125 171.390625 -351.6875 206.953125 -351.6875 C 236.921875 -351.6875 264.003906 -346.414062 288.203125 -335.875 C 312.410156 -325.34375 332.75 -310.195312 349.21875 -290.4375 L 297.84375 -243.015625 C 274.46875 -270.015625 245.488281 -283.515625 210.90625 -283.515625 C 189.507812 -283.515625 170.410156 -278.820312 153.609375 -269.4375 C 136.816406 -260.050781 123.726562 -246.960938 114.34375 -230.171875 C 104.957031 -213.378906 100.265625 -194.28125 100.265625 -172.875 C 100.265625 -151.46875 104.957031 -132.367188 114.34375 -115.578125 C 123.726562 -98.785156 136.816406 -85.695312 153.609375 -76.3125 C 170.410156 -66.925781 189.507812 -62.234375 210.90625 -62.234375 C 245.488281 -62.234375 274.46875 -75.898438 297.84375 -103.234375 L 349.21875 -55.8125 C 332.75 -35.726562 312.332031 -20.414062 287.96875 -9.875 C 263.601562 0.65625 236.4375 5.921875 206.46875 5.921875 Z M 206.46875 5.921875 "/></g></g></g><g fill="#18130b" fill-opacity="1"><g transform="translate(4005.086163, 540.669265)"><g><path d="M 358.109375 -345.75 L 358.109375 0 L 278.09375 0 L 278.09375 -141.765625 L 121.015625 -141.765625 L 121.015625 0 L 41 0 L 41 -345.75 L 121.015625 -345.75 L 121.015625 -209.421875 L 278.09375 -209.421875 L 278.09375 -345.75 Z M 358.109375 -345.75 "/></g></g></g><g fill="#18130b" fill-opacity="1"><g transform="translate(2342.412548, 780.055707)"><g><path d="M 86.15625 -112.1875 C 95.613281 -112.1875 104.046875 -110.28125 111.453125 -106.46875 C 118.859375 -102.664062 124.609375 -97.234375 128.703125 -90.171875 C 132.796875 -83.117188 134.84375 -74.796875 134.84375 -65.203125 C 134.84375 -52.640625 132.125 -41.3125 126.6875 -31.21875 C 121.257812 -21.132812 113.742188 -13.234375 104.140625 -7.515625 C 94.546875 -1.796875 83.753906 1.0625 71.765625 1.0625 C 61.035156 1.0625 52.035156 -1.125 44.765625 -5.5 C 37.503906 -9.875 32.320312 -16.15625 29.21875 -24.34375 L 24.34375 0 L 9.953125 0 L 41.28125 -157.078125 L 56.3125 -157.078125 L 43.8125 -94.625 C 49.175781 -100.269531 55.421875 -104.609375 62.546875 -107.640625 C 69.679688 -110.671875 77.550781 -112.1875 86.15625 -112.1875 Z M 71.546875 -12.28125 C 80.722656 -12.28125 88.941406 -14.5 96.203125 -18.9375 C 103.472656 -23.382812 109.191406 -29.5625 113.359375 -37.46875 C 117.523438 -45.375 119.609375 -54.335938 119.609375 -64.359375 C 119.609375 -75.222656 116.394531 -83.722656 109.96875 -89.859375 C 103.550781 -95.992188 94.554688 -99.0625 82.984375 -99.0625 C 73.804688 -99.0625 65.582031 -96.835938 58.3125 -92.390625 C 51.050781 -87.953125 45.335938 -81.742188 41.171875 -73.765625 C 37.003906 -65.796875 34.921875 -56.800781 34.921875 -46.78125 C 34.921875 -35.914062 38.128906 -27.445312 44.546875 -21.375 C 50.972656 -15.3125 59.972656 -12.28125 71.546875 -12.28125 Z M 71.546875 -12.28125 "/></g></g></g><g fill="#18130b" fill-opacity="1"><g transform="translate(2485.93641, 780.055707)"><g><path d="M 23.921875 -51.4375 C 23.773438 -50.445312 23.703125 -48.96875 23.703125 -47 C 23.703125 -35.707031 26.910156 -27.097656 33.328125 -21.171875 C 39.753906 -15.242188 49.320312 -12.28125 62.03125 -12.28125 C 69.363281 -12.28125 76.238281 -13.515625 82.65625 -15.984375 C 89.082031 -18.453125 94.34375 -21.875 98.4375 -26.25 L 105.203125 -15.453125 C 99.984375 -10.234375 93.457031 -6.175781 85.625 -3.28125 C 77.789062 -0.382812 69.5 1.0625 60.75 1.0625 C 44.664062 1.0625 32 -3.171875 22.75 -11.640625 C 13.507812 -20.109375 8.890625 -31.679688 8.890625 -46.359375 C 8.890625 -58.773438 11.535156 -69.992188 16.828125 -80.015625 C 22.117188 -90.035156 29.457031 -97.898438 38.84375 -103.609375 C 48.226562 -109.328125 58.773438 -112.1875 70.484375 -112.1875 C 85.304688 -112.1875 97.09375 -107.988281 105.84375 -99.59375 C 114.59375 -91.195312 118.96875 -79.660156 118.96875 -64.984375 C 118.96875 -60.890625 118.472656 -56.375 117.484375 -51.4375 Z M 70.0625 -99.5 C 58.914062 -99.5 49.390625 -96.179688 41.484375 -89.546875 C 33.585938 -82.910156 28.226562 -73.945312 25.40625 -62.65625 L 104.78125 -62.65625 C 104.925781 -63.644531 105 -64.988281 105 -66.6875 C 105 -77.125 101.820312 -85.203125 95.46875 -90.921875 C 89.113281 -96.640625 80.644531 -99.5 70.0625 -99.5 Z M 70.0625 -99.5 "/></g></g></g><g fill="#18130b" fill-opacity="1"><g transform="translate(2613.795414, 780.055707)"><g><path d="M 23.921875 -51.4375 C 23.773438 -50.445312 23.703125 -48.96875 23.703125 -47 C 23.703125 -35.707031 26.910156 -27.097656 33.328125 -21.171875 C 39.753906 -15.242188 49.320312 -12.28125 62.03125 -12.28125 C 69.363281 -12.28125 76.238281 -13.515625 82.65625 -15.984375 C 89.082031 -18.453125 94.34375 -21.875 98.4375 -26.25 L 105.203125 -15.453125 C 99.984375 -10.234375 93.457031 -6.175781 85.625 -3.28125 C 77.789062 -0.382812 69.5 1.0625 60.75 1.0625 C 44.664062 1.0625 32 -3.171875 22.75 -11.640625 C 13.507812 -20.109375 8.890625 -31.679688 8.890625 -46.359375 C 8.890625 -58.773438 11.535156 -69.992188 16.828125 -80.015625 C 22.117188 -90.035156 29.457031 -97.898438 38.84375 -103.609375 C 48.226562 -109.328125 58.773438 -112.1875 70.484375 -112.1875 C 85.304688 -112.1875 97.09375 -107.988281 105.84375 -99.59375 C 114.59375 -91.195312 118.96875 -79.660156 118.96875 -64.984375 C 118.96875 -60.890625 118.472656 -56.375 117.484375 -51.4375 Z M 70.0625 -99.5 C 58.914062 -99.5 49.390625 -96.179688 41.484375 -89.546875 C 33.585938 -82.910156 28.226562 -73.945312 25.40625 -62.65625 L 104.78125 -62.65625 C 104.925781 -63.644531 105 -64.988281 105 -66.6875 C 105 -77.125 101.820312 -85.203125 95.46875 -90.921875 C 89.113281 -96.640625 80.644531 -99.5 70.0625 -99.5 Z M 70.0625 -99.5 "/></g></g></g><g fill="#003096" fill-opacity="1"><g transform="translate(2741.646902, 780.055707)"><g><path d="M 84.046875 2.546875 C 69.222656 2.546875 56.269531 -0.132812 45.1875 -5.5 C 34.113281 -10.863281 25.613281 -18.414062 19.6875 -28.15625 C 13.757812 -37.894531 10.796875 -49.113281 10.796875 -61.8125 C 10.796875 -78.601562 14.640625 -93.738281 22.328125 -107.21875 C 30.023438 -120.695312 40.859375 -131.316406 54.828125 -139.078125 C 68.796875 -146.835938 84.8125 -150.71875 102.875 -150.71875 C 116.144531 -150.71875 127.859375 -148.457031 138.015625 -143.9375 C 148.179688 -139.425781 155.875 -132.9375 161.09375 -124.46875 L 136.328125 -104.15625 C 128.421875 -115.726562 116.492188 -121.515625 100.546875 -121.515625 C 89.679688 -121.515625 80.082031 -118.972656 71.75 -113.890625 C 63.425781 -108.804688 56.972656 -101.890625 52.390625 -93.140625 C 47.804688 -84.390625 45.515625 -74.648438 45.515625 -63.921875 C 45.515625 -52.492188 49.144531 -43.425781 56.40625 -36.71875 C 63.675781 -30.019531 73.875 -26.671875 87 -26.671875 C 102.664062 -26.671875 115.789062 -32.382812 126.375 -43.8125 L 146.703125 -23.078125 C 132.023438 -5.992188 111.140625 2.546875 84.046875 2.546875 Z M 84.046875 2.546875 "/></g></g></g><g fill="#003096" fill-opacity="1"><g transform="translate(2896.813591, 780.055707)"><g><path d="M 82.984375 2.546875 C 68.160156 2.546875 55.316406 -0.132812 44.453125 -5.5 C 33.585938 -10.863281 25.257812 -18.414062 19.46875 -28.15625 C 13.6875 -37.894531 10.796875 -49.113281 10.796875 -61.8125 C 10.796875 -78.601562 14.640625 -93.738281 22.328125 -107.21875 C 30.023438 -120.695312 40.820312 -131.316406 54.71875 -139.078125 C 68.625 -146.835938 84.535156 -150.71875 102.453125 -150.71875 C 117.273438 -150.71875 130.117188 -148.035156 140.984375 -142.671875 C 151.847656 -137.316406 160.171875 -129.769531 165.953125 -120.03125 C 171.742188 -110.289062 174.640625 -99.070312 174.640625 -86.375 C 174.640625 -69.570312 170.789062 -54.429688 163.09375 -40.953125 C 155.40625 -27.484375 144.609375 -16.863281 130.703125 -9.09375 C 116.804688 -1.332031 100.898438 2.546875 82.984375 2.546875 Z M 85.9375 -26.671875 C 96.8125 -26.671875 106.335938 -29.28125 114.515625 -34.5 C 122.703125 -39.726562 128.984375 -46.71875 133.359375 -55.46875 C 137.734375 -64.21875 139.921875 -73.882812 139.921875 -84.46875 C 139.921875 -95.75 136.390625 -104.742188 129.328125 -111.453125 C 122.273438 -118.160156 112.332031 -121.515625 99.5 -121.515625 C 88.625 -121.515625 79.09375 -118.898438 70.90625 -113.671875 C 62.726562 -108.453125 56.453125 -101.46875 52.078125 -92.71875 C 47.703125 -83.96875 45.515625 -74.300781 45.515625 -63.71875 C 45.515625 -52.425781 49.039062 -43.425781 56.09375 -36.71875 C 63.15625 -30.019531 73.101562 -26.671875 85.9375 -26.671875 Z M 85.9375 -26.671875 "/></g></g></g><g fill="#003096" fill-opacity="1"><g transform="translate(3075.477539, 780.055707)"><g><path d="M 35.78125 -148.1875 L 97.796875 -148.1875 C 112.898438 -148.1875 125.921875 -145.679688 136.859375 -140.671875 C 147.796875 -135.660156 156.191406 -128.492188 162.046875 -119.171875 C 167.898438 -109.859375 170.828125 -98.925781 170.828125 -86.375 C 170.828125 -69.15625 166.945312 -54.015625 159.1875 -40.953125 C 151.425781 -27.898438 140.59375 -17.8125 126.6875 -10.6875 C 112.789062 -3.5625 96.738281 0 78.53125 0 L 6.140625 0 Z M 79.59375 -28.15625 C 91.164062 -28.15625 101.21875 -30.585938 109.75 -35.453125 C 118.289062 -40.328125 124.816406 -47.03125 129.328125 -55.5625 C 133.847656 -64.101562 136.109375 -73.738281 136.109375 -84.46875 C 136.109375 -95.613281 132.507812 -104.328125 125.3125 -110.609375 C 118.113281 -116.890625 107.671875 -120.03125 93.984375 -120.03125 L 64.5625 -120.03125 L 46.140625 -28.15625 Z M 79.59375 -28.15625 "/></g></g></g><g fill="#003096" fill-opacity="1"><g transform="translate(3250.331075, 780.055707)"><g><path d="M 64.359375 -120.65625 L 58 -88.484375 L 126.796875 -88.484375 L 121.515625 -61.8125 L 52.5 -61.8125 L 45.71875 -27.515625 L 126.59375 -27.515625 L 120.875 0 L 6.140625 0 L 35.78125 -148.1875 L 147.765625 -148.1875 L 142.046875 -120.65625 Z M 64.359375 -120.65625 "/></g></g></g><g fill="#18130b" fill-opacity="1"><g transform="translate(3392.365655, 780.055707)"><g/></g></g><g fill="#18130b" fill-opacity="1"><g transform="translate(3447.827693, 780.055707)"><g><path d="M 42.34375 1.0625 C 33.445312 1.0625 24.941406 -0.207031 16.828125 -2.75 C 8.710938 -5.289062 2.46875 -8.535156 -1.90625 -12.484375 L 5.296875 -24.34375 C 9.523438 -20.675781 15.097656 -17.710938 22.015625 -15.453125 C 28.929688 -13.191406 36.195312 -12.0625 43.8125 -12.0625 C 54.40625 -12.0625 62.554688 -13.789062 68.265625 -17.25 C 73.984375 -20.707031 76.84375 -25.613281 76.84375 -31.96875 C 76.84375 -35.488281 75.675781 -38.304688 73.34375 -40.421875 C 71.019531 -42.546875 68.164062 -44.171875 64.78125 -45.296875 C 61.394531 -46.429688 56.453125 -47.703125 49.953125 -49.109375 C 42.191406 -50.804688 35.910156 -52.5 31.109375 -54.1875 C 26.316406 -55.882812 22.226562 -58.566406 18.84375 -62.234375 C 15.457031 -65.898438 13.765625 -70.984375 13.765625 -77.484375 C 13.765625 -88.066406 18.140625 -96.492188 26.890625 -102.765625 C 35.640625 -109.046875 47.351562 -112.1875 62.03125 -112.1875 C 69.226562 -112.1875 76.25 -111.234375 83.09375 -109.328125 C 89.9375 -107.429688 95.472656 -104.929688 99.703125 -101.828125 L 93.359375 -89.75 C 89.117188 -92.851562 84.140625 -95.21875 78.421875 -96.84375 C 72.710938 -98.46875 66.820312 -99.28125 60.75 -99.28125 C 50.59375 -99.28125 42.691406 -97.445312 37.046875 -93.78125 C 31.398438 -90.113281 28.578125 -85.171875 28.578125 -78.953125 C 28.578125 -75.285156 29.773438 -72.320312 32.171875 -70.0625 C 34.578125 -67.8125 37.578125 -66.117188 41.171875 -64.984375 C 44.773438 -63.859375 49.679688 -62.660156 55.890625 -61.390625 C 63.503906 -59.691406 69.675781 -58.03125 74.40625 -56.40625 C 79.132812 -54.789062 83.191406 -52.144531 86.578125 -48.46875 C 89.960938 -44.800781 91.65625 -39.863281 91.65625 -33.65625 C 91.65625 -22.789062 87.175781 -14.285156 78.21875 -8.140625 C 69.257812 -2.003906 57.300781 1.0625 42.34375 1.0625 Z M 42.34375 1.0625 "/></g></g></g><g fill="#18130b" fill-opacity="1"><g transform="translate(3551.34269, 780.055707)"><g><path d="M 59.484375 1.0625 C 49.328125 1.0625 40.4375 -0.875 32.8125 -4.75 C 25.1875 -8.632812 19.289062 -14.140625 15.125 -21.265625 C 10.96875 -28.398438 8.890625 -36.691406 8.890625 -46.140625 C 8.890625 -58.703125 11.640625 -69.992188 17.140625 -80.015625 C 22.648438 -90.035156 30.304688 -97.898438 40.109375 -103.609375 C 49.921875 -109.328125 60.96875 -112.1875 73.25 -112.1875 C 88.769531 -112.1875 101.082031 -107.953125 110.1875 -99.484375 C 119.289062 -91.023438 123.84375 -79.597656 123.84375 -65.203125 C 123.84375 -52.640625 121.085938 -41.3125 115.578125 -31.21875 C 110.078125 -21.132812 102.421875 -13.234375 92.609375 -7.515625 C 82.804688 -1.796875 71.765625 1.0625 59.484375 1.0625 Z M 60.546875 -12.28125 C 69.710938 -12.28125 77.960938 -14.5 85.296875 -18.9375 C 92.640625 -23.382812 98.394531 -29.59375 102.5625 -37.5625 C 106.726562 -45.539062 108.8125 -54.472656 108.8125 -64.359375 C 108.8125 -75.222656 105.597656 -83.722656 99.171875 -89.859375 C 92.753906 -95.992188 83.757812 -99.0625 72.1875 -99.0625 C 63.007812 -99.0625 54.75 -96.800781 47.40625 -92.28125 C 40.070312 -87.769531 34.320312 -81.523438 30.15625 -73.546875 C 26 -65.578125 23.921875 -56.65625 23.921875 -46.78125 C 23.921875 -35.914062 27.128906 -27.445312 33.546875 -21.375 C 39.972656 -15.3125 48.972656 -12.28125 60.546875 -12.28125 Z M 60.546875 -12.28125 "/></g></g></g><g fill="#18130b" fill-opacity="1"><g transform="translate(3684.070506, 780.055707)"><g><path d="M 41.28125 -157.078125 L 56.3125 -157.078125 L 24.984375 0 L 9.953125 0 Z M 41.28125 -157.078125 "/></g></g></g><g fill="#18130b" fill-opacity="1"><g transform="translate(3741.014335, 780.055707)"><g><path d="M 132.515625 -111.34375 L 110.296875 0 L 95.890625 0 L 99.5 -17.78125 C 89.050781 -5.21875 74.722656 1.0625 56.515625 1.0625 C 44.097656 1.0625 34.394531 -2.144531 27.40625 -8.5625 C 20.425781 -14.988281 16.9375 -23.921875 16.9375 -35.359375 C 16.9375 -39.304688 17.359375 -43.46875 18.203125 -47.84375 L 30.90625 -111.34375 L 45.9375 -111.34375 L 33.234375 -47.84375 C 32.523438 -43.894531 32.171875 -40.578125 32.171875 -37.890625 C 32.171875 -29.703125 34.535156 -23.421875 39.265625 -19.046875 C 43.992188 -14.671875 51.085938 -12.484375 60.546875 -12.484375 C 72.398438 -12.484375 82.207031 -15.800781 89.96875 -22.4375 C 97.726562 -29.070312 102.945312 -38.738281 105.625 -51.4375 L 117.484375 -111.34375 Z M 132.515625 -111.34375 "/></g></g></g><g fill="#18130b" fill-opacity="1"><g transform="translate(3883.479768, 780.055707)"><g><path d="M 34.078125 -33.65625 C 33.515625 -30.269531 33.234375 -27.941406 33.234375 -26.671875 C 33.234375 -16.796875 38.597656 -11.859375 49.328125 -11.859375 C 55.671875 -11.859375 61.382812 -13.757812 66.46875 -17.5625 L 70.0625 -6.140625 C 63.71875 -1.335938 55.460938 1.0625 45.296875 1.0625 C 36.972656 1.0625 30.375 -1.191406 25.5 -5.703125 C 20.632812 -10.222656 18.203125 -16.4375 18.203125 -24.34375 C 18.203125 -27.445312 18.484375 -30.335938 19.046875 -33.015625 L 31.96875 -98.640625 L 12.28125 -98.640625 L 14.609375 -111.34375 L 34.5 -111.34375 L 39.375 -135.6875 L 54.40625 -135.6875 L 49.53125 -111.34375 L 83.40625 -111.34375 L 80.859375 -98.640625 L 47 -98.640625 Z M 34.078125 -33.65625 "/></g></g></g><g fill="#18130b" fill-opacity="1"><g transform="translate(3969.424756, 780.055707)"><g><path d="M 31.96875 -111.34375 L 47 -111.34375 L 24.984375 0 L 9.953125 0 Z M 45.9375 -135.6875 C 42.96875 -135.6875 40.53125 -136.675781 38.625 -138.65625 C 36.71875 -140.632812 35.765625 -142.960938 35.765625 -145.640625 C 35.765625 -148.890625 36.859375 -151.609375 39.046875 -153.796875 C 41.234375 -155.984375 44.019531 -157.078125 47.40625 -157.078125 C 50.375 -157.078125 52.84375 -156.125 54.8125 -154.21875 C 56.789062 -152.3125 57.78125 -150.085938 57.78125 -147.546875 C 57.78125 -144.160156 56.648438 -141.335938 54.390625 -139.078125 C 52.140625 -136.816406 49.320312 -135.6875 45.9375 -135.6875 Z M 45.9375 -135.6875 "/></g></g></g><g fill="#18130b" fill-opacity="1"><g transform="translate(4026.368585, 780.055707)"><g><path d="M 59.484375 1.0625 C 49.328125 1.0625 40.4375 -0.875 32.8125 -4.75 C 25.1875 -8.632812 19.289062 -14.140625 15.125 -21.265625 C 10.96875 -28.398438 8.890625 -36.691406 8.890625 -46.140625 C 8.890625 -58.703125 11.640625 -69.992188 17.140625 -80.015625 C 22.648438 -90.035156 30.304688 -97.898438 40.109375 -103.609375 C 49.921875 -109.328125 60.96875 -112.1875 73.25 -112.1875 C 88.769531 -112.1875 101.082031 -107.953125 110.1875 -99.484375 C 119.289062 -91.023438 123.84375 -79.597656 123.84375 -65.203125 C 123.84375 -52.640625 121.085938 -41.3125 115.578125 -31.21875 C 110.078125 -21.132812 102.421875 -13.234375 92.609375 -7.515625 C 82.804688 -1.796875 71.765625 1.0625 59.484375 1.0625 Z M 60.546875 -12.28125 C 69.710938 -12.28125 77.960938 -14.5 85.296875 -18.9375 C 92.640625 -23.382812 98.394531 -29.59375 102.5625 -37.5625 C 106.726562 -45.539062 108.8125 -54.472656 108.8125 -64.359375 C 108.8125 -75.222656 105.597656 -83.722656 99.171875 -89.859375 C 92.753906 -95.992188 83.757812 -99.0625 72.1875 -99.0625 C 63.007812 -99.0625 54.75 -96.800781 47.40625 -92.28125 C 40.070312 -87.769531 34.320312 -81.523438 30.15625 -73.546875 C 26 -65.578125 23.921875 -56.65625 23.921875 -46.78125 C 23.921875 -35.914062 27.128906 -27.445312 33.546875 -21.375 C 39.972656 -15.3125 48.972656 -12.28125 60.546875 -12.28125 Z M 60.546875 -12.28125 "/></g></g></g><g fill="#18130b" fill-opacity="1"><g transform="translate(4159.096423, 780.055707)"><g><path d="M 86.375 -112.1875 C 98.925781 -112.1875 108.695312 -108.976562 115.6875 -102.5625 C 122.675781 -96.144531 126.171875 -87.289062 126.171875 -76 C 126.171875 -72.039062 125.742188 -67.804688 124.890625 -63.296875 L 112.1875 0 L 97.171875 0 L 109.859375 -63.5 C 110.566406 -67.457031 110.921875 -70.847656 110.921875 -73.671875 C 110.921875 -81.710938 108.484375 -87.882812 103.609375 -92.1875 C 98.742188 -96.488281 91.585938 -98.640625 82.140625 -98.640625 C 70.140625 -98.640625 60.257812 -95.359375 52.5 -88.796875 C 44.738281 -82.234375 39.515625 -72.535156 36.828125 -59.703125 L 24.984375 0 L 9.953125 0 L 31.96875 -111.34375 L 46.359375 -111.34375 L 42.765625 -93.5625 C 53.347656 -105.976562 67.882812 -112.1875 86.375 -112.1875 Z M 86.375 -112.1875 "/></g></g></g><g fill="#18130b" fill-opacity="1"><g transform="translate(4302.408583, 780.055707)"><g><path d="M 42.34375 1.0625 C 33.445312 1.0625 24.941406 -0.207031 16.828125 -2.75 C 8.710938 -5.289062 2.46875 -8.535156 -1.90625 -12.484375 L 5.296875 -24.34375 C 9.523438 -20.675781 15.097656 -17.710938 22.015625 -15.453125 C 28.929688 -13.191406 36.195312 -12.0625 43.8125 -12.0625 C 54.40625 -12.0625 62.554688 -13.789062 68.265625 -17.25 C 73.984375 -20.707031 76.84375 -25.613281 76.84375 -31.96875 C 76.84375 -35.488281 75.675781 -38.304688 73.34375 -40.421875 C 71.019531 -42.546875 68.164062 -44.171875 64.78125 -45.296875 C 61.394531 -46.429688 56.453125 -47.703125 49.953125 -49.109375 C 42.191406 -50.804688 35.910156 -52.5 31.109375 -54.1875 C 26.316406 -55.882812 22.226562 -58.566406 18.84375 -62.234375 C 15.457031 -65.898438 13.765625 -70.984375 13.765625 -77.484375 C 13.765625 -88.066406 18.140625 -96.492188 26.890625 -102.765625 C 35.640625 -109.046875 47.351562 -112.1875 62.03125 -112.1875 C 69.226562 -112.1875 76.25 -111.234375 83.09375 -109.328125 C 89.9375 -107.429688 95.472656 -104.929688 99.703125 -101.828125 L 93.359375 -89.75 C 89.117188 -92.851562 84.140625 -95.21875 78.421875 -96.84375 C 72.710938 -98.46875 66.820312 -99.28125 60.75 -99.28125 C 50.59375 -99.28125 42.691406 -97.445312 37.046875 -93.78125 C 31.398438 -90.113281 28.578125 -85.171875 28.578125 -78.953125 C 28.578125 -75.285156 29.773438 -72.320312 32.171875 -70.0625 C 34.578125 -67.8125 37.578125 -66.117188 41.171875 -64.984375 C 44.773438 -63.859375 49.679688 -62.660156 55.890625 -61.390625 C 63.503906 -59.691406 69.675781 -58.03125 74.40625 -56.40625 C 79.132812 -54.789062 83.191406 -52.144531 86.578125 -48.46875 C 89.960938 -44.800781 91.65625 -39.863281 91.65625 -33.65625 C 91.65625 -22.789062 87.175781 -14.285156 78.21875 -8.140625 C 69.257812 -2.003906 57.300781 1.0625 42.34375 1.0625 Z M 42.34375 1.0625 "/></g></g></g></svg>