<svg xmlns="http://www.w3.org/2000/svg" xmlns:xlink="http://www.w3.org/1999/xlink" width="5952" zoomAndPan="magnify" viewBox="0 0 4464 899.99999" height="1200" preserveAspectRatio="xMidYMid meet" version="1.0"><defs><g/></defs><rect x="-446.4" width="5356.8" fill="#ffffff" y="-89.999999" height="1079.999988" fill-opacity="1"/><rect x="-446.4" width="5356.8" fill="#ffffff" y="-89.999999" height="1079.999988" fill-opacity="1"/><rect x="-446.4" width="5356.8" fill="#fffcf8" y="-89.999999" height="1079.999988" fill-opacity="1"/><path stroke-linecap="round" transform="matrix(1.875, 0, 0, 1.875, 21.37084, -36.270813)" fill="none" stroke-linejoin="round" d="M 253.600148 424.600706 L 316.200152 424.600706 C 334.500153 424.600706 351.500153 415.000705 361.000154 399.400705 L 407.400156 322.800701 " stroke="#18130b" stroke-width="15" stroke-opacity="1" stroke-miterlimit="10"/><path stroke-linecap="round" transform="matrix(1.875, 0, 0, 1.875, 21.37084, -36.270813)" fill="none" stroke-linejoin="round" d="M 405.800156 168.000692 L 361.000154 94.000689 C 351.500153 78.300688 334.500153 68.800687 316.200152 68.800687 L 159.800143 68.800687 C 141.500142 68.800687 124.500142 78.400688 115.000141 94.000689 L 39.000137 219.600695 C 28.900137 236.300696 28.900137 257.100697 39.000137 273.800698 L 122.100141 411.100705 " stroke="#18130b" stroke-width="15" stroke-opacity="1" stroke-miterlimit="10"/><path stroke-linecap="round" transform="matrix(1.875, 0, 0, 1.875, 21.37084, -36.270813)" fill="none" stroke-linejoin="round" d="M 410.800157 227.700696 L 417.700157 267.700698 " stroke="#18130b" stroke-width="70" stroke-opacity="1" stroke-miterlimit="10"/><path stroke-linecap="round" transform="matrix(1.875, 0, 0, 1.875, 21.37084, -36.270813)" fill="none" stroke-linejoin="round" d="M 320.700152 267.700698 L 212.000146 145.600691 " stroke="#f9ef82" stroke-width="80" stroke-opacity="1" stroke-miterlimit="10"/><path stroke-linecap="round" transform="matrix(1.875, 0, 0, 1.875, 21.37084, -36.270813)" fill="none" stroke-linejoin="round" d="M 260.500149 334.900701 L 129.000142 261.000697 " stroke="#18130b" stroke-width="70" stroke-opacity="1" stroke-miterlimit="10"/><path stroke-linecap="round" transform="matrix(1.875, 0, 0, 1.875, 21.37084, -36.270813)" fill="none" stroke-linejoin="round" d="M 216.500146 388.000704 L 158.600143 372.300703 " stroke="#f9ef82" stroke-width="50" stroke-opacity="1" stroke-miterlimit="10"/><path stroke-linecap="round" transform="matrix(1.875, 0, 0, 1.875, 21.37084, -36.270813)" fill="none" stroke-linejoin="round" d="M 199.600146 437.100707 L 150.100143 431.800706 " stroke="#18130b" stroke-width="40" stroke-opacity="1" stroke-miterlimit="10"/><path stroke-linecap="round" transform="matrix(1.875, 0, 0, 1.875, 21.37084, -36.270813)" fill="none" stroke-linejoin="round" d="M 461.100159 230.200696 L 481.90016 221.900695 " stroke="#18130b" stroke-width="15" stroke-opacity="1" stroke-miterlimit="10"/><path stroke-linecap="round" transform="matrix(1.875, 0, 0, 1.875, 21.37084, -36.270813)" fill="none" stroke-linejoin="round" d="M 465.500159 261.000697 L 486.600161 269.500698 " stroke="#18130b" stroke-width="15" stroke-opacity="1" stroke-miterlimit="10"/><g fill="#18130b" fill-opacity="1"><g transform="translate(996.032228, 540.669157)"><g><path d="M 275.125 -119.03125 L 57.796875 -119.03125 C 59.765625 -92.03125 70.132812 -70.210938 88.90625 -53.578125 C 107.675781 -36.953125 131.382812 -28.640625 160.03125 -28.640625 C 176.164062 -28.640625 190.984375 -31.519531 204.484375 -37.28125 C 217.984375 -43.050781 229.675781 -51.535156 239.5625 -62.734375 L 259.3125 -40.015625 C 247.789062 -26.179688 233.382812 -15.640625 216.09375 -8.390625 C 198.8125 -1.148438 179.796875 2.46875 159.046875 2.46875 C 132.367188 2.46875 108.738281 -3.207031 88.15625 -14.5625 C 67.582031 -25.925781 51.53125 -41.648438 40 -61.734375 C 28.476562 -81.828125 22.71875 -104.550781 22.71875 -129.90625 C 22.71875 -155.257812 28.234375 -177.976562 39.265625 -198.0625 C 50.296875 -218.15625 65.441406 -233.796875 84.703125 -244.984375 C 103.972656 -256.179688 125.625 -261.78125 149.65625 -261.78125 C 173.695312 -261.78125 195.265625 -256.179688 214.359375 -244.984375 C 233.460938 -233.796875 248.445312 -218.238281 259.3125 -198.3125 C 270.175781 -178.394531 275.609375 -155.59375 275.609375 -129.90625 Z M 149.65625 -231.65625 C 124.632812 -231.65625 103.644531 -223.671875 86.6875 -207.703125 C 69.726562 -191.734375 60.097656 -170.90625 57.796875 -145.21875 L 242.03125 -145.21875 C 239.726562 -170.90625 230.097656 -191.734375 213.140625 -207.703125 C 196.179688 -223.671875 175.019531 -231.65625 149.65625 -231.65625 Z M 149.65625 -231.65625 "/></g></g></g><g fill="#18130b" fill-opacity="1"><g transform="translate(1294.369746, 540.669157)"><g><path d="M 181.28125 -261.78125 C 213.875 -261.78125 239.800781 -252.3125 259.0625 -233.375 C 278.332031 -214.445312 287.96875 -186.875 287.96875 -150.65625 L 287.96875 0 L 252.890625 0 L 252.890625 -147.1875 C 252.890625 -174.195312 246.140625 -194.78125 232.640625 -208.9375 C 219.140625 -223.09375 199.878906 -230.171875 174.859375 -230.171875 C 146.867188 -230.171875 124.722656 -221.851562 108.421875 -205.21875 C 92.117188 -188.59375 83.96875 -165.628906 83.96875 -136.328125 L 83.96875 0 L 48.90625 0 L 48.90625 -259.8125 L 82.484375 -259.8125 L 82.484375 -211.90625 C 92.035156 -227.707031 105.289062 -239.96875 122.25 -248.6875 C 139.207031 -257.414062 158.882812 -261.78125 181.28125 -261.78125 Z M 181.28125 -261.78125 "/></g></g></g><g fill="#18130b" fill-opacity="1"><g transform="translate(1628.764659, 540.669157)"><g><path d="M 214.375 0 L 131.875 -108.671875 L 48.90625 0 L 9.390625 0 L 112.125 -133.359375 L 14.328125 -259.8125 L 53.84375 -259.8125 L 131.875 -158.0625 L 209.921875 -259.8125 L 248.453125 -259.8125 L 150.65625 -133.359375 L 254.375 0 Z M 214.375 0 "/></g></g></g><g fill="#18130b" fill-opacity="1"><g transform="translate(1892.5267, 540.669157)"><g><path d="M 139.78125 -261.78125 C 173.695312 -261.78125 199.710938 -253.300781 217.828125 -236.34375 C 235.941406 -219.382812 245 -194.28125 245 -161.03125 L 245 0 L 211.40625 0 L 211.40625 -40.5 C 203.5 -27 191.890625 -16.460938 176.578125 -8.890625 C 161.265625 -1.316406 143.070312 2.46875 122 2.46875 C 93.019531 2.46875 69.96875 -4.441406 52.84375 -18.265625 C 35.726562 -32.097656 27.171875 -50.378906 27.171875 -73.109375 C 27.171875 -95.171875 35.15625 -112.953125 51.125 -126.453125 C 67.09375 -139.953125 92.53125 -146.703125 127.4375 -146.703125 L 209.921875 -146.703125 L 209.921875 -162.5 C 209.921875 -184.894531 203.664062 -201.9375 191.15625 -213.625 C 178.644531 -225.3125 160.367188 -231.15625 136.328125 -231.15625 C 119.859375 -231.15625 104.050781 -228.4375 88.90625 -223 C 73.757812 -217.570312 60.753906 -210.082031 49.890625 -200.53125 L 34.078125 -226.71875 C 47.253906 -237.914062 63.0625 -246.554688 81.5 -252.640625 C 99.9375 -258.734375 119.363281 -261.78125 139.78125 -261.78125 Z M 127.4375 -25.1875 C 147.195312 -25.1875 164.15625 -29.710938 178.3125 -38.765625 C 192.46875 -47.828125 203.003906 -60.921875 209.921875 -78.046875 L 209.921875 -120.515625 L 128.421875 -120.515625 C 83.960938 -120.515625 61.734375 -105.039062 61.734375 -74.09375 C 61.734375 -58.945312 67.492188 -47.007812 79.015625 -38.28125 C 90.546875 -29.550781 106.6875 -25.1875 127.4375 -25.1875 Z M 127.4375 -25.1875 "/></g></g></g><g fill="#18130b" fill-opacity="1"><g transform="translate(2183.949203, 540.669157)"><g><path d="M 372.921875 -261.78125 C 405.523438 -261.78125 431.128906 -252.394531 449.734375 -233.625 C 468.335938 -214.863281 477.640625 -187.207031 477.640625 -150.65625 L 477.640625 0 L 442.5625 0 L 442.5625 -147.1875 C 442.5625 -174.195312 436.054688 -194.78125 423.046875 -208.9375 C 410.046875 -223.09375 391.691406 -230.171875 367.984375 -230.171875 C 340.984375 -230.171875 319.742188 -221.851562 304.265625 -205.21875 C 288.785156 -188.59375 281.046875 -165.628906 281.046875 -136.328125 L 281.046875 0 L 245.984375 0 L 245.984375 -147.1875 C 245.984375 -174.195312 239.476562 -194.78125 226.46875 -208.9375 C 213.457031 -223.09375 194.9375 -230.171875 170.90625 -230.171875 C 144.226562 -230.171875 123.066406 -221.851562 107.421875 -205.21875 C 91.785156 -188.59375 83.96875 -165.628906 83.96875 -136.328125 L 83.96875 0 L 48.90625 0 L 48.90625 -259.8125 L 82.484375 -259.8125 L 82.484375 -212.390625 C 91.703125 -228.203125 104.546875 -240.382812 121.015625 -248.9375 C 137.484375 -257.5 156.414062 -261.78125 177.8125 -261.78125 C 199.550781 -261.78125 218.40625 -257.171875 234.375 -247.953125 C 250.34375 -238.734375 262.28125 -225.066406 270.1875 -206.953125 C 279.738281 -224.078125 293.484375 -237.492188 311.421875 -247.203125 C 329.367188 -256.921875 349.867188 -261.78125 372.921875 -261.78125 Z M 372.921875 -261.78125 "/></g></g></g><g fill="#18130b" fill-opacity="1"><g transform="translate(2708.015756, 540.669157)"><g><path d="M 275.125 -119.03125 L 57.796875 -119.03125 C 59.765625 -92.03125 70.132812 -70.210938 88.90625 -53.578125 C 107.675781 -36.953125 131.382812 -28.640625 160.03125 -28.640625 C 176.164062 -28.640625 190.984375 -31.519531 204.484375 -37.28125 C 217.984375 -43.050781 229.675781 -51.535156 239.5625 -62.734375 L 259.3125 -40.015625 C 247.789062 -26.179688 233.382812 -15.640625 216.09375 -8.390625 C 198.8125 -1.148438 179.796875 2.46875 159.046875 2.46875 C 132.367188 2.46875 108.738281 -3.207031 88.15625 -14.5625 C 67.582031 -25.925781 51.53125 -41.648438 40 -61.734375 C 28.476562 -81.828125 22.71875 -104.550781 22.71875 -129.90625 C 22.71875 -155.257812 28.234375 -177.976562 39.265625 -198.0625 C 50.296875 -218.15625 65.441406 -233.796875 84.703125 -244.984375 C 103.972656 -256.179688 125.625 -261.78125 149.65625 -261.78125 C 173.695312 -261.78125 195.265625 -256.179688 214.359375 -244.984375 C 233.460938 -233.796875 248.445312 -218.238281 259.3125 -198.3125 C 270.175781 -178.394531 275.609375 -155.59375 275.609375 -129.90625 Z M 149.65625 -231.65625 C 124.632812 -231.65625 103.644531 -223.671875 86.6875 -207.703125 C 69.726562 -191.734375 60.097656 -170.90625 57.796875 -145.21875 L 242.03125 -145.21875 C 239.726562 -170.90625 230.097656 -191.734375 213.140625 -207.703125 C 196.179688 -223.671875 175.019531 -231.65625 149.65625 -231.65625 Z M 149.65625 -231.65625 "/></g></g></g><g fill="#18130b" fill-opacity="1"><g transform="translate(3006.346786, 540.669157)"><g><path d="M 112.625 -280.5625 L 1.96875 -280.5625 L 1.96875 -345.75 L 303.28125 -345.75 L 303.28125 -280.5625 L 192.640625 -280.5625 L 192.640625 0 L 112.625 0 Z M 112.625 -280.5625 "/></g></g></g><g fill="#18130b" fill-opacity="1"><g transform="translate(3311.599425, 540.669157)"><g><path d="M 308.703125 -64.21875 L 308.703125 0 L 41 0 L 41 -345.75 L 302.296875 -345.75 L 302.296875 -281.546875 L 120.515625 -281.546875 L 120.515625 -206.46875 L 281.046875 -206.46875 L 281.046875 -144.234375 L 120.515625 -144.234375 L 120.515625 -64.21875 Z M 308.703125 -64.21875 "/></g></g></g><g fill="#18130b" fill-opacity="1"><g transform="translate(3643.030725, 540.669157)"><g><path d="M 206.46875 5.921875 C 171.226562 5.921875 139.363281 -1.734375 110.875 -17.046875 C 82.394531 -32.359375 60.003906 -53.597656 43.703125 -80.765625 C 27.410156 -107.929688 19.265625 -138.632812 19.265625 -172.875 C 19.265625 -207.125 27.410156 -237.832031 43.703125 -265 C 60.003906 -292.164062 82.394531 -313.40625 110.875 -328.71875 C 139.363281 -344.03125 171.390625 -351.6875 206.953125 -351.6875 C 236.921875 -351.6875 264.003906 -346.414062 288.203125 -335.875 C 312.410156 -325.34375 332.75 -310.195312 349.21875 -290.4375 L 297.84375 -243.015625 C 274.46875 -270.015625 245.488281 -283.515625 210.90625 -283.515625 C 189.507812 -283.515625 170.410156 -278.820312 153.609375 -269.4375 C 136.816406 -260.050781 123.726562 -246.960938 114.34375 -230.171875 C 104.957031 -213.378906 100.265625 -194.28125 100.265625 -172.875 C 100.265625 -151.46875 104.957031 -132.367188 114.34375 -115.578125 C 123.726562 -98.785156 136.816406 -85.695312 153.609375 -76.3125 C 170.410156 -66.925781 189.507812 -62.234375 210.90625 -62.234375 C 245.488281 -62.234375 274.46875 -75.898438 297.84375 -103.234375 L 349.21875 -55.8125 C 332.75 -35.726562 312.332031 -20.414062 287.96875 -9.875 C 263.601562 0.65625 236.4375 5.921875 206.46875 5.921875 Z M 206.46875 5.921875 "/></g></g></g><g fill="#18130b" fill-opacity="1"><g transform="translate(4005.086163, 540.669157)"><g><path d="M 358.109375 -345.75 L 358.109375 0 L 278.09375 0 L 278.09375 -141.765625 L 121.015625 -141.765625 L 121.015625 0 L 41 0 L 41 -345.75 L 121.015625 -345.75 L 121.015625 -209.421875 L 278.09375 -209.421875 L 278.09375 -345.75 Z M 358.109375 -345.75 "/></g></g></g><g fill="#18130b" fill-opacity="1"><g transform="translate(2028.648298, 779.889014)"><g><path d="M 78.328125 -112.1875 C 88.765625 -112.1875 98.21875 -109.820312 106.6875 -105.09375 C 115.15625 -100.375 121.785156 -93.707031 126.578125 -85.09375 C 131.378906 -76.488281 133.78125 -66.679688 133.78125 -55.671875 C 133.78125 -44.660156 131.378906 -34.851562 126.578125 -26.25 C 121.785156 -17.644531 115.15625 -10.941406 106.6875 -6.140625 C 98.21875 -1.335938 88.765625 1.0625 78.328125 1.0625 C 69.015625 1.0625 60.648438 -0.910156 53.234375 -4.859375 C 45.828125 -8.816406 39.867188 -14.535156 35.359375 -22.015625 L 35.359375 0 L 20.953125 0 L 20.953125 -157.078125 L 35.984375 -157.078125 L 35.984375 -90.171875 C 40.640625 -97.367188 46.601562 -102.835938 53.875 -106.578125 C 61.144531 -110.316406 69.296875 -112.1875 78.328125 -112.1875 Z M 77.265625 -12.28125 C 85.023438 -12.28125 92.078125 -14.078125 98.421875 -17.671875 C 104.773438 -21.273438 109.75 -26.390625 113.34375 -33.015625 C 116.945312 -39.648438 118.75 -47.203125 118.75 -55.671875 C 118.75 -64.140625 116.945312 -71.691406 113.34375 -78.328125 C 109.75 -84.960938 104.773438 -90.078125 98.421875 -93.671875 C 92.078125 -97.265625 85.023438 -99.0625 77.265625 -99.0625 C 69.359375 -99.0625 62.265625 -97.265625 55.984375 -93.671875 C 49.710938 -90.078125 44.773438 -84.960938 41.171875 -78.328125 C 37.578125 -71.691406 35.78125 -64.140625 35.78125 -55.671875 C 35.78125 -47.203125 37.578125 -39.648438 41.171875 -33.015625 C 44.773438 -26.390625 49.710938 -21.273438 55.984375 -17.671875 C 62.265625 -14.078125 69.359375 -12.28125 77.265625 -12.28125 Z M 77.265625 -12.28125 "/></g></g></g><g fill="#18130b" fill-opacity="1"><g transform="translate(2172.174425, 779.889014)"><g><path d="M 114.515625 -111.34375 L 58.84375 13.34375 C 54.332031 23.78125 49.113281 31.1875 43.1875 35.5625 C 37.257812 39.9375 30.128906 42.125 21.796875 42.125 C 16.441406 42.125 11.429688 41.273438 6.765625 39.578125 C 2.109375 37.890625 -1.910156 35.351562 -5.296875 31.96875 L 1.6875 20.75 C 7.332031 26.394531 14.109375 29.21875 22.015625 29.21875 C 27.097656 29.21875 31.4375 27.804688 35.03125 24.984375 C 38.632812 22.160156 41.988281 17.359375 45.09375 10.578125 L 49.953125 -0.21875 L 0.21875 -111.34375 L 15.875 -111.34375 L 57.796875 -16.71875 L 99.703125 -111.34375 Z M 114.515625 -111.34375 "/></g></g></g><g fill="#18130b" fill-opacity="1"><g transform="translate(2286.910645, 779.889014)"><g/></g></g><g fill="#18130b" fill-opacity="1"><g transform="translate(2342.373554, 779.889014)"><g><path d="M 78.328125 -112.1875 C 88.765625 -112.1875 98.21875 -109.820312 106.6875 -105.09375 C 115.15625 -100.375 121.785156 -93.707031 126.578125 -85.09375 C 131.378906 -76.488281 133.78125 -66.679688 133.78125 -55.671875 C 133.78125 -44.660156 131.378906 -34.851562 126.578125 -26.25 C 121.785156 -17.644531 115.15625 -10.941406 106.6875 -6.140625 C 98.21875 -1.335938 88.765625 1.0625 78.328125 1.0625 C 69.015625 1.0625 60.648438 -0.910156 53.234375 -4.859375 C 45.828125 -8.816406 39.867188 -14.535156 35.359375 -22.015625 L 35.359375 0 L 20.953125 0 L 20.953125 -157.078125 L 35.984375 -157.078125 L 35.984375 -90.171875 C 40.640625 -97.367188 46.601562 -102.835938 53.875 -106.578125 C 61.144531 -110.316406 69.296875 -112.1875 78.328125 -112.1875 Z M 77.265625 -12.28125 C 85.023438 -12.28125 92.078125 -14.078125 98.421875 -17.671875 C 104.773438 -21.273438 109.75 -26.390625 113.34375 -33.015625 C 116.945312 -39.648438 118.75 -47.203125 118.75 -55.671875 C 118.75 -64.140625 116.945312 -71.691406 113.34375 -78.328125 C 109.75 -84.960938 104.773438 -90.078125 98.421875 -93.671875 C 92.078125 -97.265625 85.023438 -99.0625 77.265625 -99.0625 C 69.359375 -99.0625 62.265625 -97.265625 55.984375 -93.671875 C 49.710938 -90.078125 44.773438 -84.960938 41.171875 -78.328125 C 37.578125 -71.691406 35.78125 -64.140625 35.78125 -55.671875 C 35.78125 -47.203125 37.578125 -39.648438 41.171875 -33.015625 C 44.773438 -26.390625 49.710938 -21.273438 55.984375 -17.671875 C 62.265625 -14.078125 69.359375 -12.28125 77.265625 -12.28125 Z M 77.265625 -12.28125 "/></g></g></g><g fill="#18130b" fill-opacity="1"><g transform="translate(2485.899681, 779.889014)"><g><path d="M 117.90625 -51.015625 L 24.765625 -51.015625 C 25.609375 -39.441406 30.050781 -30.09375 38.09375 -22.96875 C 46.144531 -15.84375 56.3125 -12.28125 68.59375 -12.28125 C 75.5 -12.28125 81.84375 -13.515625 87.625 -15.984375 C 93.414062 -18.453125 98.429688 -22.085938 102.671875 -26.890625 L 111.140625 -17.140625 C 106.203125 -11.210938 100.023438 -6.695312 92.609375 -3.59375 C 85.203125 -0.488281 77.050781 1.0625 68.15625 1.0625 C 56.726562 1.0625 46.601562 -1.367188 37.78125 -6.234375 C 28.96875 -11.109375 22.085938 -17.847656 17.140625 -26.453125 C 12.203125 -35.066406 9.734375 -44.804688 9.734375 -55.671875 C 9.734375 -66.535156 12.097656 -76.269531 16.828125 -84.875 C 21.554688 -93.488281 28.046875 -100.191406 36.296875 -104.984375 C 44.554688 -109.785156 53.835938 -112.1875 64.140625 -112.1875 C 74.441406 -112.1875 83.6875 -109.785156 91.875 -104.984375 C 100.0625 -100.191406 106.484375 -93.523438 111.140625 -84.984375 C 115.796875 -76.453125 118.125 -66.679688 118.125 -55.671875 Z M 64.140625 -99.28125 C 53.410156 -99.28125 44.410156 -95.859375 37.140625 -89.015625 C 29.878906 -82.171875 25.753906 -73.242188 24.765625 -62.234375 L 103.734375 -62.234375 C 102.742188 -73.242188 98.613281 -82.171875 91.34375 -89.015625 C 84.070312 -95.859375 75.003906 -99.28125 64.140625 -99.28125 Z M 64.140625 -99.28125 "/></g></g></g><g fill="#18130b" fill-opacity="1"><g transform="translate(2613.760731, 779.889014)"><g><path d="M 117.90625 -51.015625 L 24.765625 -51.015625 C 25.609375 -39.441406 30.050781 -30.09375 38.09375 -22.96875 C 46.144531 -15.84375 56.3125 -12.28125 68.59375 -12.28125 C 75.5 -12.28125 81.84375 -13.515625 87.625 -15.984375 C 93.414062 -18.453125 98.429688 -22.085938 102.671875 -26.890625 L 111.140625 -17.140625 C 106.203125 -11.210938 100.023438 -6.695312 92.609375 -3.59375 C 85.203125 -0.488281 77.050781 1.0625 68.15625 1.0625 C 56.726562 1.0625 46.601562 -1.367188 37.78125 -6.234375 C 28.96875 -11.109375 22.085938 -17.847656 17.140625 -26.453125 C 12.203125 -35.066406 9.734375 -44.804688 9.734375 -55.671875 C 9.734375 -66.535156 12.097656 -76.269531 16.828125 -84.875 C 21.554688 -93.488281 28.046875 -100.191406 36.296875 -104.984375 C 44.554688 -109.785156 53.835938 -112.1875 64.140625 -112.1875 C 74.441406 -112.1875 83.6875 -109.785156 91.875 -104.984375 C 100.0625 -100.191406 106.484375 -93.523438 111.140625 -84.984375 C 115.796875 -76.453125 118.125 -66.679688 118.125 -55.671875 Z M 64.140625 -99.28125 C 53.410156 -99.28125 44.410156 -95.859375 37.140625 -89.015625 C 29.878906 -82.171875 25.753906 -73.242188 24.765625 -62.234375 L 103.734375 -62.234375 C 102.742188 -73.242188 98.613281 -82.171875 91.34375 -89.015625 C 84.070312 -95.859375 75.003906 -99.28125 64.140625 -99.28125 Z M 64.140625 -99.28125 "/></g></g></g><g fill="#18130b" fill-opacity="1"><g transform="translate(2741.614934, 779.889014)"><g><path d="M 88.484375 2.546875 C 73.378906 2.546875 59.722656 -0.734375 47.515625 -7.296875 C 35.316406 -13.859375 25.722656 -22.960938 18.734375 -34.609375 C 11.742188 -46.253906 8.25 -59.414062 8.25 -74.09375 C 8.25 -88.769531 11.742188 -101.925781 18.734375 -113.5625 C 25.722656 -125.207031 35.316406 -134.3125 47.515625 -140.875 C 59.722656 -147.4375 73.453125 -150.71875 88.703125 -150.71875 C 101.535156 -150.71875 113.140625 -148.457031 123.515625 -143.9375 C 133.890625 -139.425781 142.601562 -132.9375 149.65625 -124.46875 L 127.640625 -104.15625 C 117.628906 -115.726562 105.210938 -121.515625 90.390625 -121.515625 C 81.210938 -121.515625 73.023438 -119.5 65.828125 -115.46875 C 58.628906 -111.445312 53.019531 -105.835938 49 -98.640625 C 44.976562 -91.441406 42.96875 -83.257812 42.96875 -74.09375 C 42.96875 -64.914062 44.976562 -56.726562 49 -49.53125 C 53.019531 -42.332031 58.628906 -36.722656 65.828125 -32.703125 C 73.023438 -28.679688 81.210938 -26.671875 90.390625 -26.671875 C 105.210938 -26.671875 117.628906 -32.53125 127.640625 -44.25 L 149.65625 -23.921875 C 142.601562 -15.304688 133.851562 -8.738281 123.40625 -4.21875 C 112.96875 0.289062 101.328125 2.546875 88.484375 2.546875 Z M 88.484375 2.546875 "/></g></g></g><g fill="#18130b" fill-opacity="1"><g transform="translate(2896.784033, 779.889014)"><g><path d="M 89.328125 2.546875 C 73.953125 2.546875 60.085938 -0.769531 47.734375 -7.40625 C 35.390625 -14.039062 25.722656 -23.175781 18.734375 -34.8125 C 11.742188 -46.457031 8.25 -59.550781 8.25 -74.09375 C 8.25 -88.625 11.742188 -101.710938 18.734375 -113.359375 C 25.722656 -125.003906 35.390625 -134.140625 47.734375 -140.765625 C 60.085938 -147.398438 73.953125 -150.71875 89.328125 -150.71875 C 104.710938 -150.71875 118.539062 -147.398438 130.8125 -140.765625 C 143.09375 -134.140625 152.757812 -125.003906 159.8125 -113.359375 C 166.875 -101.710938 170.40625 -88.625 170.40625 -74.09375 C 170.40625 -59.550781 166.875 -46.457031 159.8125 -34.8125 C 152.757812 -23.175781 143.09375 -14.039062 130.8125 -7.40625 C 118.539062 -0.769531 104.710938 2.546875 89.328125 2.546875 Z M 89.328125 -26.671875 C 98.078125 -26.671875 105.976562 -28.679688 113.03125 -32.703125 C 120.09375 -36.722656 125.632812 -42.332031 129.65625 -49.53125 C 133.675781 -56.726562 135.6875 -64.914062 135.6875 -74.09375 C 135.6875 -83.257812 133.675781 -91.441406 129.65625 -98.640625 C 125.632812 -105.835938 120.09375 -111.445312 113.03125 -115.46875 C 105.976562 -119.5 98.078125 -121.515625 89.328125 -121.515625 C 80.578125 -121.515625 72.671875 -119.5 65.609375 -115.46875 C 58.554688 -111.445312 53.019531 -105.835938 49 -98.640625 C 44.976562 -91.441406 42.96875 -83.257812 42.96875 -74.09375 C 42.96875 -64.914062 44.976562 -56.726562 49 -49.53125 C 53.019531 -42.332031 58.554688 -36.722656 65.609375 -32.703125 C 72.671875 -28.679688 80.578125 -26.671875 89.328125 -26.671875 Z M 89.328125 -26.671875 "/></g></g></g><g fill="#18130b" fill-opacity="1"><g transform="translate(3075.450779, 779.889014)"><g><path d="M 17.5625 -148.1875 L 84.890625 -148.1875 C 100.972656 -148.1875 115.1875 -145.113281 127.53125 -138.96875 C 139.882812 -132.832031 149.484375 -124.1875 156.328125 -113.03125 C 163.171875 -101.882812 166.59375 -88.90625 166.59375 -74.09375 C 166.59375 -59.269531 163.171875 -46.285156 156.328125 -35.140625 C 149.484375 -23.992188 139.882812 -15.347656 127.53125 -9.203125 C 115.1875 -3.066406 100.972656 0 84.890625 0 L 17.5625 0 Z M 83.1875 -28.15625 C 98.007812 -28.15625 109.828125 -32.28125 118.640625 -40.53125 C 127.460938 -48.789062 131.875 -59.976562 131.875 -74.09375 C 131.875 -88.207031 127.460938 -99.390625 118.640625 -107.640625 C 109.828125 -115.898438 98.007812 -120.03125 83.1875 -120.03125 L 51.859375 -120.03125 L 51.859375 -28.15625 Z M 83.1875 -28.15625 "/></g></g></g><g fill="#18130b" fill-opacity="1"><g transform="translate(3250.307091, 779.889014)"><g><path d="M 132.3125 -27.515625 L 132.3125 0 L 17.5625 0 L 17.5625 -148.1875 L 129.546875 -148.1875 L 129.546875 -120.65625 L 51.65625 -120.65625 L 51.65625 -88.484375 L 120.453125 -88.484375 L 120.453125 -61.8125 L 51.65625 -61.8125 L 51.65625 -27.515625 Z M 132.3125 -27.515625 "/></g></g></g><g fill="#18130b" fill-opacity="1"><g transform="translate(3392.347907, 779.889014)"><g/></g></g><g fill="#18130b" fill-opacity="1"><g transform="translate(3447.8108, 779.889014)"><g><path d="M 50.8125 1.0625 C 41.769531 1.0625 33.117188 -0.242188 24.859375 -2.859375 C 16.609375 -5.472656 10.15625 -8.753906 5.5 -12.703125 L 12.28125 -24.5625 C 16.9375 -20.882812 22.789062 -17.878906 29.84375 -15.546875 C 36.90625 -13.222656 44.242188 -12.0625 51.859375 -12.0625 C 62.023438 -12.0625 69.539062 -13.648438 74.40625 -16.828125 C 79.28125 -20.003906 81.71875 -24.484375 81.71875 -30.265625 C 81.71875 -34.359375 80.375 -37.566406 77.6875 -39.890625 C 75.007812 -42.222656 71.625 -43.988281 67.53125 -45.1875 C 63.4375 -46.394531 58.003906 -47.5625 51.234375 -48.6875 C 42.203125 -50.382812 34.929688 -52.113281 29.421875 -53.875 C 23.921875 -55.632812 19.226562 -58.628906 15.34375 -62.859375 C 11.46875 -67.097656 9.53125 -72.957031 9.53125 -80.4375 C 9.53125 -89.75 13.410156 -97.367188 21.171875 -103.296875 C 28.929688 -109.222656 39.726562 -112.1875 53.5625 -112.1875 C 60.757812 -112.1875 67.953125 -111.234375 75.140625 -109.328125 C 82.335938 -107.429688 88.269531 -104.929688 92.9375 -101.828125 L 86.375 -89.75 C 77.195312 -96.101562 66.257812 -99.28125 53.5625 -99.28125 C 43.957031 -99.28125 36.722656 -97.585938 31.859375 -94.203125 C 26.992188 -90.816406 24.5625 -86.367188 24.5625 -80.859375 C 24.5625 -76.628906 25.9375 -73.242188 28.6875 -70.703125 C 31.4375 -68.160156 34.859375 -66.289062 38.953125 -65.09375 C 43.046875 -63.894531 48.691406 -62.660156 55.890625 -61.390625 C 64.773438 -59.691406 71.898438 -57.992188 77.265625 -56.296875 C 82.628906 -54.609375 87.210938 -51.71875 91.015625 -47.625 C 94.828125 -43.53125 96.734375 -37.882812 96.734375 -30.6875 C 96.734375 -20.957031 92.675781 -13.234375 84.5625 -7.515625 C 76.445312 -1.796875 65.195312 1.0625 50.8125 1.0625 Z M 50.8125 1.0625 "/></g></g></g><g fill="#18130b" fill-opacity="1"><g transform="translate(3551.327422, 779.889014)"><g><path d="M 66.46875 1.0625 C 55.738281 1.0625 46.070312 -1.367188 37.46875 -6.234375 C 28.863281 -11.109375 22.085938 -17.847656 17.140625 -26.453125 C 12.203125 -35.066406 9.734375 -44.804688 9.734375 -55.671875 C 9.734375 -66.535156 12.203125 -76.269531 17.140625 -84.875 C 22.085938 -93.488281 28.863281 -100.191406 37.46875 -104.984375 C 46.070312 -109.785156 55.738281 -112.1875 66.46875 -112.1875 C 77.195312 -112.1875 86.863281 -109.785156 95.46875 -104.984375 C 104.082031 -100.191406 110.820312 -93.488281 115.6875 -84.875 C 120.550781 -76.269531 122.984375 -66.535156 122.984375 -55.671875 C 122.984375 -44.804688 120.550781 -35.066406 115.6875 -26.453125 C 110.820312 -17.847656 104.082031 -11.109375 95.46875 -6.234375 C 86.863281 -1.367188 77.195312 1.0625 66.46875 1.0625 Z M 66.46875 -12.28125 C 74.375 -12.28125 81.46875 -14.078125 87.75 -17.671875 C 94.03125 -21.273438 98.929688 -26.390625 102.453125 -33.015625 C 105.984375 -39.648438 107.75 -47.203125 107.75 -55.671875 C 107.75 -64.140625 105.984375 -71.691406 102.453125 -78.328125 C 98.929688 -84.960938 94.03125 -90.078125 87.75 -93.671875 C 81.46875 -97.265625 74.375 -99.0625 66.46875 -99.0625 C 58.5625 -99.0625 51.46875 -97.265625 45.1875 -93.671875 C 38.914062 -90.078125 33.976562 -84.960938 30.375 -78.328125 C 26.78125 -71.691406 24.984375 -64.140625 24.984375 -55.671875 C 24.984375 -47.203125 26.78125 -39.648438 30.375 -33.015625 C 33.976562 -26.390625 38.914062 -21.273438 45.1875 -17.671875 C 51.46875 -14.078125 58.5625 -12.28125 66.46875 -12.28125 Z M 66.46875 -12.28125 "/></g></g></g><g fill="#18130b" fill-opacity="1"><g transform="translate(3684.05731, 779.889014)"><g><path d="M 20.953125 -157.078125 L 35.984375 -157.078125 L 35.984375 0 L 20.953125 0 Z M 20.953125 -157.078125 "/></g></g></g><g fill="#18130b" fill-opacity="1"><g transform="translate(3741.002045, 779.889014)"><g><path d="M 121.296875 -111.34375 L 121.296875 0 L 106.90625 0 L 106.90625 -20.328125 C 102.945312 -13.546875 97.507812 -8.285156 90.59375 -4.546875 C 83.6875 -0.804688 75.785156 1.0625 66.890625 1.0625 C 52.359375 1.0625 40.894531 -2.992188 32.5 -11.109375 C 24.101562 -19.222656 19.90625 -31.113281 19.90625 -46.78125 L 19.90625 -111.34375 L 34.921875 -111.34375 L 34.921875 -48.265625 C 34.921875 -36.546875 37.8125 -27.648438 43.59375 -21.578125 C 49.382812 -15.515625 57.644531 -12.484375 68.375 -12.484375 C 80.082031 -12.484375 89.320312 -16.046875 96.09375 -23.171875 C 102.875 -30.304688 106.265625 -40.222656 106.265625 -52.921875 L 106.265625 -111.34375 Z M 121.296875 -111.34375 "/></g></g></g><g fill="#18130b" fill-opacity="1"><g transform="translate(3883.46972, 779.889014)"><g><path d="M 79.59375 -6.78125 C 76.769531 -4.238281 73.273438 -2.296875 69.109375 -0.953125 C 64.953125 0.390625 60.613281 1.0625 56.09375 1.0625 C 45.65625 1.0625 37.613281 -1.757812 31.96875 -7.40625 C 26.320312 -13.050781 23.5 -21.023438 23.5 -31.328125 L 23.5 -98.640625 L 3.59375 -98.640625 L 3.59375 -111.34375 L 23.5 -111.34375 L 23.5 -135.6875 L 38.53125 -135.6875 L 38.53125 -111.34375 L 72.390625 -111.34375 L 72.390625 -98.640625 L 38.53125 -98.640625 L 38.53125 -32.171875 C 38.53125 -25.546875 40.1875 -20.503906 43.5 -17.046875 C 46.8125 -13.585938 51.578125 -11.859375 57.796875 -11.859375 C 60.898438 -11.859375 63.894531 -12.347656 66.78125 -13.328125 C 69.675781 -14.316406 72.179688 -15.726562 74.296875 -17.5625 Z M 79.59375 -6.78125 "/></g></g></g><g fill="#18130b" fill-opacity="1"><g transform="translate(3969.416002, 779.889014)"><g><path d="M 20.953125 -111.34375 L 35.984375 -111.34375 L 35.984375 0 L 20.953125 0 Z M 28.578125 -135.6875 C 25.472656 -135.6875 22.859375 -136.742188 20.734375 -138.859375 C 18.617188 -140.984375 17.5625 -143.523438 17.5625 -146.484375 C 17.5625 -149.304688 18.617188 -151.773438 20.734375 -153.890625 C 22.859375 -156.015625 25.472656 -157.078125 28.578125 -157.078125 C 31.679688 -157.078125 34.289062 -156.050781 36.40625 -154 C 38.519531 -151.957031 39.578125 -149.523438 39.578125 -146.703125 C 39.578125 -143.597656 38.519531 -140.984375 36.40625 -138.859375 C 34.289062 -136.742188 31.679688 -135.6875 28.578125 -135.6875 Z M 28.578125 -135.6875 "/></g></g></g><g fill="#18130b" fill-opacity="1"><g transform="translate(4026.36077, 779.889014)"><g><path d="M 66.46875 1.0625 C 55.738281 1.0625 46.070312 -1.367188 37.46875 -6.234375 C 28.863281 -11.109375 22.085938 -17.847656 17.140625 -26.453125 C 12.203125 -35.066406 9.734375 -44.804688 9.734375 -55.671875 C 9.734375 -66.535156 12.203125 -76.269531 17.140625 -84.875 C 22.085938 -93.488281 28.863281 -100.191406 37.46875 -104.984375 C 46.070312 -109.785156 55.738281 -112.1875 66.46875 -112.1875 C 77.195312 -112.1875 86.863281 -109.785156 95.46875 -104.984375 C 104.082031 -100.191406 110.820312 -93.488281 115.6875 -84.875 C 120.550781 -76.269531 122.984375 -66.535156 122.984375 -55.671875 C 122.984375 -44.804688 120.550781 -35.066406 115.6875 -26.453125 C 110.820312 -17.847656 104.082031 -11.109375 95.46875 -6.234375 C 86.863281 -1.367188 77.195312 1.0625 66.46875 1.0625 Z M 66.46875 -12.28125 C 74.375 -12.28125 81.46875 -14.078125 87.75 -17.671875 C 94.03125 -21.273438 98.929688 -26.390625 102.453125 -33.015625 C 105.984375 -39.648438 107.75 -47.203125 107.75 -55.671875 C 107.75 -64.140625 105.984375 -71.691406 102.453125 -78.328125 C 98.929688 -84.960938 94.03125 -90.078125 87.75 -93.671875 C 81.46875 -97.265625 74.375 -99.0625 66.46875 -99.0625 C 58.5625 -99.0625 51.46875 -97.265625 45.1875 -93.671875 C 38.914062 -90.078125 33.976562 -84.960938 30.375 -78.328125 C 26.78125 -71.691406 24.984375 -64.140625 24.984375 -55.671875 C 24.984375 -47.203125 26.78125 -39.648438 30.375 -33.015625 C 33.976562 -26.390625 38.914062 -21.273438 45.1875 -17.671875 C 51.46875 -14.078125 58.5625 -12.28125 66.46875 -12.28125 Z M 66.46875 -12.28125 "/></g></g></g><g fill="#18130b" fill-opacity="1"><g transform="translate(4159.090673, 779.889014)"><g><path d="M 77.6875 -112.1875 C 91.65625 -112.1875 102.765625 -108.128906 111.015625 -100.015625 C 119.273438 -91.898438 123.40625 -80.082031 123.40625 -64.5625 L 123.40625 0 L 108.390625 0 L 108.390625 -63.078125 C 108.390625 -74.648438 105.492188 -83.46875 99.703125 -89.53125 C 93.921875 -95.601562 85.664062 -98.640625 74.9375 -98.640625 C 62.9375 -98.640625 53.441406 -95.078125 46.453125 -87.953125 C 39.472656 -80.828125 35.984375 -70.984375 35.984375 -58.421875 L 35.984375 0 L 20.953125 0 L 20.953125 -111.34375 L 35.359375 -111.34375 L 35.359375 -90.8125 C 39.441406 -97.582031 45.117188 -102.835938 52.390625 -106.578125 C 59.660156 -110.316406 68.09375 -112.1875 77.6875 -112.1875 Z M 77.6875 -112.1875 "/></g></g></g><g fill="#18130b" fill-opacity="1"><g transform="translate(4302.405096, 779.889014)"><g><path d="M 50.8125 1.0625 C 41.769531 1.0625 33.117188 -0.242188 24.859375 -2.859375 C 16.609375 -5.472656 10.15625 -8.753906 5.5 -12.703125 L 12.28125 -24.5625 C 16.9375 -20.882812 22.789062 -17.878906 29.84375 -15.546875 C 36.90625 -13.222656 44.242188 -12.0625 51.859375 -12.0625 C 62.023438 -12.0625 69.539062 -13.648438 74.40625 -16.828125 C 79.28125 -20.003906 81.71875 -24.484375 81.71875 -30.265625 C 81.71875 -34.359375 80.375 -37.566406 77.6875 -39.890625 C 75.007812 -42.222656 71.625 -43.988281 67.53125 -45.1875 C 63.4375 -46.394531 58.003906 -47.5625 51.234375 -48.6875 C 42.203125 -50.382812 34.929688 -52.113281 29.421875 -53.875 C 23.921875 -55.632812 19.226562 -58.628906 15.34375 -62.859375 C 11.46875 -67.097656 9.53125 -72.957031 9.53125 -80.4375 C 9.53125 -89.75 13.410156 -97.367188 21.171875 -103.296875 C 28.929688 -109.222656 39.726562 -112.1875 53.5625 -112.1875 C 60.757812 -112.1875 67.953125 -111.234375 75.140625 -109.328125 C 82.335938 -107.429688 88.269531 -104.929688 92.9375 -101.828125 L 86.375 -89.75 C 77.195312 -96.101562 66.257812 -99.28125 53.5625 -99.28125 C 43.957031 -99.28125 36.722656 -97.585938 31.859375 -94.203125 C 26.992188 -90.816406 24.5625 -86.367188 24.5625 -80.859375 C 24.5625 -76.628906 25.9375 -73.242188 28.6875 -70.703125 C 31.4375 -68.160156 34.859375 -66.289062 38.953125 -65.09375 C 43.046875 -63.894531 48.691406 -62.660156 55.890625 -61.390625 C 64.773438 -59.691406 71.898438 -57.992188 77.265625 -56.296875 C 82.628906 -54.609375 87.210938 -51.71875 91.015625 -47.625 C 94.828125 -43.53125 96.734375 -37.882812 96.734375 -30.6875 C 96.734375 -20.957031 92.675781 -13.234375 84.5625 -7.515625 C 76.445312 -1.796875 65.195312 1.0625 50.8125 1.0625 Z M 50.8125 1.0625 "/></g></g></g></svg>