<svg xmlns="http://www.w3.org/2000/svg" xmlns:xlink="http://www.w3.org/1999/xlink" width="1066" zoomAndPan="magnify" viewBox="0 0 799.5 63.749997" height="85" preserveAspectRatio="xMidYMid meet" version="1.0"><defs><g/><clipPath id="307cbfa628"><path d="M 1.3125 0 L 797.6875 0 L 797.6875 63.5 L 1.3125 63.5 Z M 1.3125 0 " clip-rule="nonzero"/></clipPath><clipPath id="6f087896b9"><path d="M 7.890625 6.355469 L 791.609375 6.355469 L 791.609375 57.1875 L 7.890625 57.1875 Z M 7.890625 6.355469 " clip-rule="nonzero"/></clipPath><clipPath id="9870c13645"><path d="M 33.308594 6.355469 L 766.191406 6.355469 C 780.230469 6.355469 791.609375 17.734375 791.609375 31.769531 C 791.609375 45.808594 780.230469 57.1875 766.191406 57.1875 L 33.308594 57.1875 C 19.269531 57.1875 7.890625 45.808594 7.890625 31.769531 C 7.890625 17.734375 19.269531 6.355469 33.308594 6.355469 " clip-rule="nonzero"/></clipPath><clipPath id="2915d494d3"><path d="M 651 24.480469 L 660 24.480469 L 660 33 L 651 33 Z M 651 24.480469 " clip-rule="nonzero"/></clipPath><clipPath id="4fe22a113e"><path d="M 649 33 L 661 33 L 661 37.09375 L 649 37.09375 Z M 649 33 " clip-rule="nonzero"/></clipPath><clipPath id="ea4f83a80a"><path d="M 709.660156 22.65625 L 780.535156 22.65625 L 780.535156 40.679688 L 709.660156 40.679688 Z M 709.660156 22.65625 " clip-rule="nonzero"/></clipPath><clipPath id="84dab85c5d"><path d="M 713.398438 22.65625 L 776.78125 22.65625 C 777.769531 22.65625 778.722656 23.046875 779.421875 23.738281 C 780.125 24.429688 780.519531 25.371094 780.519531 26.351562 L 780.519531 36.984375 C 780.519531 37.964844 780.125 38.902344 779.421875 39.597656 C 778.722656 40.289062 777.769531 40.679688 776.78125 40.679688 L 713.398438 40.679688 C 712.40625 40.679688 711.457031 40.289062 710.753906 39.597656 C 710.054688 38.902344 709.660156 37.964844 709.660156 36.984375 L 709.660156 26.351562 C 709.660156 25.371094 710.054688 24.429688 710.753906 23.738281 C 711.457031 23.046875 712.40625 22.65625 713.398438 22.65625 " clip-rule="nonzero"/></clipPath><clipPath id="262a1d87ab"><path d="M 13.652344 16.722656 L 44 16.722656 L 44 44 L 13.652344 44 Z M 13.652344 16.722656 " clip-rule="nonzero"/></clipPath><clipPath id="74ad592eab"><path d="M 21 43 L 29 43 L 29 46.761719 L 21 46.761719 Z M 21 43 " clip-rule="nonzero"/></clipPath><clipPath id="4100a3ef5b"><path d="M 46 28 L 49.699219 28 L 49.699219 31 L 46 31 Z M 46 28 " clip-rule="nonzero"/></clipPath><clipPath id="0c26204c0e"><path d="M 46 31 L 49.699219 31 L 49.699219 34 L 46 34 Z M 46 31 " clip-rule="nonzero"/></clipPath></defs><g clip-path="url(#307cbfa628)"><path fill="#ffffff" d="M 1.3125 0 L 798.1875 0 L 798.1875 70.269531 L 1.3125 70.269531 Z M 1.3125 0 " fill-opacity="1" fill-rule="nonzero"/><path fill="#ffffff" d="M 1.3125 0 L 798.1875 0 L 798.1875 63.539062 L 1.3125 63.539062 Z M 1.3125 0 " fill-opacity="1" fill-rule="nonzero"/><path fill="#18130b" d="M 1.3125 0 L 798.1875 0 L 798.1875 63.539062 L 1.3125 63.539062 Z M 1.3125 0 " fill-opacity="1" fill-rule="nonzero"/></g><g clip-path="url(#6f087896b9)"><g clip-path="url(#9870c13645)"><path fill="#fffcf8" d="M 7.890625 6.355469 L 791.609375 6.355469 L 791.609375 57.1875 L 7.890625 57.1875 Z M 7.890625 6.355469 " fill-opacity="1" fill-rule="nonzero"/></g></g><g clip-path="url(#2915d494d3)"><path stroke-linecap="round" transform="matrix(0.0324418, 0, 0, 0.0324418, 647.215445, 24.478624)" fill="none" stroke-linejoin="round" d="M 353.981287 132.14455 C 353.981287 145.871073 351.332309 159.115964 346.034353 171.879222 C 340.856805 184.64248 333.271095 195.840434 323.518039 205.593489 C 313.764983 215.346545 302.56703 222.932256 289.803771 228.230212 C 277.040513 233.40776 263.795622 236.056738 249.948691 236.056738 C 236.222168 236.056738 222.977277 233.40776 210.214019 228.230212 C 197.45076 222.932256 186.252807 215.346545 176.499751 205.593489 C 166.746696 195.840434 159.160985 184.64248 153.863029 171.879222 C 148.685481 159.115964 146.036503 145.871073 146.036503 132.14455 C 146.036503 118.297619 148.685481 105.052728 153.863029 92.28947 C 159.160985 79.526211 166.746696 68.328258 176.499751 58.575202 C 186.252807 48.822146 197.45076 41.236436 210.214019 36.058888 C 222.977277 30.760932 236.222168 28.111953 249.948691 28.111953 C 263.795622 28.111953 277.040513 30.760932 289.803771 36.058888 C 302.56703 41.236436 313.764983 48.822146 323.518039 58.575202 C 333.271095 68.328258 340.856805 79.526211 346.034353 92.28947 C 351.332309 105.052728 353.981287 118.297619 353.981287 132.14455 Z M 353.981287 132.14455 " stroke="#223a85" stroke-width="30" stroke-opacity="1" stroke-miterlimit="10"/></g><g clip-path="url(#4fe22a113e)"><path stroke-linecap="round" transform="matrix(0.0324418, 0, 0, 0.0324418, 647.215445, 24.478624)" fill="none" stroke-linejoin="round" d="M 94.020204 472.05661 L 94.020204 367.542381 C 94.020204 318.536285 133.754877 278.801613 182.640564 278.801613 L 317.377226 278.801613 C 366.383322 278.801613 406.117994 318.536285 406.117994 367.542381 L 406.117994 472.05661 " stroke="#223a85" stroke-width="30" stroke-opacity="1" stroke-miterlimit="10"/></g><g fill="#000000" fill-opacity="1"><g transform="translate(662.262252, 34.176953)"><g><path d="M 5.015625 -1.046875 L 5.015625 0 L 0.671875 0 L 0.671875 -5.609375 L 4.90625 -5.609375 L 4.90625 -4.5625 L 1.953125 -4.5625 L 1.953125 -3.34375 L 4.5625 -3.34375 L 4.5625 -2.34375 L 1.953125 -2.34375 L 1.953125 -1.046875 Z M 5.015625 -1.046875 "/></g></g></g><g fill="#000000" fill-opacity="1"><g transform="translate(667.635055, 34.176953)"><g><path d="M 5.8125 -5.609375 L 5.8125 0 L 4.75 0 L 1.953125 -3.40625 L 1.953125 0 L 0.671875 0 L 0.671875 -5.609375 L 1.734375 -5.609375 L 4.53125 -2.203125 L 4.53125 -5.609375 Z M 5.8125 -5.609375 "/></g></g></g><g fill="#000000" fill-opacity="1"><g transform="translate(674.104835, 34.176953)"><g><path d="M 1.828125 -4.546875 L 0.03125 -4.546875 L 0.03125 -5.609375 L 4.921875 -5.609375 L 4.921875 -4.546875 L 3.125 -4.546875 L 3.125 0 L 1.828125 0 Z M 1.828125 -4.546875 "/></g></g></g><g fill="#000000" fill-opacity="1"><g transform="translate(679.053257, 34.176953)"><g><path d="M 4.234375 0 L 3.15625 -1.5625 L 1.96875 -1.5625 L 1.96875 0 L 0.671875 0 L 0.671875 -5.609375 L 3.09375 -5.609375 C 3.59375 -5.609375 4.023438 -5.523438 4.390625 -5.359375 C 4.753906 -5.191406 5.035156 -4.957031 5.234375 -4.65625 C 5.429688 -4.351562 5.53125 -3.992188 5.53125 -3.578125 C 5.53125 -3.160156 5.425781 -2.800781 5.21875 -2.5 C 5.019531 -2.195312 4.738281 -1.960938 4.375 -1.796875 L 5.640625 0 Z M 4.21875 -3.578125 C 4.21875 -3.890625 4.113281 -4.128906 3.90625 -4.296875 C 3.707031 -4.460938 3.410156 -4.546875 3.015625 -4.546875 L 1.96875 -4.546875 L 1.96875 -2.59375 L 3.015625 -2.59375 C 3.410156 -2.59375 3.707031 -2.675781 3.90625 -2.84375 C 4.113281 -3.019531 4.21875 -3.265625 4.21875 -3.578125 Z M 4.21875 -3.578125 "/></g></g></g><g fill="#000000" fill-opacity="1"><g transform="translate(684.938518, 34.176953)"><g><path d="M 4.359375 -1.203125 L 1.75 -1.203125 L 1.265625 0 L -0.078125 0 L 2.421875 -5.609375 L 3.71875 -5.609375 L 6.21875 0 L 4.859375 0 Z M 3.953125 -2.1875 L 3.0625 -4.34375 L 2.171875 -2.1875 Z M 3.953125 -2.1875 "/></g></g></g><g fill="#000000" fill-opacity="1"><g transform="translate(691.071995, 34.176953)"><g><path d="M 4.234375 0 L 3.15625 -1.5625 L 1.96875 -1.5625 L 1.96875 0 L 0.671875 0 L 0.671875 -5.609375 L 3.09375 -5.609375 C 3.59375 -5.609375 4.023438 -5.523438 4.390625 -5.359375 C 4.753906 -5.191406 5.035156 -4.957031 5.234375 -4.65625 C 5.429688 -4.351562 5.53125 -3.992188 5.53125 -3.578125 C 5.53125 -3.160156 5.425781 -2.800781 5.21875 -2.5 C 5.019531 -2.195312 4.738281 -1.960938 4.375 -1.796875 L 5.640625 0 Z M 4.21875 -3.578125 C 4.21875 -3.890625 4.113281 -4.128906 3.90625 -4.296875 C 3.707031 -4.460938 3.410156 -4.546875 3.015625 -4.546875 L 1.96875 -4.546875 L 1.96875 -2.59375 L 3.015625 -2.59375 C 3.410156 -2.59375 3.707031 -2.675781 3.90625 -2.84375 C 4.113281 -3.019531 4.21875 -3.265625 4.21875 -3.578125 Z M 4.21875 -3.578125 "/></g></g></g><g clip-path="url(#ea4f83a80a)"><g clip-path="url(#84dab85c5d)"><path stroke-linecap="butt" transform="matrix(0.601331, 0, 0, 0.594273, 709.659664, 22.655763)" fill="none" stroke-linejoin="miter" d="M 6.217501 0.000819199 L 111.621769 0.000819199 C 113.265259 0.000819199 114.850286 0.658135 116.013072 1.821583 C 117.182354 2.985031 117.838451 4.569161 117.838451 6.219022 L 117.838451 24.111146 C 117.838451 25.761007 117.182354 27.338564 116.013072 28.508585 C 114.850286 29.672034 113.265259 30.329349 111.621769 30.329349 L 6.217501 30.329349 C 4.567515 30.329349 2.988984 29.672034 1.819702 28.508585 C 0.656916 27.338564 0.000819077 25.761007 0.000819077 24.111146 L 0.000819077 6.219022 C 0.000819077 4.569161 0.656916 2.985031 1.819702 1.821583 C 2.988984 0.658135 4.567515 0.000819199 6.217501 0.000819199 " stroke="#000000" stroke-width="4.977169" stroke-opacity="1" stroke-miterlimit="4"/></g></g><g fill="#000000" fill-opacity="1"><g transform="translate(715.464579, 33.967653)"><g><path d="M 3.375 0.09375 C 2.789062 0.09375 2.265625 -0.03125 1.796875 -0.28125 C 1.335938 -0.53125 0.972656 -0.875 0.703125 -1.3125 C 0.441406 -1.757812 0.3125 -2.265625 0.3125 -2.828125 C 0.3125 -3.378906 0.441406 -3.875 0.703125 -4.3125 C 0.972656 -4.757812 1.335938 -5.109375 1.796875 -5.359375 C 2.265625 -5.609375 2.789062 -5.734375 3.375 -5.734375 C 3.863281 -5.734375 4.304688 -5.644531 4.703125 -5.46875 C 5.097656 -5.300781 5.429688 -5.054688 5.703125 -4.734375 L 4.859375 -3.96875 C 4.484375 -4.40625 4.007812 -4.625 3.4375 -4.625 C 3.09375 -4.625 2.78125 -4.546875 2.5 -4.390625 C 2.226562 -4.242188 2.015625 -4.03125 1.859375 -3.75 C 1.710938 -3.476562 1.640625 -3.171875 1.640625 -2.828125 C 1.640625 -2.472656 1.710938 -2.15625 1.859375 -1.875 C 2.015625 -1.601562 2.226562 -1.390625 2.5 -1.234375 C 2.78125 -1.085938 3.09375 -1.015625 3.4375 -1.015625 C 4.007812 -1.015625 4.484375 -1.238281 4.859375 -1.6875 L 5.703125 -0.90625 C 5.429688 -0.582031 5.097656 -0.332031 4.703125 -0.15625 C 4.304688 0.0078125 3.863281 0.09375 3.375 0.09375 Z M 3.375 0.09375 "/></g></g></g><g fill="#000000" fill-opacity="1"><g transform="translate(721.368176, 33.967653)"><g><path d="M 4.265625 0 L 3.171875 -1.578125 L 1.96875 -1.578125 L 1.96875 0 L 0.671875 0 L 0.671875 -5.640625 L 3.109375 -5.640625 C 3.609375 -5.640625 4.039062 -5.554688 4.40625 -5.390625 C 4.78125 -5.222656 5.066406 -4.984375 5.265625 -4.671875 C 5.460938 -4.367188 5.5625 -4.007812 5.5625 -3.59375 C 5.5625 -3.175781 5.457031 -2.816406 5.25 -2.515625 C 5.050781 -2.210938 4.769531 -1.976562 4.40625 -1.8125 L 5.671875 0 Z M 4.234375 -3.59375 C 4.234375 -3.914062 4.128906 -4.160156 3.921875 -4.328125 C 3.722656 -4.492188 3.429688 -4.578125 3.046875 -4.578125 L 1.96875 -4.578125 L 1.96875 -2.609375 L 3.046875 -2.609375 C 3.429688 -2.609375 3.722656 -2.691406 3.921875 -2.859375 C 4.128906 -3.035156 4.234375 -3.28125 4.234375 -3.59375 Z M 4.234375 -3.59375 "/></g></g></g><g fill="#000000" fill-opacity="1"><g transform="translate(727.287884, 33.967653)"><g><path d="M 0.671875 -5.640625 L 1.96875 -5.640625 L 1.96875 0 L 0.671875 0 Z M 0.671875 -5.640625 "/></g></g></g><g fill="#000000" fill-opacity="1"><g transform="translate(729.929603, 33.967653)"><g><path d="M 4.390625 -1.203125 L 1.765625 -1.203125 L 1.265625 0 L -0.078125 0 L 2.4375 -5.640625 L 3.734375 -5.640625 L 6.25 0 L 4.890625 0 Z M 3.96875 -2.203125 L 3.078125 -4.359375 L 2.1875 -2.203125 Z M 3.96875 -2.203125 "/></g></g></g><g fill="#000000" fill-opacity="1"><g transform="translate(736.09898, 33.967653)"><g><path d="M 4.265625 0 L 3.171875 -1.578125 L 1.96875 -1.578125 L 1.96875 0 L 0.671875 0 L 0.671875 -5.640625 L 3.109375 -5.640625 C 3.609375 -5.640625 4.039062 -5.554688 4.40625 -5.390625 C 4.78125 -5.222656 5.066406 -4.984375 5.265625 -4.671875 C 5.460938 -4.367188 5.5625 -4.007812 5.5625 -3.59375 C 5.5625 -3.175781 5.457031 -2.816406 5.25 -2.515625 C 5.050781 -2.210938 4.769531 -1.976562 4.40625 -1.8125 L 5.671875 0 Z M 4.234375 -3.59375 C 4.234375 -3.914062 4.128906 -4.160156 3.921875 -4.328125 C 3.722656 -4.492188 3.429688 -4.578125 3.046875 -4.578125 L 1.96875 -4.578125 L 1.96875 -2.609375 L 3.046875 -2.609375 C 3.429688 -2.609375 3.722656 -2.691406 3.921875 -2.859375 C 4.128906 -3.035156 4.234375 -3.28125 4.234375 -3.59375 Z M 4.234375 -3.59375 "/></g></g></g><g fill="#000000" fill-opacity="1"><g transform="translate(742.018688, 33.967653)"><g/></g></g><g fill="#000000" fill-opacity="1"><g transform="translate(744.297975, 33.967653)"><g><path d="M 3.375 0.09375 C 2.789062 0.09375 2.265625 -0.03125 1.796875 -0.28125 C 1.335938 -0.53125 0.972656 -0.875 0.703125 -1.3125 C 0.441406 -1.757812 0.3125 -2.265625 0.3125 -2.828125 C 0.3125 -3.378906 0.441406 -3.875 0.703125 -4.3125 C 0.972656 -4.757812 1.335938 -5.109375 1.796875 -5.359375 C 2.265625 -5.609375 2.789062 -5.734375 3.375 -5.734375 C 3.863281 -5.734375 4.304688 -5.644531 4.703125 -5.46875 C 5.097656 -5.300781 5.429688 -5.054688 5.703125 -4.734375 L 4.859375 -3.96875 C 4.484375 -4.40625 4.007812 -4.625 3.4375 -4.625 C 3.09375 -4.625 2.78125 -4.546875 2.5 -4.390625 C 2.226562 -4.242188 2.015625 -4.03125 1.859375 -3.75 C 1.710938 -3.476562 1.640625 -3.171875 1.640625 -2.828125 C 1.640625 -2.472656 1.710938 -2.15625 1.859375 -1.875 C 2.015625 -1.601562 2.226562 -1.390625 2.5 -1.234375 C 2.78125 -1.085938 3.09375 -1.015625 3.4375 -1.015625 C 4.007812 -1.015625 4.484375 -1.238281 4.859375 -1.6875 L 5.703125 -0.90625 C 5.429688 -0.582031 5.097656 -0.332031 4.703125 -0.15625 C 4.304688 0.0078125 3.863281 0.09375 3.375 0.09375 Z M 3.375 0.09375 "/></g></g></g><g fill="#000000" fill-opacity="1"><g transform="translate(750.201572, 33.967653)"><g><path d="M 3.40625 0.09375 C 2.820312 0.09375 2.289062 -0.03125 1.8125 -0.28125 C 1.34375 -0.53125 0.972656 -0.875 0.703125 -1.3125 C 0.441406 -1.757812 0.3125 -2.265625 0.3125 -2.828125 C 0.3125 -3.378906 0.441406 -3.875 0.703125 -4.3125 C 0.972656 -4.757812 1.34375 -5.109375 1.8125 -5.359375 C 2.289062 -5.609375 2.820312 -5.734375 3.40625 -5.734375 C 3.988281 -5.734375 4.515625 -5.609375 4.984375 -5.359375 C 5.453125 -5.109375 5.816406 -4.757812 6.078125 -4.3125 C 6.347656 -3.875 6.484375 -3.378906 6.484375 -2.828125 C 6.484375 -2.265625 6.347656 -1.757812 6.078125 -1.3125 C 5.816406 -0.875 5.453125 -0.53125 4.984375 -0.28125 C 4.515625 -0.03125 3.988281 0.09375 3.40625 0.09375 Z M 3.40625 -1.015625 C 3.738281 -1.015625 4.035156 -1.085938 4.296875 -1.234375 C 4.566406 -1.390625 4.78125 -1.601562 4.9375 -1.875 C 5.09375 -2.15625 5.171875 -2.472656 5.171875 -2.828125 C 5.171875 -3.171875 5.09375 -3.476562 4.9375 -3.75 C 4.78125 -4.03125 4.566406 -4.242188 4.296875 -4.390625 C 4.035156 -4.546875 3.738281 -4.625 3.40625 -4.625 C 3.070312 -4.625 2.769531 -4.546875 2.5 -4.390625 C 2.226562 -4.242188 2.015625 -4.03125 1.859375 -3.75 C 1.710938 -3.476562 1.640625 -3.171875 1.640625 -2.828125 C 1.640625 -2.472656 1.710938 -2.15625 1.859375 -1.875 C 2.015625 -1.601562 2.226562 -1.390625 2.5 -1.234375 C 2.769531 -1.085938 3.070312 -1.015625 3.40625 -1.015625 Z M 3.40625 -1.015625 "/></g></g></g><g fill="#000000" fill-opacity="1"><g transform="translate(756.999169, 33.967653)"><g><path d="M 5.84375 -5.640625 L 5.84375 0 L 4.765625 0 L 1.953125 -3.421875 L 1.953125 0 L 0.671875 0 L 0.671875 -5.640625 L 1.75 -5.640625 L 4.5625 -2.21875 L 4.5625 -5.640625 Z M 5.84375 -5.640625 "/></g></g></g><g fill="#000000" fill-opacity="1"><g transform="translate(763.506817, 33.967653)"><g><path d="M 1.84375 -4.578125 L 0.03125 -4.578125 L 0.03125 -5.640625 L 4.953125 -5.640625 L 4.953125 -4.578125 L 3.140625 -4.578125 L 3.140625 0 L 1.84375 0 Z M 1.84375 -4.578125 "/></g></g></g><g fill="#000000" fill-opacity="1"><g transform="translate(768.484204, 33.967653)"><g><path d="M 4.390625 -1.203125 L 1.765625 -1.203125 L 1.265625 0 L -0.078125 0 L 2.4375 -5.640625 L 3.734375 -5.640625 L 6.25 0 L 4.890625 0 Z M 3.96875 -2.203125 L 3.078125 -4.359375 L 2.1875 -2.203125 Z M 3.96875 -2.203125 "/></g></g></g><path stroke-linecap="round" transform="matrix(0.0756974, 0, 0, 0.0756974, 12.007494, 12.314484)" fill="none" stroke-linejoin="round" d="M 253.583647 424.618734 L 316.178654 424.618734 C 334.497885 424.618734 351.475426 415.020489 360.970464 399.384639 L 407.310379 322.753489 " stroke="#18130b" stroke-width="15" stroke-opacity="1" stroke-miterlimit="10"/><g clip-path="url(#262a1d87ab)"><path stroke-linecap="round" transform="matrix(0.0756974, 0, 0, 0.0756974, 12.007494, 12.314484)" fill="none" stroke-linejoin="round" d="M 405.762274 167.994688 L 360.970464 93.943711 C 351.475426 78.256257 334.497885 68.709615 316.178654 68.709615 L 159.768542 68.709615 C 141.449311 68.709615 124.47177 78.256257 114.976732 93.943711 L 38.964824 219.546552 C 28.850544 236.214473 28.850544 257.113877 38.964824 273.781797 L 122.046407 411.098626 " stroke="#18130b" stroke-width="15" stroke-opacity="1" stroke-miterlimit="10"/></g><path stroke-linecap="round" transform="matrix(0.0756974, 0, 0, 0.0756974, 12.007494, 12.314484)" fill="none" stroke-linejoin="round" d="M 410.819414 227.648297 L 417.734279 267.692588 " stroke="#18130b" stroke-width="70" stroke-opacity="1" stroke-miterlimit="10"/><path stroke-linecap="round" transform="matrix(0.0756974, 0, 0, 0.0756974, 12.007494, 12.314484)" fill="none" stroke-linejoin="round" d="M 320.668156 267.692588 L 211.991252 145.598783 " stroke="#f9ef82" stroke-width="80" stroke-opacity="1" stroke-miterlimit="10"/><path stroke-linecap="round" transform="matrix(0.0756974, 0, 0, 0.0756974, 12.007494, 12.314484)" fill="none" stroke-linejoin="round" d="M 260.550115 334.931907 L 128.961272 260.984137 " stroke="#18130b" stroke-width="70" stroke-opacity="1" stroke-miterlimit="10"/><path stroke-linecap="round" transform="matrix(0.0756974, 0, 0, 0.0756974, 12.007494, 12.314484)" fill="none" stroke-linejoin="round" d="M 216.532357 387.980272 L 158.581663 372.292818 " stroke="#f9ef82" stroke-width="50" stroke-opacity="1" stroke-miterlimit="10"/><g clip-path="url(#74ad592eab)"><path stroke-linecap="round" transform="matrix(0.0756974, 0, 0, 0.0756974, 12.007494, 12.314484)" fill="none" stroke-linejoin="round" d="M 199.658023 437.106774 L 150.06709 431.791616 " stroke="#18130b" stroke-width="40" stroke-opacity="1" stroke-miterlimit="10"/></g><g clip-path="url(#4100a3ef5b)"><path stroke-linecap="round" transform="matrix(0.0756974, 0, 0, 0.0756974, 12.007494, 12.314484)" fill="none" stroke-linejoin="round" d="M 461.132796 230.22847 L 481.928993 221.868709 " stroke="#18130b" stroke-width="15" stroke-opacity="1" stroke-miterlimit="10"/></g><g clip-path="url(#0c26204c0e)"><path stroke-linecap="round" transform="matrix(0.0756974, 0, 0, 0.0756974, 12.007494, 12.314484)" fill="none" stroke-linejoin="round" d="M 465.467487 260.984137 L 486.624909 269.447106 " stroke="#18130b" stroke-width="15" stroke-opacity="1" stroke-miterlimit="10"/></g><g fill="#18130b" fill-opacity="1"><g transform="translate(50.661615, 34.600399)"><g><path d="M 10.84375 -4.6875 L 2.28125 -4.6875 C 2.351562 -3.625 2.757812 -2.765625 3.5 -2.109375 C 4.238281 -1.453125 5.175781 -1.125 6.3125 -1.125 C 6.945312 -1.125 7.53125 -1.238281 8.0625 -1.46875 C 8.59375 -1.695312 9.050781 -2.03125 9.4375 -2.46875 L 10.21875 -1.578125 C 9.769531 -1.035156 9.203125 -0.617188 8.515625 -0.328125 C 7.835938 -0.046875 7.085938 0.09375 6.265625 0.09375 C 5.210938 0.09375 4.28125 -0.128906 3.46875 -0.578125 C 2.664062 -1.023438 2.035156 -1.644531 1.578125 -2.4375 C 1.117188 -3.226562 0.890625 -4.125 0.890625 -5.125 C 0.890625 -6.125 1.109375 -7.019531 1.546875 -7.8125 C 1.984375 -8.601562 2.582031 -9.21875 3.34375 -9.65625 C 4.101562 -10.09375 4.957031 -10.3125 5.90625 -10.3125 C 6.84375 -10.3125 7.6875 -10.09375 8.4375 -9.65625 C 9.195312 -9.21875 9.789062 -8.601562 10.21875 -7.8125 C 10.644531 -7.03125 10.859375 -6.132812 10.859375 -5.125 Z M 5.90625 -9.125 C 4.914062 -9.125 4.085938 -8.8125 3.421875 -8.1875 C 2.753906 -7.5625 2.375 -6.738281 2.28125 -5.71875 L 9.546875 -5.71875 C 9.453125 -6.738281 9.066406 -7.5625 8.390625 -8.1875 C 7.722656 -8.8125 6.894531 -9.125 5.90625 -9.125 Z M 5.90625 -9.125 "/></g></g></g><g fill="#18130b" fill-opacity="1"><g transform="translate(62.415093, 34.600399)"><g><path d="M 7.140625 -10.3125 C 8.429688 -10.3125 9.453125 -9.9375 10.203125 -9.1875 C 10.960938 -8.445312 11.34375 -7.363281 11.34375 -5.9375 L 11.34375 0 L 9.96875 0 L 9.96875 -5.796875 C 9.96875 -6.859375 9.703125 -7.671875 9.171875 -8.234375 C 8.640625 -8.796875 7.878906 -9.078125 6.890625 -9.078125 C 5.785156 -9.078125 4.910156 -8.75 4.265625 -8.09375 C 3.628906 -7.4375 3.3125 -6.53125 3.3125 -5.375 L 3.3125 0 L 1.921875 0 L 1.921875 -10.234375 L 3.25 -10.234375 L 3.25 -8.359375 C 3.625 -8.972656 4.144531 -9.453125 4.8125 -9.796875 C 5.488281 -10.140625 6.265625 -10.3125 7.140625 -10.3125 Z M 7.140625 -10.3125 "/></g></g></g><g fill="#18130b" fill-opacity="1"><g transform="translate(75.589111, 34.600399)"><g><path d="M 8.453125 0 L 5.203125 -4.28125 L 1.921875 0 L 0.375 0 L 4.421875 -5.25 L 0.5625 -10.234375 L 2.125 -10.234375 L 5.203125 -6.234375 L 8.28125 -10.234375 L 9.796875 -10.234375 L 5.9375 -5.25 L 10.03125 0 Z M 8.453125 0 "/></g></g></g><g fill="#18130b" fill-opacity="1"><g transform="translate(85.980436, 34.600399)"><g><path d="M 5.515625 -10.3125 C 6.847656 -10.3125 7.867188 -9.976562 8.578125 -9.3125 C 9.296875 -8.644531 9.65625 -7.65625 9.65625 -6.34375 L 9.65625 0 L 8.328125 0 L 8.328125 -1.59375 C 8.015625 -1.0625 7.554688 -0.644531 6.953125 -0.34375 C 6.359375 -0.0507812 5.644531 0.09375 4.8125 0.09375 C 3.664062 0.09375 2.753906 -0.175781 2.078125 -0.71875 C 1.410156 -1.257812 1.078125 -1.976562 1.078125 -2.875 C 1.078125 -3.75 1.390625 -4.453125 2.015625 -4.984375 C 2.640625 -5.515625 3.640625 -5.78125 5.015625 -5.78125 L 8.28125 -5.78125 L 8.28125 -6.40625 C 8.28125 -7.289062 8.03125 -7.960938 7.53125 -8.421875 C 7.039062 -8.878906 6.320312 -9.109375 5.375 -9.109375 C 4.726562 -9.109375 4.101562 -9 3.5 -8.78125 C 2.90625 -8.570312 2.394531 -8.28125 1.96875 -7.90625 L 1.34375 -8.9375 C 1.863281 -9.375 2.484375 -9.710938 3.203125 -9.953125 C 3.929688 -10.191406 4.703125 -10.3125 5.515625 -10.3125 Z M 5.015625 -1 C 5.796875 -1 6.460938 -1.175781 7.015625 -1.53125 C 7.578125 -1.882812 8 -2.398438 8.28125 -3.078125 L 8.28125 -4.75 L 5.0625 -4.75 C 3.3125 -4.75 2.4375 -4.140625 2.4375 -2.921875 C 2.4375 -2.328125 2.660156 -1.859375 3.109375 -1.515625 C 3.566406 -1.171875 4.203125 -1 5.015625 -1 Z M 5.015625 -1 "/></g></g></g><g fill="#18130b" fill-opacity="1"><g transform="translate(97.461488, 34.600399)"><g><path d="M 14.703125 -10.3125 C 15.984375 -10.3125 16.988281 -9.941406 17.71875 -9.203125 C 18.457031 -8.460938 18.828125 -7.375 18.828125 -5.9375 L 18.828125 0 L 17.4375 0 L 17.4375 -5.796875 C 17.4375 -6.859375 17.179688 -7.671875 16.671875 -8.234375 C 16.160156 -8.796875 15.4375 -9.078125 14.5 -9.078125 C 13.4375 -9.078125 12.597656 -8.75 11.984375 -8.09375 C 11.378906 -7.4375 11.078125 -6.53125 11.078125 -5.375 L 11.078125 0 L 9.703125 0 L 9.703125 -5.796875 C 9.703125 -6.859375 9.441406 -7.671875 8.921875 -8.234375 C 8.410156 -8.796875 7.679688 -9.078125 6.734375 -9.078125 C 5.679688 -9.078125 4.847656 -8.75 4.234375 -8.09375 C 3.617188 -7.4375 3.3125 -6.53125 3.3125 -5.375 L 3.3125 0 L 1.921875 0 L 1.921875 -10.234375 L 3.25 -10.234375 L 3.25 -8.375 C 3.613281 -9 4.117188 -9.476562 4.765625 -9.8125 C 5.421875 -10.144531 6.171875 -10.3125 7.015625 -10.3125 C 7.867188 -10.3125 8.609375 -10.128906 9.234375 -9.765625 C 9.867188 -9.410156 10.34375 -8.875 10.65625 -8.15625 C 11.03125 -8.832031 11.570312 -9.359375 12.28125 -9.734375 C 12.988281 -10.117188 13.796875 -10.3125 14.703125 -10.3125 Z M 14.703125 -10.3125 "/></g></g></g><g fill="#18130b" fill-opacity="1"><g transform="translate(118.107916, 34.600399)"><g><path d="M 10.84375 -4.6875 L 2.28125 -4.6875 C 2.351562 -3.625 2.757812 -2.765625 3.5 -2.109375 C 4.238281 -1.453125 5.175781 -1.125 6.3125 -1.125 C 6.945312 -1.125 7.53125 -1.238281 8.0625 -1.46875 C 8.59375 -1.695312 9.050781 -2.03125 9.4375 -2.46875 L 10.21875 -1.578125 C 9.769531 -1.035156 9.203125 -0.617188 8.515625 -0.328125 C 7.835938 -0.046875 7.085938 0.09375 6.265625 0.09375 C 5.210938 0.09375 4.28125 -0.128906 3.46875 -0.578125 C 2.664062 -1.023438 2.035156 -1.644531 1.578125 -2.4375 C 1.117188 -3.226562 0.890625 -4.125 0.890625 -5.125 C 0.890625 -6.125 1.109375 -7.019531 1.546875 -7.8125 C 1.984375 -8.601562 2.582031 -9.21875 3.34375 -9.65625 C 4.101562 -10.09375 4.957031 -10.3125 5.90625 -10.3125 C 6.84375 -10.3125 7.6875 -10.09375 8.4375 -9.65625 C 9.195312 -9.21875 9.789062 -8.601562 10.21875 -7.8125 C 10.644531 -7.03125 10.859375 -6.132812 10.859375 -5.125 Z M 5.90625 -9.125 C 4.914062 -9.125 4.085938 -8.8125 3.421875 -8.1875 C 2.753906 -7.5625 2.375 -6.738281 2.28125 -5.71875 L 9.546875 -5.71875 C 9.453125 -6.738281 9.066406 -7.5625 8.390625 -8.1875 C 7.722656 -8.8125 6.894531 -9.125 5.90625 -9.125 Z M 5.90625 -9.125 "/></g></g></g><g fill="#18130b" fill-opacity="1"><g transform="translate(129.860424, 34.600399)"><g><path d="M 4.4375 -11.0625 L 0.078125 -11.0625 L 0.078125 -13.625 L 11.953125 -13.625 L 11.953125 -11.0625 L 7.59375 -11.0625 L 7.59375 0 L 4.4375 0 Z M 4.4375 -11.0625 "/></g></g></g><g fill="#18130b" fill-opacity="1"><g transform="translate(141.886339, 34.600399)"><g><path d="M 12.171875 -2.53125 L 12.171875 0 L 1.609375 0 L 1.609375 -13.625 L 11.921875 -13.625 L 11.921875 -11.09375 L 4.75 -11.09375 L 4.75 -8.140625 L 11.078125 -8.140625 L 11.078125 -5.6875 L 4.75 -5.6875 L 4.75 -2.53125 Z M 12.171875 -2.53125 "/></g></g></g><g fill="#18130b" fill-opacity="1"><g transform="translate(154.943596, 34.600399)"><g><path d="M 8.140625 0.234375 C 6.753906 0.234375 5.5 -0.0664062 4.375 -0.671875 C 3.25 -1.273438 2.363281 -2.113281 1.71875 -3.1875 C 1.082031 -4.257812 0.765625 -5.46875 0.765625 -6.8125 C 0.765625 -8.164062 1.082031 -9.375 1.71875 -10.4375 C 2.363281 -11.507812 3.25 -12.347656 4.375 -12.953125 C 5.5 -13.554688 6.757812 -13.859375 8.15625 -13.859375 C 9.332031 -13.859375 10.398438 -13.648438 11.359375 -13.234375 C 12.316406 -12.816406 13.117188 -12.222656 13.765625 -11.453125 L 11.734375 -9.578125 C 10.816406 -10.640625 9.675781 -11.171875 8.3125 -11.171875 C 7.46875 -11.171875 6.710938 -10.984375 6.046875 -10.609375 C 5.390625 -10.242188 4.875 -9.726562 4.5 -9.0625 C 4.132812 -8.40625 3.953125 -7.65625 3.953125 -6.8125 C 3.953125 -5.96875 4.132812 -5.210938 4.5 -4.546875 C 4.875 -3.890625 5.390625 -3.375 6.046875 -3 C 6.710938 -2.632812 7.46875 -2.453125 8.3125 -2.453125 C 9.675781 -2.453125 10.816406 -2.988281 11.734375 -4.0625 L 13.765625 -2.203125 C 13.117188 -1.410156 12.3125 -0.804688 11.34375 -0.390625 C 10.382812 0.0234375 9.316406 0.234375 8.140625 0.234375 Z M 8.140625 0.234375 "/></g></g></g><g fill="#18130b" fill-opacity="1"><g transform="translate(169.20734, 34.600399)"><g><path d="M 14.109375 -13.625 L 14.109375 0 L 10.953125 0 L 10.953125 -5.59375 L 4.765625 -5.59375 L 4.765625 0 L 1.609375 0 L 1.609375 -13.625 L 4.765625 -13.625 L 4.765625 -8.25 L 10.953125 -8.25 L 10.953125 -13.625 Z M 14.109375 -13.625 "/></g></g></g><g fill="#18130b" fill-opacity="1"><g transform="translate(103.803512, 43.780721)"><g><path d="M 3.390625 -4.421875 C 3.765625 -4.421875 4.097656 -4.34375 4.390625 -4.1875 C 4.679688 -4.039062 4.90625 -3.828125 5.0625 -3.546875 C 5.226562 -3.273438 5.3125 -2.945312 5.3125 -2.5625 C 5.3125 -2.070312 5.203125 -1.628906 4.984375 -1.234375 C 4.773438 -0.835938 4.476562 -0.523438 4.09375 -0.296875 C 3.71875 -0.0664062 3.296875 0.046875 2.828125 0.046875 C 2.398438 0.046875 2.039062 -0.0351562 1.75 -0.203125 C 1.46875 -0.378906 1.269531 -0.628906 1.15625 -0.953125 L 0.953125 0 L 0.390625 0 L 1.625 -6.1875 L 2.21875 -6.1875 L 1.734375 -3.734375 C 1.941406 -3.953125 2.1875 -4.117188 2.46875 -4.234375 C 2.75 -4.359375 3.054688 -4.421875 3.390625 -4.421875 Z M 2.8125 -0.484375 C 3.175781 -0.484375 3.5 -0.570312 3.78125 -0.75 C 4.070312 -0.925781 4.300781 -1.164062 4.46875 -1.46875 C 4.632812 -1.78125 4.71875 -2.132812 4.71875 -2.53125 C 4.71875 -2.957031 4.585938 -3.289062 4.328125 -3.53125 C 4.078125 -3.78125 3.722656 -3.90625 3.265625 -3.90625 C 2.910156 -3.90625 2.585938 -3.816406 2.296875 -3.640625 C 2.015625 -3.460938 1.789062 -3.21875 1.625 -2.90625 C 1.457031 -2.59375 1.375 -2.238281 1.375 -1.84375 C 1.375 -1.414062 1.5 -1.082031 1.75 -0.84375 C 2.007812 -0.601562 2.363281 -0.484375 2.8125 -0.484375 Z M 2.8125 -0.484375 "/></g></g></g><g fill="#18130b" fill-opacity="1"><g transform="translate(109.455141, 43.780721)"><g><path d="M 0.9375 -2.03125 C 0.9375 -1.988281 0.9375 -1.929688 0.9375 -1.859375 C 0.9375 -1.410156 1.0625 -1.066406 1.3125 -0.828125 C 1.5625 -0.597656 1.9375 -0.484375 2.4375 -0.484375 C 2.726562 -0.484375 3 -0.53125 3.25 -0.625 C 3.507812 -0.726562 3.71875 -0.863281 3.875 -1.03125 L 4.140625 -0.609375 C 3.941406 -0.398438 3.6875 -0.238281 3.375 -0.125 C 3.0625 -0.0078125 2.734375 0.046875 2.390625 0.046875 C 1.753906 0.046875 1.253906 -0.117188 0.890625 -0.453125 C 0.523438 -0.785156 0.34375 -1.242188 0.34375 -1.828125 C 0.34375 -2.316406 0.445312 -2.757812 0.65625 -3.15625 C 0.863281 -3.550781 1.148438 -3.859375 1.515625 -4.078125 C 1.890625 -4.304688 2.3125 -4.421875 2.78125 -4.421875 C 3.363281 -4.421875 3.828125 -4.253906 4.171875 -3.921875 C 4.515625 -3.585938 4.6875 -3.132812 4.6875 -2.5625 C 4.6875 -2.394531 4.664062 -2.21875 4.625 -2.03125 Z M 2.765625 -3.921875 C 2.328125 -3.921875 1.953125 -3.789062 1.640625 -3.53125 C 1.328125 -3.269531 1.113281 -2.914062 1 -2.46875 L 4.125 -2.46875 C 4.132812 -2.507812 4.140625 -2.5625 4.140625 -2.625 C 4.140625 -3.039062 4.015625 -3.359375 3.765625 -3.578125 C 3.515625 -3.804688 3.179688 -3.921875 2.765625 -3.921875 Z M 2.765625 -3.921875 "/></g></g></g><g fill="#18130b" fill-opacity="1"><g transform="translate(114.489926, 43.780721)"><g><path d="M 0.9375 -2.03125 C 0.9375 -1.988281 0.9375 -1.929688 0.9375 -1.859375 C 0.9375 -1.410156 1.0625 -1.066406 1.3125 -0.828125 C 1.5625 -0.597656 1.9375 -0.484375 2.4375 -0.484375 C 2.726562 -0.484375 3 -0.53125 3.25 -0.625 C 3.507812 -0.726562 3.71875 -0.863281 3.875 -1.03125 L 4.140625 -0.609375 C 3.941406 -0.398438 3.6875 -0.238281 3.375 -0.125 C 3.0625 -0.0078125 2.734375 0.046875 2.390625 0.046875 C 1.753906 0.046875 1.253906 -0.117188 0.890625 -0.453125 C 0.523438 -0.785156 0.34375 -1.242188 0.34375 -1.828125 C 0.34375 -2.316406 0.445312 -2.757812 0.65625 -3.15625 C 0.863281 -3.550781 1.148438 -3.859375 1.515625 -4.078125 C 1.890625 -4.304688 2.3125 -4.421875 2.78125 -4.421875 C 3.363281 -4.421875 3.828125 -4.253906 4.171875 -3.921875 C 4.515625 -3.585938 4.6875 -3.132812 4.6875 -2.5625 C 4.6875 -2.394531 4.664062 -2.21875 4.625 -2.03125 Z M 2.765625 -3.921875 C 2.328125 -3.921875 1.953125 -3.789062 1.640625 -3.53125 C 1.328125 -3.269531 1.113281 -2.914062 1 -2.46875 L 4.125 -2.46875 C 4.132812 -2.507812 4.140625 -2.5625 4.140625 -2.625 C 4.140625 -3.039062 4.015625 -3.359375 3.765625 -3.578125 C 3.515625 -3.804688 3.179688 -3.921875 2.765625 -3.921875 Z M 2.765625 -3.921875 "/></g></g></g><g fill="#003096" fill-opacity="1"><g transform="translate(119.517487, 43.780721)"><g><path d="M 3.3125 0.09375 C 2.726562 0.09375 2.21875 -0.0078125 1.78125 -0.21875 C 1.34375 -0.425781 1.003906 -0.722656 0.765625 -1.109375 C 0.535156 -1.492188 0.421875 -1.9375 0.421875 -2.4375 C 0.421875 -3.09375 0.570312 -3.6875 0.875 -4.21875 C 1.175781 -4.75 1.601562 -5.164062 2.15625 -5.46875 C 2.707031 -5.78125 3.34375 -5.9375 4.0625 -5.9375 C 4.582031 -5.9375 5.039062 -5.847656 5.4375 -5.671875 C 5.84375 -5.492188 6.144531 -5.238281 6.34375 -4.90625 L 5.375 -4.109375 C 5.0625 -4.566406 4.59375 -4.796875 3.96875 -4.796875 C 3.539062 -4.796875 3.160156 -4.691406 2.828125 -4.484375 C 2.503906 -4.285156 2.25 -4.015625 2.0625 -3.671875 C 1.882812 -3.328125 1.796875 -2.941406 1.796875 -2.515625 C 1.796875 -2.066406 1.9375 -1.707031 2.21875 -1.4375 C 2.507812 -1.175781 2.910156 -1.046875 3.421875 -1.046875 C 4.046875 -1.046875 4.566406 -1.273438 4.984375 -1.734375 L 5.78125 -0.90625 C 5.207031 -0.238281 4.382812 0.09375 3.3125 0.09375 Z M 3.3125 0.09375 "/></g></g></g><g fill="#003096" fill-opacity="1"><g transform="translate(125.627579, 43.780721)"><g><path d="M 3.265625 0.09375 C 2.679688 0.09375 2.175781 -0.0078125 1.75 -0.21875 C 1.320312 -0.425781 0.992188 -0.722656 0.765625 -1.109375 C 0.535156 -1.492188 0.421875 -1.9375 0.421875 -2.4375 C 0.421875 -3.09375 0.570312 -3.6875 0.875 -4.21875 C 1.175781 -4.75 1.601562 -5.164062 2.15625 -5.46875 C 2.707031 -5.78125 3.332031 -5.9375 4.03125 -5.9375 C 4.625 -5.9375 5.132812 -5.832031 5.5625 -5.625 C 5.988281 -5.414062 6.316406 -5.117188 6.546875 -4.734375 C 6.773438 -4.347656 6.890625 -3.90625 6.890625 -3.40625 C 6.890625 -2.738281 6.734375 -2.140625 6.421875 -1.609375 C 6.117188 -1.078125 5.691406 -0.660156 5.140625 -0.359375 C 4.597656 -0.0546875 3.972656 0.09375 3.265625 0.09375 Z M 3.390625 -1.046875 C 3.816406 -1.046875 4.191406 -1.148438 4.515625 -1.359375 C 4.835938 -1.566406 5.082031 -1.84375 5.25 -2.1875 C 5.425781 -2.53125 5.515625 -2.910156 5.515625 -3.328125 C 5.515625 -3.773438 5.375 -4.128906 5.09375 -4.390625 C 4.820312 -4.660156 4.429688 -4.796875 3.921875 -4.796875 C 3.492188 -4.796875 3.117188 -4.691406 2.796875 -4.484375 C 2.472656 -4.273438 2.222656 -4 2.046875 -3.65625 C 1.878906 -3.3125 1.796875 -2.929688 1.796875 -2.515625 C 1.796875 -2.066406 1.929688 -1.707031 2.203125 -1.4375 C 2.484375 -1.175781 2.878906 -1.046875 3.390625 -1.046875 Z M 3.390625 -1.046875 "/></g></g></g><g fill="#003096" fill-opacity="1"><g transform="translate(132.66294, 43.780721)"><g><path d="M 1.40625 -5.84375 L 3.859375 -5.84375 C 4.453125 -5.84375 4.960938 -5.742188 5.390625 -5.546875 C 5.828125 -5.347656 6.160156 -5.0625 6.390625 -4.6875 C 6.617188 -4.320312 6.734375 -3.894531 6.734375 -3.40625 C 6.734375 -2.726562 6.578125 -2.128906 6.265625 -1.609375 C 5.960938 -1.097656 5.535156 -0.703125 4.984375 -0.421875 C 4.441406 -0.140625 3.8125 0 3.09375 0 L 0.234375 0 Z M 3.140625 -1.109375 C 3.597656 -1.109375 3.992188 -1.203125 4.328125 -1.390625 C 4.660156 -1.585938 4.914062 -1.851562 5.09375 -2.1875 C 5.269531 -2.519531 5.359375 -2.898438 5.359375 -3.328125 C 5.359375 -3.765625 5.21875 -4.109375 4.9375 -4.359375 C 4.65625 -4.609375 4.242188 -4.734375 3.703125 -4.734375 L 2.546875 -4.734375 L 1.8125 -1.109375 Z M 3.140625 -1.109375 "/></g></g></g><g fill="#003096" fill-opacity="1"><g transform="translate(139.548255, 43.780721)"><g><path d="M 2.53125 -4.75 L 2.28125 -3.484375 L 5 -3.484375 L 4.796875 -2.4375 L 2.0625 -2.4375 L 1.796875 -1.078125 L 4.984375 -1.078125 L 4.765625 0 L 0.234375 0 L 1.40625 -5.84375 L 5.828125 -5.84375 L 5.59375 -4.75 Z M 2.53125 -4.75 "/></g></g></g><g fill="#18130b" fill-opacity="1"><g transform="translate(145.134834, 43.780721)"><g/></g></g><g fill="#18130b" fill-opacity="1"><g transform="translate(147.318797, 43.780721)"><g><path d="M 1.671875 0.046875 C 1.316406 0.046875 0.976562 -0.00390625 0.65625 -0.109375 C 0.34375 -0.210938 0.0976562 -0.34375 -0.078125 -0.5 L 0.203125 -0.953125 C 0.367188 -0.816406 0.585938 -0.703125 0.859375 -0.609375 C 1.140625 -0.515625 1.429688 -0.46875 1.734375 -0.46875 C 2.148438 -0.46875 2.46875 -0.535156 2.6875 -0.671875 C 2.914062 -0.816406 3.03125 -1.015625 3.03125 -1.265625 C 3.03125 -1.398438 2.984375 -1.507812 2.890625 -1.59375 C 2.796875 -1.675781 2.679688 -1.738281 2.546875 -1.78125 C 2.421875 -1.832031 2.226562 -1.882812 1.96875 -1.9375 C 1.664062 -2 1.414062 -2.0625 1.21875 -2.125 C 1.03125 -2.195312 0.867188 -2.304688 0.734375 -2.453125 C 0.609375 -2.597656 0.546875 -2.796875 0.546875 -3.046875 C 0.546875 -3.460938 0.71875 -3.796875 1.0625 -4.046875 C 1.40625 -4.296875 1.863281 -4.421875 2.4375 -4.421875 C 2.726562 -4.421875 3.003906 -4.382812 3.265625 -4.3125 C 3.535156 -4.238281 3.757812 -4.140625 3.9375 -4.015625 L 3.671875 -3.53125 C 3.503906 -3.65625 3.304688 -3.75 3.078125 -3.8125 C 2.859375 -3.875 2.628906 -3.90625 2.390625 -3.90625 C 1.992188 -3.90625 1.679688 -3.832031 1.453125 -3.6875 C 1.234375 -3.550781 1.125 -3.359375 1.125 -3.109375 C 1.125 -2.960938 1.171875 -2.84375 1.265625 -2.75 C 1.359375 -2.664062 1.472656 -2.601562 1.609375 -2.5625 C 1.753906 -2.519531 1.953125 -2.472656 2.203125 -2.421875 C 2.503906 -2.347656 2.75 -2.28125 2.9375 -2.21875 C 3.125 -2.15625 3.28125 -2.050781 3.40625 -1.90625 C 3.539062 -1.757812 3.609375 -1.566406 3.609375 -1.328125 C 3.609375 -0.898438 3.429688 -0.5625 3.078125 -0.3125 C 2.722656 -0.0703125 2.253906 0.046875 1.671875 0.046875 Z M 1.671875 0.046875 "/></g></g></g><g fill="#18130b" fill-opacity="1"><g transform="translate(151.394972, 43.780721)"><g><path d="M 2.34375 0.046875 C 1.945312 0.046875 1.597656 -0.03125 1.296875 -0.1875 C 0.992188 -0.34375 0.757812 -0.5625 0.59375 -0.84375 C 0.425781 -1.125 0.34375 -1.445312 0.34375 -1.8125 C 0.34375 -2.3125 0.453125 -2.757812 0.671875 -3.15625 C 0.890625 -3.550781 1.191406 -3.859375 1.578125 -4.078125 C 1.960938 -4.304688 2.398438 -4.421875 2.890625 -4.421875 C 3.503906 -4.421875 3.988281 -4.253906 4.34375 -3.921875 C 4.695312 -3.585938 4.875 -3.132812 4.875 -2.5625 C 4.875 -2.070312 4.765625 -1.628906 4.546875 -1.234375 C 4.335938 -0.835938 4.039062 -0.523438 3.65625 -0.296875 C 3.269531 -0.0664062 2.832031 0.046875 2.34375 0.046875 Z M 2.390625 -0.484375 C 2.742188 -0.484375 3.066406 -0.570312 3.359375 -0.75 C 3.648438 -0.925781 3.875 -1.171875 4.03125 -1.484375 C 4.195312 -1.796875 4.28125 -2.144531 4.28125 -2.53125 C 4.28125 -2.957031 4.15625 -3.289062 3.90625 -3.53125 C 3.65625 -3.78125 3.300781 -3.90625 2.84375 -3.90625 C 2.476562 -3.90625 2.148438 -3.816406 1.859375 -3.640625 C 1.578125 -3.460938 1.351562 -3.210938 1.1875 -2.890625 C 1.019531 -2.578125 0.9375 -2.226562 0.9375 -1.84375 C 0.9375 -1.414062 1.0625 -1.082031 1.3125 -0.84375 C 1.570312 -0.601562 1.929688 -0.484375 2.390625 -0.484375 Z M 2.390625 -0.484375 "/></g></g></g><g fill="#18130b" fill-opacity="1"><g transform="translate(156.621477, 43.780721)"><g><path d="M 1.625 -6.1875 L 2.21875 -6.1875 L 0.984375 0 L 0.390625 0 Z M 1.625 -6.1875 "/></g></g></g><g fill="#18130b" fill-opacity="1"><g transform="translate(158.863789, 43.780721)"><g><path d="M 5.21875 -4.390625 L 4.34375 0 L 3.78125 0 L 3.921875 -0.703125 C 3.503906 -0.203125 2.941406 0.046875 2.234375 0.046875 C 1.742188 0.046875 1.359375 -0.078125 1.078125 -0.328125 C 0.804688 -0.585938 0.671875 -0.941406 0.671875 -1.390625 C 0.671875 -1.546875 0.6875 -1.710938 0.71875 -1.890625 L 1.21875 -4.390625 L 1.8125 -4.390625 L 1.3125 -1.890625 C 1.28125 -1.734375 1.265625 -1.601562 1.265625 -1.5 C 1.265625 -1.175781 1.359375 -0.925781 1.546875 -0.75 C 1.734375 -0.582031 2.015625 -0.5 2.390625 -0.5 C 2.859375 -0.5 3.242188 -0.628906 3.546875 -0.890625 C 3.847656 -1.148438 4.050781 -1.53125 4.15625 -2.03125 L 4.625 -4.390625 Z M 5.21875 -4.390625 "/></g></g></g><g fill="#18130b" fill-opacity="1"><g transform="translate(164.473735, 43.780721)"><g><path d="M 1.34375 -1.328125 C 1.320312 -1.191406 1.3125 -1.097656 1.3125 -1.046875 C 1.3125 -0.660156 1.519531 -0.46875 1.9375 -0.46875 C 2.1875 -0.46875 2.414062 -0.539062 2.625 -0.6875 L 2.765625 -0.234375 C 2.515625 -0.046875 2.1875 0.046875 1.78125 0.046875 C 1.457031 0.046875 1.195312 -0.0390625 1 -0.21875 C 0.8125 -0.40625 0.71875 -0.648438 0.71875 -0.953125 C 0.71875 -1.078125 0.726562 -1.191406 0.75 -1.296875 L 1.265625 -3.890625 L 0.484375 -3.890625 L 0.578125 -4.390625 L 1.359375 -4.390625 L 1.546875 -5.34375 L 2.140625 -5.34375 L 1.953125 -4.390625 L 3.28125 -4.390625 L 3.1875 -3.890625 L 1.859375 -3.890625 Z M 1.34375 -1.328125 "/></g></g></g><g fill="#18130b" fill-opacity="1"><g transform="translate(167.858044, 43.780721)"><g><path d="M 1.265625 -4.390625 L 1.859375 -4.390625 L 0.984375 0 L 0.390625 0 Z M 1.8125 -5.34375 C 1.6875 -5.34375 1.585938 -5.378906 1.515625 -5.453125 C 1.441406 -5.535156 1.40625 -5.628906 1.40625 -5.734375 C 1.40625 -5.867188 1.445312 -5.976562 1.53125 -6.0625 C 1.625 -6.144531 1.734375 -6.1875 1.859375 -6.1875 C 1.984375 -6.1875 2.082031 -6.148438 2.15625 -6.078125 C 2.226562 -6.003906 2.265625 -5.914062 2.265625 -5.8125 C 2.265625 -5.675781 2.21875 -5.5625 2.125 -5.46875 C 2.039062 -5.382812 1.9375 -5.34375 1.8125 -5.34375 Z M 1.8125 -5.34375 "/></g></g></g><g fill="#18130b" fill-opacity="1"><g transform="translate(170.100355, 43.780721)"><g><path d="M 2.34375 0.046875 C 1.945312 0.046875 1.597656 -0.03125 1.296875 -0.1875 C 0.992188 -0.34375 0.757812 -0.5625 0.59375 -0.84375 C 0.425781 -1.125 0.34375 -1.445312 0.34375 -1.8125 C 0.34375 -2.3125 0.453125 -2.757812 0.671875 -3.15625 C 0.890625 -3.550781 1.191406 -3.859375 1.578125 -4.078125 C 1.960938 -4.304688 2.398438 -4.421875 2.890625 -4.421875 C 3.503906 -4.421875 3.988281 -4.253906 4.34375 -3.921875 C 4.695312 -3.585938 4.875 -3.132812 4.875 -2.5625 C 4.875 -2.070312 4.765625 -1.628906 4.546875 -1.234375 C 4.335938 -0.835938 4.039062 -0.523438 3.65625 -0.296875 C 3.269531 -0.0664062 2.832031 0.046875 2.34375 0.046875 Z M 2.390625 -0.484375 C 2.742188 -0.484375 3.066406 -0.570312 3.359375 -0.75 C 3.648438 -0.925781 3.875 -1.171875 4.03125 -1.484375 C 4.195312 -1.796875 4.28125 -2.144531 4.28125 -2.53125 C 4.28125 -2.957031 4.15625 -3.289062 3.90625 -3.53125 C 3.65625 -3.78125 3.300781 -3.90625 2.84375 -3.90625 C 2.476562 -3.90625 2.148438 -3.816406 1.859375 -3.640625 C 1.578125 -3.460938 1.351562 -3.210938 1.1875 -2.890625 C 1.019531 -2.578125 0.9375 -2.226562 0.9375 -1.84375 C 0.9375 -1.414062 1.0625 -1.082031 1.3125 -0.84375 C 1.570312 -0.601562 1.929688 -0.484375 2.390625 -0.484375 Z M 2.390625 -0.484375 "/></g></g></g><g fill="#18130b" fill-opacity="1"><g transform="translate(175.326861, 43.780721)"><g><path d="M 3.40625 -4.421875 C 3.894531 -4.421875 4.273438 -4.289062 4.546875 -4.03125 C 4.828125 -3.78125 4.96875 -3.4375 4.96875 -3 C 4.96875 -2.84375 4.953125 -2.675781 4.921875 -2.5 L 4.421875 0 L 3.828125 0 L 4.328125 -2.5 C 4.359375 -2.65625 4.375 -2.789062 4.375 -2.90625 C 4.375 -3.21875 4.273438 -3.457031 4.078125 -3.625 C 3.890625 -3.800781 3.609375 -3.890625 3.234375 -3.890625 C 2.765625 -3.890625 2.375 -3.757812 2.0625 -3.5 C 1.757812 -3.238281 1.554688 -2.859375 1.453125 -2.359375 L 0.984375 0 L 0.390625 0 L 1.265625 -4.390625 L 1.828125 -4.390625 L 1.6875 -3.6875 C 2.101562 -4.175781 2.675781 -4.421875 3.40625 -4.421875 Z M 3.40625 -4.421875 "/></g></g></g><g fill="#18130b" fill-opacity="1"><g transform="translate(180.970156, 43.780721)"><g><path d="M 1.671875 0.046875 C 1.316406 0.046875 0.976562 -0.00390625 0.65625 -0.109375 C 0.34375 -0.210938 0.0976562 -0.34375 -0.078125 -0.5 L 0.203125 -0.953125 C 0.367188 -0.816406 0.585938 -0.703125 0.859375 -0.609375 C 1.140625 -0.515625 1.429688 -0.46875 1.734375 -0.46875 C 2.148438 -0.46875 2.46875 -0.535156 2.6875 -0.671875 C 2.914062 -0.816406 3.03125 -1.015625 3.03125 -1.265625 C 3.03125 -1.398438 2.984375 -1.507812 2.890625 -1.59375 C 2.796875 -1.675781 2.679688 -1.738281 2.546875 -1.78125 C 2.421875 -1.832031 2.226562 -1.882812 1.96875 -1.9375 C 1.664062 -2 1.414062 -2.0625 1.21875 -2.125 C 1.03125 -2.195312 0.867188 -2.304688 0.734375 -2.453125 C 0.609375 -2.597656 0.546875 -2.796875 0.546875 -3.046875 C 0.546875 -3.460938 0.71875 -3.796875 1.0625 -4.046875 C 1.40625 -4.296875 1.863281 -4.421875 2.4375 -4.421875 C 2.726562 -4.421875 3.003906 -4.382812 3.265625 -4.3125 C 3.535156 -4.238281 3.757812 -4.140625 3.9375 -4.015625 L 3.671875 -3.53125 C 3.503906 -3.65625 3.304688 -3.75 3.078125 -3.8125 C 2.859375 -3.875 2.628906 -3.90625 2.390625 -3.90625 C 1.992188 -3.90625 1.679688 -3.832031 1.453125 -3.6875 C 1.234375 -3.550781 1.125 -3.359375 1.125 -3.109375 C 1.125 -2.960938 1.171875 -2.84375 1.265625 -2.75 C 1.359375 -2.664062 1.472656 -2.601562 1.609375 -2.5625 C 1.753906 -2.519531 1.953125 -2.472656 2.203125 -2.421875 C 2.503906 -2.347656 2.75 -2.28125 2.9375 -2.21875 C 3.125 -2.15625 3.28125 -2.050781 3.40625 -1.90625 C 3.539062 -1.757812 3.609375 -1.566406 3.609375 -1.328125 C 3.609375 -0.898438 3.429688 -0.5625 3.078125 -0.3125 C 2.722656 -0.0703125 2.253906 0.046875 1.671875 0.046875 Z M 1.671875 0.046875 "/></g></g></g><g fill="#18130b" fill-opacity="1"><g transform="translate(282.906021, 37.482377)"><g><path d="M 6.765625 0.1875 C 5.597656 0.1875 4.546875 -0.0625 3.609375 -0.5625 C 2.671875 -1.0625 1.9375 -1.75 1.40625 -2.625 C 0.882812 -3.507812 0.625 -4.503906 0.625 -5.609375 C 0.625 -6.703125 0.882812 -7.6875 1.40625 -8.5625 C 1.9375 -9.445312 2.671875 -10.140625 3.609375 -10.640625 C 4.546875 -11.148438 5.597656 -11.40625 6.765625 -11.40625 C 7.921875 -11.40625 8.960938 -11.148438 9.890625 -10.640625 C 10.828125 -10.140625 11.5625 -9.445312 12.09375 -8.5625 C 12.625 -7.6875 12.890625 -6.703125 12.890625 -5.609375 C 12.890625 -4.503906 12.625 -3.507812 12.09375 -2.625 C 11.5625 -1.75 10.828125 -1.0625 9.890625 -0.5625 C 8.960938 -0.0625 7.921875 0.1875 6.765625 0.1875 Z M 6.765625 -2.015625 C 7.421875 -2.015625 8.015625 -2.164062 8.546875 -2.46875 C 9.085938 -2.78125 9.507812 -3.207031 9.8125 -3.75 C 10.113281 -4.289062 10.265625 -4.910156 10.265625 -5.609375 C 10.265625 -6.296875 10.113281 -6.910156 9.8125 -7.453125 C 9.507812 -8.003906 9.085938 -8.429688 8.546875 -8.734375 C 8.015625 -9.035156 7.421875 -9.1875 6.765625 -9.1875 C 6.097656 -9.1875 5.492188 -9.035156 4.953125 -8.734375 C 4.421875 -8.429688 4.003906 -8.003906 3.703125 -7.453125 C 3.398438 -6.910156 3.25 -6.296875 3.25 -5.609375 C 3.25 -4.910156 3.398438 -4.289062 3.703125 -3.75 C 4.003906 -3.207031 4.421875 -2.78125 4.953125 -2.46875 C 5.492188 -2.164062 6.097656 -2.015625 6.765625 -2.015625 Z M 6.765625 -2.015625 "/></g></g></g><g fill="#18130b" fill-opacity="1"><g transform="translate(296.422089, 37.482377)"><g><path d="M 6.25 -8.75 C 7.050781 -8.75 7.78125 -8.5625 8.4375 -8.1875 C 9.09375 -7.820312 9.601562 -7.304688 9.96875 -6.640625 C 10.34375 -5.972656 10.53125 -5.195312 10.53125 -4.3125 C 10.53125 -3.425781 10.34375 -2.648438 9.96875 -1.984375 C 9.601562 -1.316406 9.09375 -0.796875 8.4375 -0.421875 C 7.78125 -0.0546875 7.050781 0.125 6.25 0.125 C 5.144531 0.125 4.28125 -0.21875 3.65625 -0.90625 L 3.65625 3.109375 L 1.15625 3.109375 L 1.15625 -8.609375 L 3.546875 -8.609375 L 3.546875 -7.625 C 4.160156 -8.375 5.0625 -8.75 6.25 -8.75 Z M 5.8125 -1.921875 C 6.457031 -1.921875 6.984375 -2.132812 7.390625 -2.5625 C 7.796875 -3 8 -3.582031 8 -4.3125 C 8 -5.03125 7.796875 -5.601562 7.390625 -6.03125 C 6.984375 -6.46875 6.457031 -6.6875 5.8125 -6.6875 C 5.175781 -6.6875 4.648438 -6.46875 4.234375 -6.03125 C 3.828125 -5.601562 3.625 -5.03125 3.625 -4.3125 C 3.625 -3.582031 3.828125 -3 4.234375 -2.5625 C 4.648438 -2.132812 5.175781 -1.921875 5.8125 -1.921875 Z M 5.8125 -1.921875 "/></g></g></g><g fill="#18130b" fill-opacity="1"><g transform="translate(307.471959, 37.482377)"><g><path d="M 5.25 0.125 C 4.34375 0.125 3.53125 -0.0625 2.8125 -0.4375 C 2.09375 -0.820312 1.53125 -1.347656 1.125 -2.015625 C 0.71875 -2.691406 0.515625 -3.457031 0.515625 -4.3125 C 0.515625 -5.164062 0.71875 -5.925781 1.125 -6.59375 C 1.53125 -7.269531 2.09375 -7.796875 2.8125 -8.171875 C 3.53125 -8.554688 4.34375 -8.75 5.25 -8.75 C 6.15625 -8.75 6.96875 -8.554688 7.6875 -8.171875 C 8.40625 -7.796875 8.96875 -7.269531 9.375 -6.59375 C 9.78125 -5.925781 9.984375 -5.164062 9.984375 -4.3125 C 9.984375 -3.457031 9.78125 -2.691406 9.375 -2.015625 C 8.96875 -1.347656 8.40625 -0.820312 7.6875 -0.4375 C 6.96875 -0.0625 6.15625 0.125 5.25 0.125 Z M 5.25 -1.921875 C 5.894531 -1.921875 6.421875 -2.132812 6.828125 -2.5625 C 7.242188 -3 7.453125 -3.582031 7.453125 -4.3125 C 7.453125 -5.03125 7.242188 -5.601562 6.828125 -6.03125 C 6.421875 -6.46875 5.894531 -6.6875 5.25 -6.6875 C 4.613281 -6.6875 4.085938 -6.46875 3.671875 -6.03125 C 3.253906 -5.601562 3.046875 -5.03125 3.046875 -4.3125 C 3.046875 -3.582031 3.253906 -3 3.671875 -2.5625 C 4.085938 -2.132812 4.613281 -1.921875 5.25 -1.921875 Z M 5.25 -1.921875 "/></g></g></g><g fill="#18130b" fill-opacity="1"><g transform="translate(317.961326, 37.482377)"><g><path d="M 3.546875 -7.484375 C 3.835938 -7.898438 4.238281 -8.210938 4.75 -8.421875 C 5.257812 -8.640625 5.84375 -8.75 6.5 -8.75 L 6.5 -6.4375 C 6.21875 -6.457031 6.03125 -6.46875 5.9375 -6.46875 C 5.226562 -6.46875 4.671875 -6.265625 4.265625 -5.859375 C 3.859375 -5.460938 3.65625 -4.863281 3.65625 -4.0625 L 3.65625 0 L 1.15625 0 L 1.15625 -8.609375 L 3.546875 -8.609375 Z M 3.546875 -7.484375 "/></g></g></g><g fill="#18130b" fill-opacity="1"><g transform="translate(324.86349, 37.482377)"><g><path d="M 6.703125 -0.421875 C 6.460938 -0.234375 6.160156 -0.09375 5.796875 0 C 5.441406 0.0820312 5.066406 0.125 4.671875 0.125 C 3.648438 0.125 2.859375 -0.132812 2.296875 -0.65625 C 1.734375 -1.175781 1.453125 -1.945312 1.453125 -2.96875 L 1.453125 -6.5 L 0.125 -6.5 L 0.125 -8.421875 L 1.453125 -8.421875 L 1.453125 -10.515625 L 3.953125 -10.515625 L 3.953125 -8.421875 L 6.109375 -8.421875 L 6.109375 -6.5 L 3.953125 -6.5 L 3.953125 -3 C 3.953125 -2.632812 4.046875 -2.351562 4.234375 -2.15625 C 4.421875 -1.957031 4.6875 -1.859375 5.03125 -1.859375 C 5.425781 -1.859375 5.757812 -1.960938 6.03125 -2.171875 Z M 6.703125 -0.421875 "/></g></g></g><g fill="#18130b" fill-opacity="1"><g transform="translate(331.829713, 37.482377)"><g><path d="M 9.828125 -8.609375 L 9.828125 0 L 7.46875 0 L 7.46875 -1.03125 C 7.132812 -0.65625 6.738281 -0.367188 6.28125 -0.171875 C 5.820312 0.0234375 5.320312 0.125 4.78125 0.125 C 3.65625 0.125 2.757812 -0.195312 2.09375 -0.84375 C 1.4375 -1.5 1.109375 -2.46875 1.109375 -3.75 L 1.109375 -8.609375 L 3.609375 -8.609375 L 3.609375 -4.109375 C 3.609375 -2.722656 4.1875 -2.03125 5.34375 -2.03125 C 5.945312 -2.03125 6.425781 -2.222656 6.78125 -2.609375 C 7.144531 -3.003906 7.328125 -3.585938 7.328125 -4.359375 L 7.328125 -8.609375 Z M 9.828125 -8.609375 "/></g></g></g><g fill="#18130b" fill-opacity="1"><g transform="translate(342.831538, 37.482377)"><g><path d="M 6.390625 -8.75 C 7.453125 -8.75 8.3125 -8.425781 8.96875 -7.78125 C 9.632812 -7.144531 9.96875 -6.195312 9.96875 -4.9375 L 9.96875 0 L 7.46875 0 L 7.46875 -4.546875 C 7.46875 -5.234375 7.316406 -5.742188 7.015625 -6.078125 C 6.710938 -6.410156 6.28125 -6.578125 5.71875 -6.578125 C 5.082031 -6.578125 4.578125 -6.378906 4.203125 -5.984375 C 3.835938 -5.597656 3.65625 -5.023438 3.65625 -4.265625 L 3.65625 0 L 1.15625 0 L 1.15625 -8.609375 L 3.546875 -8.609375 L 3.546875 -7.609375 C 3.867188 -7.972656 4.273438 -8.253906 4.765625 -8.453125 C 5.265625 -8.648438 5.804688 -8.75 6.390625 -8.75 Z M 6.390625 -8.75 "/></g></g></g><g fill="#18130b" fill-opacity="1"><g transform="translate(353.897423, 37.482377)"><g><path d="M 1.15625 -8.609375 L 3.65625 -8.609375 L 3.65625 0 L 1.15625 0 Z M 2.40625 -9.8125 C 1.9375 -9.8125 1.554688 -9.945312 1.265625 -10.21875 C 0.984375 -10.488281 0.84375 -10.816406 0.84375 -11.203125 C 0.84375 -11.597656 0.984375 -11.929688 1.265625 -12.203125 C 1.554688 -12.472656 1.9375 -12.609375 2.40625 -12.609375 C 2.863281 -12.609375 3.234375 -12.476562 3.515625 -12.21875 C 3.804688 -11.957031 3.953125 -11.640625 3.953125 -11.265625 C 3.953125 -10.847656 3.804688 -10.5 3.515625 -10.21875 C 3.234375 -9.945312 2.863281 -9.8125 2.40625 -9.8125 Z M 2.40625 -9.8125 "/></g></g></g><g fill="#18130b" fill-opacity="1"><g transform="translate(358.717726, 37.482377)"><g><path d="M 9.921875 -11.890625 L 9.921875 0 L 7.546875 0 L 7.546875 -1 C 6.921875 -0.25 6.023438 0.125 4.859375 0.125 C 4.046875 0.125 3.3125 -0.0507812 2.65625 -0.40625 C 2 -0.769531 1.484375 -1.289062 1.109375 -1.96875 C 0.734375 -2.644531 0.546875 -3.425781 0.546875 -4.3125 C 0.546875 -5.195312 0.734375 -5.972656 1.109375 -6.640625 C 1.484375 -7.316406 2 -7.835938 2.65625 -8.203125 C 3.3125 -8.566406 4.046875 -8.75 4.859375 -8.75 C 5.953125 -8.75 6.8125 -8.398438 7.4375 -7.703125 L 7.4375 -11.890625 Z M 5.28125 -1.921875 C 5.914062 -1.921875 6.441406 -2.132812 6.859375 -2.5625 C 7.273438 -3 7.484375 -3.582031 7.484375 -4.3125 C 7.484375 -5.03125 7.273438 -5.601562 6.859375 -6.03125 C 6.441406 -6.46875 5.914062 -6.6875 5.28125 -6.6875 C 4.644531 -6.6875 4.117188 -6.46875 3.703125 -6.03125 C 3.285156 -5.601562 3.078125 -5.03125 3.078125 -4.3125 C 3.078125 -3.582031 3.285156 -3 3.703125 -2.5625 C 4.117188 -2.132812 4.644531 -1.921875 5.28125 -1.921875 Z M 5.28125 -1.921875 "/></g></g></g><g fill="#18130b" fill-opacity="1"><g transform="translate(369.799625, 37.482377)"><g><path d="M 4.625 -8.75 C 5.957031 -8.75 6.984375 -8.429688 7.703125 -7.796875 C 8.421875 -7.160156 8.78125 -6.203125 8.78125 -4.921875 L 8.78125 0 L 6.4375 0 L 6.4375 -1.078125 C 5.96875 -0.273438 5.09375 0.125 3.8125 0.125 C 3.144531 0.125 2.566406 0.015625 2.078125 -0.203125 C 1.597656 -0.429688 1.226562 -0.742188 0.96875 -1.140625 C 0.71875 -1.535156 0.59375 -1.984375 0.59375 -2.484375 C 0.59375 -3.285156 0.894531 -3.914062 1.5 -4.375 C 2.101562 -4.832031 3.035156 -5.0625 4.296875 -5.0625 L 6.28125 -5.0625 C 6.28125 -5.601562 6.113281 -6.019531 5.78125 -6.3125 C 5.445312 -6.613281 4.953125 -6.765625 4.296875 -6.765625 C 3.835938 -6.765625 3.382812 -6.691406 2.9375 -6.546875 C 2.5 -6.398438 2.125 -6.203125 1.8125 -5.953125 L 0.90625 -7.703125 C 1.382812 -8.035156 1.953125 -8.289062 2.609375 -8.46875 C 3.265625 -8.65625 3.9375 -8.75 4.625 -8.75 Z M 4.4375 -1.546875 C 4.863281 -1.546875 5.238281 -1.644531 5.5625 -1.84375 C 5.894531 -2.039062 6.132812 -2.332031 6.28125 -2.71875 L 6.28125 -3.609375 L 4.5625 -3.609375 C 3.539062 -3.609375 3.03125 -3.269531 3.03125 -2.59375 C 3.03125 -2.269531 3.15625 -2.015625 3.40625 -1.828125 C 3.65625 -1.640625 4 -1.546875 4.4375 -1.546875 Z M 4.4375 -1.546875 "/></g></g></g><g fill="#18130b" fill-opacity="1"><g transform="translate(379.680445, 37.482377)"><g><path d="M 9.921875 -11.890625 L 9.921875 0 L 7.546875 0 L 7.546875 -1 C 6.921875 -0.25 6.023438 0.125 4.859375 0.125 C 4.046875 0.125 3.3125 -0.0507812 2.65625 -0.40625 C 2 -0.769531 1.484375 -1.289062 1.109375 -1.96875 C 0.734375 -2.644531 0.546875 -3.425781 0.546875 -4.3125 C 0.546875 -5.195312 0.734375 -5.972656 1.109375 -6.640625 C 1.484375 -7.316406 2 -7.835938 2.65625 -8.203125 C 3.3125 -8.566406 4.046875 -8.75 4.859375 -8.75 C 5.953125 -8.75 6.8125 -8.398438 7.4375 -7.703125 L 7.4375 -11.890625 Z M 5.28125 -1.921875 C 5.914062 -1.921875 6.441406 -2.132812 6.859375 -2.5625 C 7.273438 -3 7.484375 -3.582031 7.484375 -4.3125 C 7.484375 -5.03125 7.273438 -5.601562 6.859375 -6.03125 C 6.441406 -6.46875 5.914062 -6.6875 5.28125 -6.6875 C 4.644531 -6.6875 4.117188 -6.46875 3.703125 -6.03125 C 3.285156 -5.601562 3.078125 -5.03125 3.078125 -4.3125 C 3.078125 -3.582031 3.285156 -3 3.703125 -2.5625 C 4.117188 -2.132812 4.644531 -1.921875 5.28125 -1.921875 Z M 5.28125 -1.921875 "/></g></g></g><g fill="#18130b" fill-opacity="1"><g transform="translate(390.762344, 37.482377)"><g><path d="M 9.59375 -4.28125 C 9.59375 -4.25 9.578125 -4.023438 9.546875 -3.609375 L 3.03125 -3.609375 C 3.144531 -3.066406 3.421875 -2.640625 3.859375 -2.328125 C 4.296875 -2.023438 4.84375 -1.875 5.5 -1.875 C 5.945312 -1.875 6.34375 -1.941406 6.6875 -2.078125 C 7.03125 -2.210938 7.351562 -2.421875 7.65625 -2.703125 L 8.984375 -1.265625 C 8.171875 -0.335938 6.984375 0.125 5.421875 0.125 C 4.453125 0.125 3.59375 -0.0625 2.84375 -0.4375 C 2.101562 -0.820312 1.53125 -1.347656 1.125 -2.015625 C 0.71875 -2.691406 0.515625 -3.457031 0.515625 -4.3125 C 0.515625 -5.15625 0.710938 -5.914062 1.109375 -6.59375 C 1.515625 -7.269531 2.066406 -7.796875 2.765625 -8.171875 C 3.460938 -8.554688 4.242188 -8.75 5.109375 -8.75 C 5.953125 -8.75 6.710938 -8.566406 7.390625 -8.203125 C 8.078125 -7.835938 8.613281 -7.316406 9 -6.640625 C 9.394531 -5.960938 9.59375 -5.175781 9.59375 -4.28125 Z M 5.125 -6.859375 C 4.5625 -6.859375 4.085938 -6.695312 3.703125 -6.375 C 3.316406 -6.050781 3.082031 -5.613281 3 -5.0625 L 7.234375 -5.0625 C 7.148438 -5.601562 6.914062 -6.035156 6.53125 -6.359375 C 6.144531 -6.691406 5.675781 -6.859375 5.125 -6.859375 Z M 5.125 -6.859375 "/></g></g></g><g fill="#18130b" fill-opacity="1"><g transform="translate(400.867373, 37.482377)"><g><path d="M 4.046875 0.125 C 3.335938 0.125 2.640625 0.0351562 1.953125 -0.140625 C 1.265625 -0.316406 0.71875 -0.535156 0.3125 -0.796875 L 1.15625 -2.59375 C 1.539062 -2.34375 2.003906 -2.140625 2.546875 -1.984375 C 3.085938 -1.835938 3.617188 -1.765625 4.140625 -1.765625 C 5.203125 -1.765625 5.734375 -2.023438 5.734375 -2.546875 C 5.734375 -2.796875 5.585938 -2.972656 5.296875 -3.078125 C 5.015625 -3.179688 4.570312 -3.269531 3.96875 -3.34375 C 3.269531 -3.445312 2.6875 -3.566406 2.21875 -3.703125 C 1.757812 -3.847656 1.363281 -4.097656 1.03125 -4.453125 C 0.695312 -4.804688 0.53125 -5.304688 0.53125 -5.953125 C 0.53125 -6.503906 0.6875 -6.988281 1 -7.40625 C 1.3125 -7.832031 1.769531 -8.160156 2.375 -8.390625 C 2.976562 -8.628906 3.691406 -8.75 4.515625 -8.75 C 5.117188 -8.75 5.722656 -8.679688 6.328125 -8.546875 C 6.929688 -8.410156 7.429688 -8.222656 7.828125 -7.984375 L 7 -6.21875 C 6.238281 -6.644531 5.410156 -6.859375 4.515625 -6.859375 C 3.984375 -6.859375 3.582031 -6.78125 3.3125 -6.625 C 3.050781 -6.476562 2.921875 -6.285156 2.921875 -6.046875 C 2.921875 -5.785156 3.0625 -5.597656 3.34375 -5.484375 C 3.632812 -5.378906 4.09375 -5.28125 4.71875 -5.1875 C 5.425781 -5.070312 6.003906 -4.945312 6.453125 -4.8125 C 6.898438 -4.675781 7.289062 -4.429688 7.625 -4.078125 C 7.957031 -3.734375 8.125 -3.242188 8.125 -2.609375 C 8.125 -2.078125 7.960938 -1.601562 7.640625 -1.1875 C 7.316406 -0.769531 6.847656 -0.445312 6.234375 -0.21875 C 5.617188 0.0078125 4.890625 0.125 4.046875 0.125 Z M 4.046875 0.125 "/></g></g></g><g fill="#18130b" fill-opacity="1"><g transform="translate(219.694057, 37.482377)"><g><path d="M 11.609375 -11.203125 L 11.609375 0 L 9.015625 0 L 9.015625 -4.59375 L 3.921875 -4.59375 L 3.921875 0 L 1.328125 0 L 1.328125 -11.203125 L 3.921875 -11.203125 L 3.921875 -6.796875 L 9.015625 -6.796875 L 9.015625 -11.203125 Z M 11.609375 -11.203125 "/></g></g></g><g fill="#18130b" fill-opacity="1"><g transform="translate(232.633618, 37.482377)"><g><path d="M 5.25 0.125 C 4.34375 0.125 3.53125 -0.0625 2.8125 -0.4375 C 2.09375 -0.820312 1.53125 -1.347656 1.125 -2.015625 C 0.71875 -2.691406 0.515625 -3.457031 0.515625 -4.3125 C 0.515625 -5.164062 0.71875 -5.925781 1.125 -6.59375 C 1.53125 -7.269531 2.09375 -7.796875 2.8125 -8.171875 C 3.53125 -8.554688 4.34375 -8.75 5.25 -8.75 C 6.15625 -8.75 6.96875 -8.554688 7.6875 -8.171875 C 8.40625 -7.796875 8.96875 -7.269531 9.375 -6.59375 C 9.78125 -5.925781 9.984375 -5.164062 9.984375 -4.3125 C 9.984375 -3.457031 9.78125 -2.691406 9.375 -2.015625 C 8.96875 -1.347656 8.40625 -0.820312 7.6875 -0.4375 C 6.96875 -0.0625 6.15625 0.125 5.25 0.125 Z M 5.25 -1.921875 C 5.894531 -1.921875 6.421875 -2.132812 6.828125 -2.5625 C 7.242188 -3 7.453125 -3.582031 7.453125 -4.3125 C 7.453125 -5.03125 7.242188 -5.601562 6.828125 -6.03125 C 6.421875 -6.46875 5.894531 -6.6875 5.25 -6.6875 C 4.613281 -6.6875 4.085938 -6.46875 3.671875 -6.03125 C 3.253906 -5.601562 3.046875 -5.03125 3.046875 -4.3125 C 3.046875 -3.582031 3.253906 -3 3.671875 -2.5625 C 4.085938 -2.132812 4.613281 -1.921875 5.25 -1.921875 Z M 5.25 -1.921875 "/></g></g></g><g fill="#18130b" fill-opacity="1"><g transform="translate(243.122985, 37.482377)"><g><path d="M 12.1875 -8.75 C 13.269531 -8.75 14.128906 -8.429688 14.765625 -7.796875 C 15.398438 -7.160156 15.71875 -6.207031 15.71875 -4.9375 L 15.71875 0 L 13.21875 0 L 13.21875 -4.546875 C 13.21875 -5.234375 13.070312 -5.742188 12.78125 -6.078125 C 12.5 -6.410156 12.097656 -6.578125 11.578125 -6.578125 C 10.992188 -6.578125 10.53125 -6.382812 10.1875 -6 C 9.84375 -5.625 9.671875 -5.066406 9.671875 -4.328125 L 9.671875 0 L 7.171875 0 L 7.171875 -4.546875 C 7.171875 -5.898438 6.628906 -6.578125 5.546875 -6.578125 C 4.960938 -6.578125 4.5 -6.382812 4.15625 -6 C 3.820312 -5.625 3.65625 -5.066406 3.65625 -4.328125 L 3.65625 0 L 1.15625 0 L 1.15625 -8.609375 L 3.546875 -8.609375 L 3.546875 -7.625 C 3.859375 -7.988281 4.242188 -8.265625 4.703125 -8.453125 C 5.171875 -8.648438 5.6875 -8.75 6.25 -8.75 C 6.851562 -8.75 7.398438 -8.628906 7.890625 -8.390625 C 8.378906 -8.148438 8.773438 -7.796875 9.078125 -7.328125 C 9.429688 -7.773438 9.878906 -8.125 10.421875 -8.375 C 10.960938 -8.625 11.550781 -8.75 12.1875 -8.75 Z M 12.1875 -8.75 "/></g></g></g><g fill="#18130b" fill-opacity="1"><g transform="translate(259.921984, 37.482377)"><g><path d="M 9.59375 -4.28125 C 9.59375 -4.25 9.578125 -4.023438 9.546875 -3.609375 L 3.03125 -3.609375 C 3.144531 -3.066406 3.421875 -2.640625 3.859375 -2.328125 C 4.296875 -2.023438 4.84375 -1.875 5.5 -1.875 C 5.945312 -1.875 6.34375 -1.941406 6.6875 -2.078125 C 7.03125 -2.210938 7.351562 -2.421875 7.65625 -2.703125 L 8.984375 -1.265625 C 8.171875 -0.335938 6.984375 0.125 5.421875 0.125 C 4.453125 0.125 3.59375 -0.0625 2.84375 -0.4375 C 2.101562 -0.820312 1.53125 -1.347656 1.125 -2.015625 C 0.71875 -2.691406 0.515625 -3.457031 0.515625 -4.3125 C 0.515625 -5.15625 0.710938 -5.914062 1.109375 -6.59375 C 1.515625 -7.269531 2.066406 -7.796875 2.765625 -8.171875 C 3.460938 -8.554688 4.242188 -8.75 5.109375 -8.75 C 5.953125 -8.75 6.710938 -8.566406 7.390625 -8.203125 C 8.078125 -7.835938 8.613281 -7.316406 9 -6.640625 C 9.394531 -5.960938 9.59375 -5.175781 9.59375 -4.28125 Z M 5.125 -6.859375 C 4.5625 -6.859375 4.085938 -6.695312 3.703125 -6.375 C 3.316406 -6.050781 3.082031 -5.613281 3 -5.0625 L 7.234375 -5.0625 C 7.148438 -5.601562 6.914062 -6.035156 6.53125 -6.359375 C 6.144531 -6.691406 5.675781 -6.859375 5.125 -6.859375 Z M 5.125 -6.859375 "/></g></g></g><g fill="#18130b" fill-opacity="1"><g transform="translate(420.885143, 37.482377)"><g><path d="M 3.921875 -9.125 L 3.921875 -6.171875 L 9.109375 -6.171875 L 9.109375 -4.078125 L 3.921875 -4.078125 L 3.921875 0 L 1.328125 0 L 1.328125 -11.203125 L 9.796875 -11.203125 L 9.796875 -9.125 Z M 3.921875 -9.125 "/></g></g></g><g fill="#18130b" fill-opacity="1"><g transform="translate(431.118281, 37.482377)"><g><path d="M 5.25 0.125 C 4.34375 0.125 3.53125 -0.0625 2.8125 -0.4375 C 2.09375 -0.820312 1.53125 -1.347656 1.125 -2.015625 C 0.71875 -2.691406 0.515625 -3.457031 0.515625 -4.3125 C 0.515625 -5.164062 0.71875 -5.925781 1.125 -6.59375 C 1.53125 -7.269531 2.09375 -7.796875 2.8125 -8.171875 C 3.53125 -8.554688 4.34375 -8.75 5.25 -8.75 C 6.15625 -8.75 6.96875 -8.554688 7.6875 -8.171875 C 8.40625 -7.796875 8.96875 -7.269531 9.375 -6.59375 C 9.78125 -5.925781 9.984375 -5.164062 9.984375 -4.3125 C 9.984375 -3.457031 9.78125 -2.691406 9.375 -2.015625 C 8.96875 -1.347656 8.40625 -0.820312 7.6875 -0.4375 C 6.96875 -0.0625 6.15625 0.125 5.25 0.125 Z M 5.25 -1.921875 C 5.894531 -1.921875 6.421875 -2.132812 6.828125 -2.5625 C 7.242188 -3 7.453125 -3.582031 7.453125 -4.3125 C 7.453125 -5.03125 7.242188 -5.601562 6.828125 -6.03125 C 6.421875 -6.46875 5.894531 -6.6875 5.25 -6.6875 C 4.613281 -6.6875 4.085938 -6.46875 3.671875 -6.03125 C 3.253906 -5.601562 3.046875 -5.03125 3.046875 -4.3125 C 3.046875 -3.582031 3.253906 -3 3.671875 -2.5625 C 4.085938 -2.132812 4.613281 -1.921875 5.25 -1.921875 Z M 5.9375 -12.03125 L 8.625 -12.03125 L 5.71875 -9.71875 L 3.765625 -9.71875 Z M 5.9375 -12.03125 "/></g></g></g><g fill="#18130b" fill-opacity="1"><g transform="translate(441.607649, 37.482377)"><g><path d="M 3.546875 -7.484375 C 3.835938 -7.898438 4.238281 -8.210938 4.75 -8.421875 C 5.257812 -8.640625 5.84375 -8.75 6.5 -8.75 L 6.5 -6.4375 C 6.21875 -6.457031 6.03125 -6.46875 5.9375 -6.46875 C 5.226562 -6.46875 4.671875 -6.265625 4.265625 -5.859375 C 3.859375 -5.460938 3.65625 -4.863281 3.65625 -4.0625 L 3.65625 0 L 1.15625 0 L 1.15625 -8.609375 L 3.546875 -8.609375 Z M 3.546875 -7.484375 "/></g></g></g><g fill="#18130b" fill-opacity="1"><g transform="translate(448.509812, 37.482377)"><g><path d="M 9.828125 -8.609375 L 9.828125 0 L 7.46875 0 L 7.46875 -1.03125 C 7.132812 -0.65625 6.738281 -0.367188 6.28125 -0.171875 C 5.820312 0.0234375 5.320312 0.125 4.78125 0.125 C 3.65625 0.125 2.757812 -0.195312 2.09375 -0.84375 C 1.4375 -1.5 1.109375 -2.46875 1.109375 -3.75 L 1.109375 -8.609375 L 3.609375 -8.609375 L 3.609375 -4.109375 C 3.609375 -2.722656 4.1875 -2.03125 5.34375 -2.03125 C 5.945312 -2.03125 6.425781 -2.222656 6.78125 -2.609375 C 7.144531 -3.003906 7.328125 -3.585938 7.328125 -4.359375 L 7.328125 -8.609375 Z M 9.828125 -8.609375 "/></g></g></g><g fill="#18130b" fill-opacity="1"><g transform="translate(459.511637, 37.482377)"><g><path d="M 12.1875 -8.75 C 13.269531 -8.75 14.128906 -8.429688 14.765625 -7.796875 C 15.398438 -7.160156 15.71875 -6.207031 15.71875 -4.9375 L 15.71875 0 L 13.21875 0 L 13.21875 -4.546875 C 13.21875 -5.234375 13.070312 -5.742188 12.78125 -6.078125 C 12.5 -6.410156 12.097656 -6.578125 11.578125 -6.578125 C 10.992188 -6.578125 10.53125 -6.382812 10.1875 -6 C 9.84375 -5.625 9.671875 -5.066406 9.671875 -4.328125 L 9.671875 0 L 7.171875 0 L 7.171875 -4.546875 C 7.171875 -5.898438 6.628906 -6.578125 5.546875 -6.578125 C 4.960938 -6.578125 4.5 -6.382812 4.15625 -6 C 3.820312 -5.625 3.65625 -5.066406 3.65625 -4.328125 L 3.65625 0 L 1.15625 0 L 1.15625 -8.609375 L 3.546875 -8.609375 L 3.546875 -7.625 C 3.859375 -7.988281 4.242188 -8.265625 4.703125 -8.453125 C 5.171875 -8.648438 5.6875 -8.75 6.25 -8.75 C 6.851562 -8.75 7.398438 -8.628906 7.890625 -8.390625 C 8.378906 -8.148438 8.773438 -7.796875 9.078125 -7.328125 C 9.429688 -7.773438 9.878906 -8.125 10.421875 -8.375 C 10.960938 -8.625 11.550781 -8.75 12.1875 -8.75 Z M 12.1875 -8.75 "/></g></g></g><g fill="#18130b" fill-opacity="1"><g transform="translate(534.454099, 37.482377)"><g><path d="M 5.015625 0.1875 C 4.128906 0.1875 3.269531 0.0664062 2.4375 -0.171875 C 1.613281 -0.410156 0.953125 -0.722656 0.453125 -1.109375 L 1.328125 -3.0625 C 1.804688 -2.707031 2.375 -2.421875 3.03125 -2.203125 C 3.695312 -1.992188 4.363281 -1.890625 5.03125 -1.890625 C 5.769531 -1.890625 6.3125 -2 6.65625 -2.21875 C 7.007812 -2.4375 7.1875 -2.726562 7.1875 -3.09375 C 7.1875 -3.351562 7.082031 -3.570312 6.875 -3.75 C 6.664062 -3.925781 6.398438 -4.066406 6.078125 -4.171875 C 5.753906 -4.285156 5.3125 -4.40625 4.75 -4.53125 C 3.894531 -4.738281 3.195312 -4.941406 2.65625 -5.140625 C 2.113281 -5.335938 1.644531 -5.660156 1.25 -6.109375 C 0.863281 -6.566406 0.671875 -7.164062 0.671875 -7.90625 C 0.671875 -8.5625 0.847656 -9.148438 1.203125 -9.671875 C 1.554688 -10.203125 2.085938 -10.625 2.796875 -10.9375 C 3.503906 -11.25 4.367188 -11.40625 5.390625 -11.40625 C 6.109375 -11.40625 6.804688 -11.316406 7.484375 -11.140625 C 8.171875 -10.972656 8.769531 -10.726562 9.28125 -10.40625 L 8.484375 -8.4375 C 7.453125 -9.03125 6.414062 -9.328125 5.375 -9.328125 C 4.65625 -9.328125 4.117188 -9.207031 3.765625 -8.96875 C 3.421875 -8.726562 3.25 -8.421875 3.25 -8.046875 C 3.25 -7.660156 3.445312 -7.375 3.84375 -7.1875 C 4.25 -7 4.863281 -6.8125 5.6875 -6.625 C 6.539062 -6.425781 7.238281 -6.222656 7.78125 -6.015625 C 8.320312 -5.816406 8.785156 -5.5 9.171875 -5.0625 C 9.566406 -4.625 9.765625 -4.03125 9.765625 -3.28125 C 9.765625 -2.644531 9.585938 -2.0625 9.234375 -1.53125 C 8.878906 -1 8.34375 -0.578125 7.625 -0.265625 C 6.90625 0.0351562 6.035156 0.1875 5.015625 0.1875 Z M 5.015625 0.1875 "/></g></g></g><g fill="#18130b" fill-opacity="1"><g transform="translate(544.671223, 37.482377)"><g><path d="M 5.25 0.125 C 4.34375 0.125 3.53125 -0.0625 2.8125 -0.4375 C 2.09375 -0.820312 1.53125 -1.347656 1.125 -2.015625 C 0.71875 -2.691406 0.515625 -3.457031 0.515625 -4.3125 C 0.515625 -5.164062 0.71875 -5.925781 1.125 -6.59375 C 1.53125 -7.269531 2.09375 -7.796875 2.8125 -8.171875 C 3.53125 -8.554688 4.34375 -8.75 5.25 -8.75 C 6.15625 -8.75 6.96875 -8.554688 7.6875 -8.171875 C 8.40625 -7.796875 8.96875 -7.269531 9.375 -6.59375 C 9.78125 -5.925781 9.984375 -5.164062 9.984375 -4.3125 C 9.984375 -3.457031 9.78125 -2.691406 9.375 -2.015625 C 8.96875 -1.347656 8.40625 -0.820312 7.6875 -0.4375 C 6.96875 -0.0625 6.15625 0.125 5.25 0.125 Z M 5.25 -1.921875 C 5.894531 -1.921875 6.421875 -2.132812 6.828125 -2.5625 C 7.242188 -3 7.453125 -3.582031 7.453125 -4.3125 C 7.453125 -5.03125 7.242188 -5.601562 6.828125 -6.03125 C 6.421875 -6.46875 5.894531 -6.6875 5.25 -6.6875 C 4.613281 -6.6875 4.085938 -6.46875 3.671875 -6.03125 C 3.253906 -5.601562 3.046875 -5.03125 3.046875 -4.3125 C 3.046875 -3.582031 3.253906 -3 3.671875 -2.5625 C 4.085938 -2.132812 4.613281 -1.921875 5.25 -1.921875 Z M 5.25 -1.921875 "/></g></g></g><g fill="#18130b" fill-opacity="1"><g transform="translate(555.16059, 37.482377)"><g><path d="M 6.25 -8.75 C 7.050781 -8.75 7.78125 -8.5625 8.4375 -8.1875 C 9.09375 -7.820312 9.601562 -7.304688 9.96875 -6.640625 C 10.34375 -5.972656 10.53125 -5.195312 10.53125 -4.3125 C 10.53125 -3.425781 10.34375 -2.648438 9.96875 -1.984375 C 9.601562 -1.316406 9.09375 -0.796875 8.4375 -0.421875 C 7.78125 -0.0546875 7.050781 0.125 6.25 0.125 C 5.0625 0.125 4.160156 -0.25 3.546875 -1 L 3.546875 0 L 1.15625 0 L 1.15625 -11.890625 L 3.65625 -11.890625 L 3.65625 -7.703125 C 4.28125 -8.398438 5.144531 -8.75 6.25 -8.75 Z M 5.8125 -1.921875 C 6.457031 -1.921875 6.984375 -2.132812 7.390625 -2.5625 C 7.796875 -3 8 -3.582031 8 -4.3125 C 8 -5.03125 7.796875 -5.601562 7.390625 -6.03125 C 6.984375 -6.46875 6.457031 -6.6875 5.8125 -6.6875 C 5.175781 -6.6875 4.648438 -6.46875 4.234375 -6.03125 C 3.828125 -5.601562 3.625 -5.03125 3.625 -4.3125 C 3.625 -3.582031 3.828125 -3 4.234375 -2.5625 C 4.648438 -2.132812 5.175781 -1.921875 5.8125 -1.921875 Z M 5.8125 -1.921875 "/></g></g></g><g fill="#18130b" fill-opacity="1"><g transform="translate(566.21046, 37.482377)"><g><path d="M 3.546875 -7.484375 C 3.835938 -7.898438 4.238281 -8.210938 4.75 -8.421875 C 5.257812 -8.640625 5.84375 -8.75 6.5 -8.75 L 6.5 -6.4375 C 6.21875 -6.457031 6.03125 -6.46875 5.9375 -6.46875 C 5.226562 -6.46875 4.671875 -6.265625 4.265625 -5.859375 C 3.859375 -5.460938 3.65625 -4.863281 3.65625 -4.0625 L 3.65625 0 L 1.15625 0 L 1.15625 -8.609375 L 3.546875 -8.609375 Z M 3.546875 -7.484375 "/></g></g></g><g fill="#18130b" fill-opacity="1"><g transform="translate(573.112623, 37.482377)"><g><path d="M 9.59375 -4.28125 C 9.59375 -4.25 9.578125 -4.023438 9.546875 -3.609375 L 3.03125 -3.609375 C 3.144531 -3.066406 3.421875 -2.640625 3.859375 -2.328125 C 4.296875 -2.023438 4.84375 -1.875 5.5 -1.875 C 5.945312 -1.875 6.34375 -1.941406 6.6875 -2.078125 C 7.03125 -2.210938 7.351562 -2.421875 7.65625 -2.703125 L 8.984375 -1.265625 C 8.171875 -0.335938 6.984375 0.125 5.421875 0.125 C 4.453125 0.125 3.59375 -0.0625 2.84375 -0.4375 C 2.101562 -0.820312 1.53125 -1.347656 1.125 -2.015625 C 0.71875 -2.691406 0.515625 -3.457031 0.515625 -4.3125 C 0.515625 -5.15625 0.710938 -5.914062 1.109375 -6.59375 C 1.515625 -7.269531 2.066406 -7.796875 2.765625 -8.171875 C 3.460938 -8.554688 4.242188 -8.75 5.109375 -8.75 C 5.953125 -8.75 6.710938 -8.566406 7.390625 -8.203125 C 8.078125 -7.835938 8.613281 -7.316406 9 -6.640625 C 9.394531 -5.960938 9.59375 -5.175781 9.59375 -4.28125 Z M 5.125 -6.859375 C 4.5625 -6.859375 4.085938 -6.695312 3.703125 -6.375 C 3.316406 -6.050781 3.082031 -5.613281 3 -5.0625 L 7.234375 -5.0625 C 7.148438 -5.601562 6.914062 -6.035156 6.53125 -6.359375 C 6.144531 -6.691406 5.675781 -6.859375 5.125 -6.859375 Z M 5.125 -6.859375 "/></g></g></g><g fill="#18130b" fill-opacity="1"><g transform="translate(583.217652, 37.482377)"><g/></g></g><g fill="#18130b" fill-opacity="1"><g transform="translate(587.749696, 37.482377)"><g><path d="M 11.609375 -11.203125 L 11.609375 0 L 9.484375 0 L 3.890625 -6.8125 L 3.890625 0 L 1.328125 0 L 1.328125 -11.203125 L 3.46875 -11.203125 L 9.046875 -4.40625 L 9.046875 -11.203125 Z M 11.609375 -11.203125 "/></g></g></g><g fill="#18130b" fill-opacity="1"><g transform="translate(600.689257, 37.482377)"><g><path d="M 5.25 0.125 C 4.34375 0.125 3.53125 -0.0625 2.8125 -0.4375 C 2.09375 -0.820312 1.53125 -1.347656 1.125 -2.015625 C 0.71875 -2.691406 0.515625 -3.457031 0.515625 -4.3125 C 0.515625 -5.164062 0.71875 -5.925781 1.125 -6.59375 C 1.53125 -7.269531 2.09375 -7.796875 2.8125 -8.171875 C 3.53125 -8.554688 4.34375 -8.75 5.25 -8.75 C 6.15625 -8.75 6.96875 -8.554688 7.6875 -8.171875 C 8.40625 -7.796875 8.96875 -7.269531 9.375 -6.59375 C 9.78125 -5.925781 9.984375 -5.164062 9.984375 -4.3125 C 9.984375 -3.457031 9.78125 -2.691406 9.375 -2.015625 C 8.96875 -1.347656 8.40625 -0.820312 7.6875 -0.4375 C 6.96875 -0.0625 6.15625 0.125 5.25 0.125 Z M 5.25 -1.921875 C 5.894531 -1.921875 6.421875 -2.132812 6.828125 -2.5625 C 7.242188 -3 7.453125 -3.582031 7.453125 -4.3125 C 7.453125 -5.03125 7.242188 -5.601562 6.828125 -6.03125 C 6.421875 -6.46875 5.894531 -6.6875 5.25 -6.6875 C 4.613281 -6.6875 4.085938 -6.46875 3.671875 -6.03125 C 3.253906 -5.601562 3.046875 -5.03125 3.046875 -4.3125 C 3.046875 -3.582031 3.253906 -3 3.671875 -2.5625 C 4.085938 -2.132812 4.613281 -1.921875 5.25 -1.921875 Z M 5.9375 -12.03125 L 8.625 -12.03125 L 5.71875 -9.71875 L 3.765625 -9.71875 Z M 5.9375 -12.03125 "/></g></g></g><g fill="#18130b" fill-opacity="1"><g transform="translate(611.178624, 37.482377)"><g><path d="M 4.046875 0.125 C 3.335938 0.125 2.640625 0.0351562 1.953125 -0.140625 C 1.265625 -0.316406 0.71875 -0.535156 0.3125 -0.796875 L 1.15625 -2.59375 C 1.539062 -2.34375 2.003906 -2.140625 2.546875 -1.984375 C 3.085938 -1.835938 3.617188 -1.765625 4.140625 -1.765625 C 5.203125 -1.765625 5.734375 -2.023438 5.734375 -2.546875 C 5.734375 -2.796875 5.585938 -2.972656 5.296875 -3.078125 C 5.015625 -3.179688 4.570312 -3.269531 3.96875 -3.34375 C 3.269531 -3.445312 2.6875 -3.566406 2.21875 -3.703125 C 1.757812 -3.847656 1.363281 -4.097656 1.03125 -4.453125 C 0.695312 -4.804688 0.53125 -5.304688 0.53125 -5.953125 C 0.53125 -6.503906 0.6875 -6.988281 1 -7.40625 C 1.3125 -7.832031 1.769531 -8.160156 2.375 -8.390625 C 2.976562 -8.628906 3.691406 -8.75 4.515625 -8.75 C 5.117188 -8.75 5.722656 -8.679688 6.328125 -8.546875 C 6.929688 -8.410156 7.429688 -8.222656 7.828125 -7.984375 L 7 -6.21875 C 6.238281 -6.644531 5.410156 -6.859375 4.515625 -6.859375 C 3.984375 -6.859375 3.582031 -6.78125 3.3125 -6.625 C 3.050781 -6.476562 2.921875 -6.285156 2.921875 -6.046875 C 2.921875 -5.785156 3.0625 -5.597656 3.34375 -5.484375 C 3.632812 -5.378906 4.09375 -5.28125 4.71875 -5.1875 C 5.425781 -5.070312 6.003906 -4.945312 6.453125 -4.8125 C 6.898438 -4.675781 7.289062 -4.429688 7.625 -4.078125 C 7.957031 -3.734375 8.125 -3.242188 8.125 -2.609375 C 8.125 -2.078125 7.960938 -1.601562 7.640625 -1.1875 C 7.316406 -0.769531 6.847656 -0.445312 6.234375 -0.21875 C 5.617188 0.0078125 4.890625 0.125 4.046875 0.125 Z M 4.046875 0.125 "/></g></g></g><g fill="#18130b" fill-opacity="1"><g transform="translate(485.948176, 37.482377)"><g><path d="M 9.5625 -5.828125 C 10.195312 -5.628906 10.695312 -5.289062 11.0625 -4.8125 C 11.425781 -4.332031 11.609375 -3.75 11.609375 -3.0625 C 11.609375 -2.070312 11.226562 -1.3125 10.46875 -0.78125 C 9.707031 -0.257812 8.59375 0 7.125 0 L 1.328125 0 L 1.328125 -11.203125 L 6.8125 -11.203125 C 8.175781 -11.203125 9.222656 -10.941406 9.953125 -10.421875 C 10.679688 -9.898438 11.046875 -9.191406 11.046875 -8.296875 C 11.046875 -7.753906 10.914062 -7.269531 10.65625 -6.84375 C 10.394531 -6.414062 10.03125 -6.078125 9.5625 -5.828125 Z M 3.90625 -9.25 L 3.90625 -6.609375 L 6.484375 -6.609375 C 7.128906 -6.609375 7.613281 -6.71875 7.9375 -6.9375 C 8.269531 -7.164062 8.4375 -7.5 8.4375 -7.9375 C 8.4375 -8.375 8.269531 -8.703125 7.9375 -8.921875 C 7.613281 -9.140625 7.128906 -9.25 6.484375 -9.25 Z M 6.9375 -1.953125 C 7.613281 -1.953125 8.125 -2.0625 8.46875 -2.28125 C 8.820312 -2.507812 9 -2.859375 9 -3.328125 C 9 -4.253906 8.3125 -4.71875 6.9375 -4.71875 L 3.90625 -4.71875 L 3.90625 -1.953125 Z M 6.9375 -1.953125 "/></g></g></g><g fill="#18130b" fill-opacity="1"><g transform="translate(498.199115, 37.482377)"><g><path d="M 1.15625 -11.890625 L 3.65625 -11.890625 L 3.65625 0 L 1.15625 0 Z M 1.15625 -11.890625 "/></g></g></g><g fill="#18130b" fill-opacity="1"><g transform="translate(503.019418, 37.482377)"><g><path d="M 5.25 0.125 C 4.34375 0.125 3.53125 -0.0625 2.8125 -0.4375 C 2.09375 -0.820312 1.53125 -1.347656 1.125 -2.015625 C 0.71875 -2.691406 0.515625 -3.457031 0.515625 -4.3125 C 0.515625 -5.164062 0.71875 -5.925781 1.125 -6.59375 C 1.53125 -7.269531 2.09375 -7.796875 2.8125 -8.171875 C 3.53125 -8.554688 4.34375 -8.75 5.25 -8.75 C 6.15625 -8.75 6.96875 -8.554688 7.6875 -8.171875 C 8.40625 -7.796875 8.96875 -7.269531 9.375 -6.59375 C 9.78125 -5.925781 9.984375 -5.164062 9.984375 -4.3125 C 9.984375 -3.457031 9.78125 -2.691406 9.375 -2.015625 C 8.96875 -1.347656 8.40625 -0.820312 7.6875 -0.4375 C 6.96875 -0.0625 6.15625 0.125 5.25 0.125 Z M 5.25 -1.921875 C 5.894531 -1.921875 6.421875 -2.132812 6.828125 -2.5625 C 7.242188 -3 7.453125 -3.582031 7.453125 -4.3125 C 7.453125 -5.03125 7.242188 -5.601562 6.828125 -6.03125 C 6.421875 -6.46875 5.894531 -6.6875 5.25 -6.6875 C 4.613281 -6.6875 4.085938 -6.46875 3.671875 -6.03125 C 3.253906 -5.601562 3.046875 -5.03125 3.046875 -4.3125 C 3.046875 -3.582031 3.253906 -3 3.671875 -2.5625 C 4.085938 -2.132812 4.613281 -1.921875 5.25 -1.921875 Z M 5.25 -1.921875 "/></g></g></g><g fill="#18130b" fill-opacity="1"><g transform="translate(513.508786, 37.482377)"><g><path d="M 10.046875 -8.609375 L 10.046875 -1.4375 C 10.046875 0.132812 9.632812 1.304688 8.8125 2.078125 C 7.988281 2.847656 6.785156 3.234375 5.203125 3.234375 C 4.367188 3.234375 3.578125 3.128906 2.828125 2.921875 C 2.085938 2.722656 1.472656 2.429688 0.984375 2.046875 L 1.96875 0.25 C 2.332031 0.550781 2.789062 0.789062 3.34375 0.96875 C 3.90625 1.144531 4.460938 1.234375 5.015625 1.234375 C 5.878906 1.234375 6.515625 1.035156 6.921875 0.640625 C 7.335938 0.253906 7.546875 -0.332031 7.546875 -1.125 L 7.546875 -1.484375 C 6.890625 -0.773438 5.984375 -0.421875 4.828125 -0.421875 C 4.035156 -0.421875 3.3125 -0.59375 2.65625 -0.9375 C 2 -1.28125 1.476562 -1.765625 1.09375 -2.390625 C 0.707031 -3.023438 0.515625 -3.753906 0.515625 -4.578125 C 0.515625 -5.398438 0.707031 -6.125 1.09375 -6.75 C 1.476562 -7.382812 2 -7.875 2.65625 -8.21875 C 3.3125 -8.570312 4.035156 -8.75 4.828125 -8.75 C 6.066406 -8.75 7.015625 -8.335938 7.671875 -7.515625 L 7.671875 -8.609375 Z M 5.3125 -2.46875 C 5.976562 -2.46875 6.519531 -2.660156 6.9375 -3.046875 C 7.363281 -3.441406 7.578125 -3.953125 7.578125 -4.578125 C 7.578125 -5.210938 7.363281 -5.722656 6.9375 -6.109375 C 6.519531 -6.492188 5.976562 -6.6875 5.3125 -6.6875 C 4.65625 -6.6875 4.113281 -6.492188 3.6875 -6.109375 C 3.257812 -5.722656 3.046875 -5.210938 3.046875 -4.578125 C 3.046875 -3.953125 3.257812 -3.441406 3.6875 -3.046875 C 4.113281 -2.660156 4.65625 -2.46875 5.3125 -2.46875 Z M 5.3125 -2.46875 "/></g></g></g></svg>