<svg xmlns="http://www.w3.org/2000/svg" xmlns:xlink="http://www.w3.org/1999/xlink" width="500" zoomAndPan="magnify" viewBox="0 0 375 374.999991" height="500" preserveAspectRatio="xMidYMid meet" version="1.0"><defs><clipPath id="bf78418f8f"><path d="M 25 245 L 351 245 L 351 369.75 L 25 369.75 Z M 25 245 " clip-rule="nonzero"/></clipPath></defs><rect x="-37.5" width="450" fill="#ffffff" y="-37.499999" height="449.999989" fill-opacity="1"/><rect x="-37.5" width="450" fill="#ffffff" y="-37.499999" height="449.999989" fill-opacity="1"/><rect x="-37.5" width="450" fill="#fffcf8" y="-37.499999" height="449.999989" fill-opacity="1"/><path stroke-linecap="round" transform="matrix(0.9495, 0, 0, 0.9495, -49.714082, -5.25)" fill="none" stroke-linejoin="round" d="M 354.001309 132.100778 C 354.001309 133.803977 353.960169 135.503063 353.873775 137.202148 C 353.791495 138.901233 353.668075 140.600318 353.4994 142.295289 C 353.330726 143.986146 353.125026 145.677003 352.874071 147.359632 C 352.623117 149.042261 352.335136 150.720776 352.001902 152.391063 C 351.668667 154.057236 351.298406 155.719295 350.882892 157.369012 C 350.471491 159.022843 350.014836 160.660218 349.521155 162.289365 C 349.027474 163.918512 348.492653 165.535317 347.920806 167.135666 C 347.348959 168.740129 346.735972 170.328135 346.081845 171.899686 C 345.431832 173.471237 344.740679 175.026332 344.016613 176.564971 C 343.288434 178.103609 342.523229 179.625792 341.720997 181.123291 C 340.918766 182.624904 340.079508 184.105946 339.203225 185.566419 C 338.326941 187.026892 337.417745 188.46268 336.471524 189.877899 C 335.525302 191.293117 334.546168 192.683652 333.534122 194.053616 C 332.517962 195.419467 331.473005 196.760633 330.395135 198.077116 C 329.313151 199.393598 328.202369 200.681282 327.058675 201.940169 C 325.914981 203.203169 324.742488 204.437371 323.537084 205.638661 C 322.335794 206.844065 321.101592 208.016558 319.842706 209.160252 C 318.579705 210.303946 317.292021 211.414728 315.975539 212.492598 C 314.66317 213.574582 313.31789 214.619539 311.952039 215.631585 C 310.586189 216.647745 309.195654 217.626879 307.780436 218.573101 C 306.365217 219.519322 304.925315 220.428518 303.464842 221.304802 C 302.008483 222.176971 300.527441 223.016229 299.025828 223.81846 C 297.524215 224.620692 296.006146 225.385897 294.467508 226.114076 C 292.928869 226.842256 291.36966 227.533409 289.798109 228.183422 C 288.226558 228.833435 286.638552 229.446422 285.038203 230.022383 C 283.43374 230.59423 281.816935 231.129051 280.187788 231.622732 C 278.562755 232.116413 276.921266 232.568954 275.271549 232.984469 C 273.617718 233.395869 271.959773 233.770244 270.289486 234.103479 C 268.619199 234.432599 266.944798 234.724694 265.258055 234.975648 C 263.575426 235.222489 261.888683 235.432303 260.193712 235.600977 C 258.498741 235.765538 256.80377 235.893072 255.104685 235.975352 C 253.401485 236.057632 251.7024 236.098772 249.999201 236.098772 C 248.296002 236.098772 246.596917 236.057632 244.897832 235.975352 C 243.198747 235.893072 241.499662 235.765538 239.804691 235.600977 C 238.113834 235.432303 236.422977 235.222489 234.740348 234.975648 C 233.057719 234.724694 231.379204 234.432599 229.708917 234.103479 C 228.042744 233.770244 226.380685 233.395869 224.730968 232.984469 C 223.077137 232.568954 221.439762 232.116413 219.810615 231.622732 C 218.181468 231.129051 216.564663 230.59423 214.964314 230.022383 C 213.359851 229.446422 211.771844 228.833435 210.200293 228.183422 C 208.628743 227.533409 207.073648 226.842256 205.535009 226.114076 C 203.99637 225.385897 202.474187 224.620692 200.976689 223.81846 C 199.475076 223.016229 197.994033 222.176971 196.533561 221.304802 C 195.073088 220.428518 193.637299 219.519322 192.222081 218.573101 C 190.806862 217.626879 189.416328 216.647745 188.046363 215.631585 C 186.680513 214.619539 185.339346 213.574582 184.022864 212.492598 C 182.706382 211.414728 181.418697 210.303946 180.159811 209.160252 C 178.896811 208.016558 177.662609 206.844065 176.461318 205.638661 C 175.255914 204.437371 174.083422 203.203169 172.939728 201.940169 C 171.796034 200.681282 170.685252 199.393598 169.607382 198.077116 C 168.525398 196.760633 167.48044 195.419467 166.468394 194.053616 C 165.452235 192.683652 164.473101 191.293117 163.526879 189.877899 C 162.580657 188.46268 161.671462 187.026892 160.795178 185.566419 C 159.923009 184.105946 159.083751 182.624904 158.28152 181.123291 C 157.479288 179.625792 156.714083 178.103609 155.985903 176.564971 C 155.257724 175.026332 154.566571 173.471237 153.916558 171.899686 C 153.266545 170.328135 152.653557 168.740129 152.077596 167.135666 C 151.505749 165.535317 150.970928 163.918512 150.477247 162.289365 C 149.983567 160.660218 149.531026 159.022843 149.115511 157.369012 C 148.70411 155.719295 148.329736 154.057236 147.996501 152.391063 C 147.66738 150.720776 147.375286 149.042261 147.124331 147.359632 C 146.877491 145.677003 146.667677 143.986146 146.499002 142.295289 C 146.334442 140.600318 146.206908 138.901233 146.124628 137.202148 C 146.042347 135.503063 146.001207 133.803977 146.001207 132.100778 C 146.001207 130.397579 146.042347 128.698494 146.124628 126.995295 C 146.206908 125.29621 146.334442 123.601239 146.499002 121.906268 C 146.667677 120.211297 146.877491 118.524554 147.124331 116.841925 C 147.375286 115.155182 147.66738 113.480781 147.996501 111.810494 C 148.329736 110.140207 148.70411 108.482262 149.115511 106.828431 C 149.531026 105.178714 149.983567 103.537225 150.477247 101.912192 C 150.970928 100.283045 151.505749 98.66624 152.077596 97.061777 C 152.653557 95.461428 153.266545 93.873421 153.916558 92.30187 C 154.566571 90.73032 155.257724 89.171111 155.985903 87.632472 C 156.714083 86.093833 157.479288 84.575764 158.28152 83.074152 C 159.083751 81.572539 159.923009 80.091496 160.795178 78.635138 C 161.671462 77.174665 162.580657 75.734762 163.526879 74.319544 C 164.473101 72.904325 165.452235 71.513791 166.468394 70.14794 C 167.48044 68.78209 168.525398 67.43681 169.607382 66.124441 C 170.685252 64.807959 171.796034 63.520274 172.939728 62.257274 C 174.083422 60.998388 175.255914 59.764186 176.461318 58.562895 C 177.662609 57.357491 178.896811 56.184999 180.159811 55.041305 C 181.418697 53.897611 182.706382 52.786829 184.022864 51.708959 C 185.339346 50.626975 186.680513 49.582017 188.046363 48.565857 C 189.416328 47.553812 190.806862 46.574678 192.222081 45.628456 C 193.637299 44.682234 195.073088 43.773039 196.533561 42.896755 C 197.994033 42.020472 199.475076 41.181214 200.976689 40.378983 C 202.474187 39.576751 203.99637 38.811546 205.535009 38.083366 C 207.073648 37.359301 208.628743 36.668148 210.200293 36.018135 C 211.771844 35.364008 213.359851 34.75102 214.964314 34.179173 C 216.564663 33.607326 218.181468 33.072505 219.810615 32.578825 C 221.439762 32.085144 223.077137 31.628489 224.730968 31.217088 C 226.380685 30.801573 228.042744 30.431313 229.708917 30.098078 C 231.379204 29.764843 233.057719 29.476863 234.740348 29.225908 C 236.422977 28.974954 238.113834 28.769254 239.804691 28.600579 C 241.499662 28.436019 243.198747 28.308485 244.897832 28.226205 C 246.596917 28.13981 248.296002 28.09867 249.999201 28.09867 C 251.7024 28.09867 253.401485 28.13981 255.104685 28.226205 C 256.80377 28.308485 258.498741 28.436019 260.193712 28.600579 C 261.888683 28.769254 263.575426 28.974954 265.258055 29.225908 C 266.944798 29.476863 268.619199 29.764843 270.289486 30.098078 C 271.959773 30.431313 273.617718 30.801573 275.271549 31.217088 C 276.921266 31.628489 278.562755 32.085144 280.187788 32.578825 C 281.816935 33.072505 283.43374 33.607326 285.038203 34.179173 C 286.638552 34.75102 288.226558 35.364008 289.798109 36.018135 C 291.36966 36.668148 292.928869 37.359301 294.467508 38.083366 C 296.006146 38.811546 297.524215 39.576751 299.025828 40.378983 C 300.527441 41.181214 302.008483 42.020472 303.464842 42.896755 C 304.925315 43.773039 306.365217 44.682234 307.780436 45.628456 C 309.195654 46.574678 310.586189 47.553812 311.952039 48.565857 C 313.31789 49.582017 314.66317 50.626975 315.975539 51.708959 C 317.292021 52.786829 318.579705 53.897611 319.842706 55.041305 C 321.101592 56.184999 322.335794 57.357491 323.537084 58.562895 C 324.742488 59.764186 325.914981 60.998388 327.058675 62.257274 C 328.202369 63.520274 329.313151 64.807959 330.395135 66.124441 C 331.473005 67.43681 332.517962 68.78209 333.534122 70.14794 C 334.546168 71.513791 335.525302 72.904325 336.471524 74.319544 C 337.417745 75.734762 338.326941 77.174665 339.203225 78.635138 C 340.079508 80.091496 340.918766 81.572539 341.720997 83.074152 C 342.523229 84.575764 343.288434 86.093833 344.016613 87.632472 C 344.740679 89.171111 345.431832 90.73032 346.081845 92.30187 C 346.735972 93.873421 347.348959 95.461428 347.920806 97.061777 C 348.492653 98.66624 349.027474 100.283045 349.521155 101.912192 C 350.014836 103.537225 350.471491 105.178714 350.882892 106.828431 C 351.298406 108.482262 351.668667 110.140207 352.001902 111.810494 C 352.335136 113.480781 352.623117 115.155182 352.874071 116.841925 C 353.125026 118.524554 353.330726 120.211297 353.4994 121.906268 C 353.668075 123.601239 353.791495 125.29621 353.873775 126.995295 C 353.960169 128.698494 354.001309 130.397579 354.001309 132.100778 Z M 354.001309 132.100778 " stroke="#223a85" stroke-width="30" stroke-opacity="1" stroke-miterlimit="10"/><g clip-path="url(#bf78418f8f)"><path stroke-linecap="round" transform="matrix(0.9495, 0, 0, 0.9495, -49.714082, -5.25)" fill="none" stroke-linejoin="round" d="M 94.000153 472.000073 L 94.000153 367.50017 C 94.000153 318.498227 133.700325 278.798055 182.698154 278.798055 L 317.398985 278.798055 C 366.400928 278.798055 406.101099 318.498227 406.101099 367.50017 L 406.101099 472.000073 " stroke="#223a85" stroke-width="30" stroke-opacity="1" stroke-miterlimit="10"/></g></svg>