<svg xmlns="http://www.w3.org/2000/svg" xmlns:xlink="http://www.w3.org/1999/xlink" width="500" zoomAndPan="magnify" viewBox="0 0 375 374.999991" height="500" preserveAspectRatio="xMidYMid meet" version="1.0"><defs><clipPath id="8c5db8201b"><path d="M 23 239 L 344 239 L 344 371.25 L 23 371.25 Z M 23 239 " clip-rule="nonzero"/></clipPath></defs><rect x="-37.5" width="450" fill="#ffffff" y="-37.499999" height="449.999989" fill-opacity="1"/><rect x="-37.5" width="450" fill="#18130b" y="-37.499999" height="449.999989" fill-opacity="1"/><path stroke-linecap="round" transform="matrix(0.933, 0, 0, 0.933, -49.8247, -3.75)" fill="none" stroke-linejoin="round" d="M 353.999772 128.600638 C 353.999772 130.300464 353.957904 132.004477 353.874169 133.704303 C 353.790434 135.404129 353.664831 137.099768 353.49736 138.795408 C 353.334076 140.48686 353.124738 142.178313 352.873532 143.861392 C 352.626513 145.544471 352.33344 147.219176 352.002686 148.889695 C 351.667744 150.560214 351.295122 152.218173 350.88482 153.871944 C 350.47033 155.521529 350.013973 157.162741 349.519935 158.791392 C 349.025896 160.420043 348.494177 162.031947 347.920591 163.635477 C 347.347004 165.239008 346.735737 166.825792 346.082601 168.400015 C 345.433653 169.970051 344.742837 171.527527 344.01434 173.06407 C 343.285843 174.604799 342.523852 176.124594 341.719994 177.623455 C 340.916135 179.126504 340.078782 180.608618 339.203748 182.065612 C 338.328715 183.526792 337.420187 184.962852 336.473978 186.377979 C 335.52777 187.793105 334.548067 189.187297 333.53487 190.552182 C 332.521673 191.921254 331.470796 193.261018 330.394797 194.575662 C 329.314612 195.894493 328.200933 197.179829 327.057947 198.440045 C 325.91496 199.704448 324.742666 200.935356 323.541065 202.141144 C 322.335277 203.342746 321.104368 204.51504 319.844152 205.658026 C 318.57975 206.801013 317.294413 207.914692 315.975583 208.994877 C 314.660939 210.070875 313.321174 211.121753 311.952103 212.13495 C 310.587218 213.148147 309.193025 214.127849 307.777899 215.074058 C 306.362773 216.020267 304.926713 216.928794 303.465532 217.803828 C 302.008539 218.678862 300.526424 219.516214 299.023376 220.320073 C 297.524514 221.123932 296.004719 221.885923 294.46399 222.61442 C 292.927448 223.342917 291.369972 224.033733 289.799935 224.682681 C 288.225712 225.335816 286.638929 225.947084 285.035398 226.52067 C 283.431867 227.094257 281.819963 227.625976 280.191312 228.120014 C 278.562661 228.614052 276.92145 229.070409 275.271865 229.484899 C 273.618093 229.895202 271.960135 230.267824 270.289616 230.602765 C 268.619097 230.933519 266.944391 231.226593 265.261312 231.473612 C 263.578233 231.724818 261.886781 231.934156 260.195328 232.09744 C 258.499689 232.26491 256.804049 232.390513 255.104223 232.474248 C 253.404397 232.557984 251.700384 232.599851 250.000558 232.599851 C 248.296545 232.599851 246.596719 232.557984 244.896893 232.474248 C 243.197067 232.390513 241.501428 232.26491 239.805788 232.09744 C 238.114336 231.934156 236.422883 231.724818 234.739804 231.473612 C 233.056725 231.226593 231.377833 230.933519 229.711501 230.602765 C 228.040982 230.267824 226.383023 229.895202 224.729252 229.484899 C 223.079667 229.070409 221.438455 228.614052 219.809804 228.120014 C 218.181153 227.625976 216.565062 227.094257 214.961532 226.52067 C 213.362188 225.947084 211.775404 225.335816 210.201181 224.682681 C 208.626958 224.033733 207.073669 223.342917 205.532939 222.61442 C 203.996397 221.885923 202.476602 221.123932 200.973554 220.320073 C 199.474692 219.516214 197.992578 218.678862 196.531397 217.803828 C 195.074403 216.928794 193.634157 216.020267 192.219031 215.074058 C 190.803904 214.127849 189.413899 213.148147 188.049014 212.13495 C 186.679942 211.121753 185.340178 210.070875 184.021347 208.994877 C 182.706703 207.914692 181.41718 206.801013 180.156964 205.658026 C 178.896748 204.51504 177.665839 203.342746 176.460051 202.141144 C 175.25845 200.935356 174.086156 199.704448 172.938983 198.440045 C 171.795997 197.179829 170.686504 195.894493 169.606319 194.575662 C 168.526134 193.261018 167.479443 191.921254 166.466246 190.552182 C 165.453049 189.187297 164.473347 187.793105 163.527138 186.377979 C 162.580929 184.962852 161.672402 183.526792 160.797368 182.065612 C 159.922334 180.608618 159.080795 179.126504 158.281123 177.623455 C 157.477264 176.124594 156.711086 174.604799 155.986776 173.06407 C 155.258279 171.527527 154.567463 169.970051 153.918515 168.400015 C 153.26538 166.825792 152.654112 165.239008 152.080526 163.635477 C 151.506939 162.031947 150.971033 160.420043 150.476995 158.791392 C 149.982957 157.162741 149.530786 155.521529 149.116297 153.871944 C 148.701807 152.218173 148.329185 150.560214 147.998431 148.889695 C 147.667677 147.219176 147.374603 145.544471 147.127584 143.861392 C 146.876378 142.178313 146.66704 140.48686 146.499569 138.795408 C 146.332099 137.099768 146.210683 135.404129 146.126947 133.704303 C 146.043212 132.004477 146.001345 130.300464 146.001345 128.600638 C 146.001345 126.896625 146.043212 125.196799 146.126947 123.496973 C 146.210683 121.797146 146.332099 120.101507 146.499569 118.405868 C 146.66704 116.714415 146.876378 115.022963 147.127584 113.339884 C 147.374603 111.656804 147.667677 109.977912 147.998431 108.31158 C 148.329185 106.641061 148.701807 104.983103 149.116297 103.329331 C 149.530786 101.679746 149.982957 100.038535 150.476995 98.409884 C 150.971033 96.781233 151.506939 95.165142 152.080526 93.561611 C 152.654112 91.962267 153.26538 90.375484 153.918515 88.801261 C 154.567463 87.227037 155.258279 85.673748 155.986776 84.133019 C 156.711086 82.596477 157.477264 81.076681 158.281123 79.573633 C 159.080795 78.074772 159.922334 76.592657 160.797368 75.131477 C 161.672402 73.674483 162.580929 72.234236 163.527138 70.81911 C 164.473347 69.403984 165.453049 68.013978 166.466246 66.649093 C 167.479443 65.280021 168.526134 63.940257 169.606319 62.621426 C 170.686504 61.306783 171.795997 60.017259 172.938983 58.757043 C 174.086156 57.496827 175.25845 56.265919 176.460051 55.060131 C 177.665839 53.85853 178.896748 52.682049 180.156964 51.539063 C 181.41718 50.396076 182.706703 49.286584 184.021347 48.206399 C 185.340178 47.126213 186.679942 46.079523 188.049014 45.066326 C 189.413899 44.053129 190.803904 43.073426 192.219031 42.127217 C 193.634157 41.181009 195.074403 40.272481 196.531397 39.397447 C 197.992578 38.522414 199.474692 37.680874 200.973554 36.881202 C 202.476602 36.077344 203.996397 35.311166 205.532939 34.586856 C 207.073669 33.858359 208.626958 33.167543 210.201181 32.518594 C 211.775404 31.865459 213.362188 31.254192 214.961532 30.680605 C 216.565062 30.107018 218.181153 29.571113 219.809804 29.077075 C 221.438455 28.583036 223.079667 28.130866 224.729252 27.716376 C 226.383023 27.301887 228.040982 26.929265 229.711501 26.59851 C 231.377833 26.267756 233.056725 25.974683 234.739804 25.727664 C 236.422883 25.476458 238.114336 25.267119 239.805788 25.099649 C 241.501428 24.932178 243.197067 24.810762 244.896893 24.727027 C 246.596719 24.643292 248.296545 24.601424 250.000558 24.601424 C 251.700384 24.601424 253.404397 24.643292 255.104223 24.727027 C 256.804049 24.810762 258.499689 24.932178 260.195328 25.099649 C 261.886781 25.267119 263.578233 25.476458 265.261312 25.727664 C 266.944391 25.974683 268.619097 26.267756 270.289616 26.59851 C 271.960135 26.929265 273.618093 27.301887 275.271865 27.716376 C 276.92145 28.130866 278.562661 28.583036 280.191312 29.077075 C 281.819963 29.571113 283.431867 30.107018 285.035398 30.680605 C 286.638929 31.254192 288.225712 31.865459 289.799935 32.518594 C 291.369972 33.167543 292.927448 33.858359 294.46399 34.586856 C 296.004719 35.311166 297.524514 36.077344 299.023376 36.881202 C 300.526424 37.680874 302.008539 38.522414 303.465532 39.397447 C 304.926713 40.272481 306.362773 41.181009 307.777899 42.127217 C 309.193025 43.073426 310.587218 44.053129 311.952103 45.066326 C 313.321174 46.079523 314.660939 47.126213 315.975583 48.206399 C 317.294413 49.286584 318.57975 50.396076 319.844152 51.539063 C 321.104368 52.682049 322.335277 53.85853 323.541065 55.060131 C 324.742666 56.265919 325.91496 57.496827 327.057947 58.757043 C 328.200933 60.017259 329.314612 61.306783 330.394797 62.621426 C 331.470796 63.940257 332.521673 65.280021 333.53487 66.649093 C 334.548067 68.013978 335.52777 69.403984 336.473978 70.81911 C 337.420187 72.234236 338.328715 73.674483 339.203748 75.131477 C 340.078782 76.592657 340.916135 78.074772 341.719994 79.573633 C 342.523852 81.076681 343.285843 82.596477 344.01434 84.133019 C 344.742837 85.673748 345.433653 87.227037 346.082601 88.801261 C 346.735737 90.375484 347.347004 91.962267 347.920591 93.561611 C 348.494177 95.165142 349.025896 96.781233 349.519935 98.409884 C 350.013973 100.038535 350.47033 101.679746 350.88482 103.329331 C 351.295122 104.983103 351.667744 106.641061 352.002686 108.31158 C 352.33344 109.977912 352.626513 111.656804 352.873532 113.339884 C 353.124738 115.022963 353.334076 116.714415 353.49736 118.405868 C 353.664831 120.101507 353.790434 121.797146 353.874169 123.496973 C 353.957904 125.196799 353.999772 126.896625 353.999772 128.600638 Z M 353.999772 128.600638 " stroke="#f6a11b" stroke-width="30" stroke-opacity="1" stroke-miterlimit="10"/><g clip-path="url(#8c5db8201b)"><path stroke-linecap="round" transform="matrix(0.933, 0, 0, 0.933, -49.8247, -3.75)" fill="none" stroke-linejoin="round" d="M 94.001738 468.498873 L 94.001738 364.001434 C 94.001738 314.99955 133.700632 275.300656 182.69833 275.300656 L 317.399082 275.300656 C 366.400966 275.300656 406.099861 314.99955 406.099861 364.001434 L 406.099861 468.498873 " stroke="#f6a11b" stroke-width="30" stroke-opacity="1" stroke-miterlimit="10"/></g></svg>