<?xml version="1.0" standalone="no"?>
<!DOCTYPE svg PUBLIC "-//W3C//DTD SVG 20010904//EN"
 "http://www.w3.org/TR/2001/REC-SVG-20010904/DTD/svg10.dtd">
<svg version="1.0" xmlns="http://www.w3.org/2000/svg"
 width="700.000000pt" height="700.000000pt" viewBox="0 0 700.000000 700.000000"
 preserveAspectRatio="xMidYMid meet">
<metadata>
Created by potrace 1.14, written by Peter Selinger 2001-2017
</metadata>
<g transform="translate(0.000000,700.000000) scale(0.100000,-0.100000)"
fill="#000000" stroke="none">
<path d="M2190 6139 c-254 -17 -494 -148 -631 -344 -32 -46 -241 -387 -362
-590 -29 -49 -152 -252 -272 -450 -405 -669 -512 -850 -534 -909 -78 -210 -71
-444 19 -642 15 -34 81 -149 145 -256 65 -106 125 -205 134 -220 61 -102 133
-221 295 -488 102 -168 198 -325 212 -350 256 -428 431 -709 452 -727 31 -26
71 -29 111 -9 33 18 61 70 55 104 -3 13 -64 121 -136 240 -72 120 -139 231
-148 247 -10 17 -68 113 -130 215 -62 102 -177 291 -255 420 -78 129 -227 375
-330 545 -197 325 -234 395 -255 485 -27 114 -8 294 41 393 23 45 106 186 282
477 62 102 195 322 297 490 101 168 237 392 302 499 65 106 118 197 118 202 0
5 5 9 10 9 6 0 10 5 10 10 0 6 27 54 61 108 63 100 132 176 210 229 46 32 164
82 208 89 14 2 37 7 50 10 30 7 2336 6 2376 -1 157 -28 309 -119 400 -239 21
-29 104 -160 145 -231 101 -176 526 -865 543 -882 30 -30 83 -36 120 -15 34
20 59 74 51 109 -4 14 -77 141 -162 282 -85 141 -231 381 -323 533 -188 310
-222 360 -303 437 -117 111 -319 202 -479 217 -89 9 -2204 11 -2327 3z"/>
<path d="M2831 5504 c-200 -53 -356 -212 -407 -413 -16 -63 -16 -197 0 -264
21 -88 73 -178 161 -277 32 -36 85 -96 119 -134 34 -38 66 -74 71 -80 6 -6 46
-51 90 -101 44 -49 88 -99 98 -110 21 -22 105 -118 134 -151 14 -17 135 -152
178 -198 6 -6 59 -67 120 -136 60 -69 112 -127 115 -130 3 -3 41 -45 85 -95
44 -49 94 -106 111 -125 17 -19 56 -62 85 -95 30 -33 83 -94 119 -134 36 -40
76 -86 90 -101 14 -15 41 -44 60 -66 70 -78 169 -146 243 -168 9 -3 19 -6 22
-7 84 -28 220 -32 304 -9 48 13 153 58 161 70 3 4 13 11 22 16 35 19 113 101
149 157 107 165 116 380 24 556 -33 62 -47 81 -113 156 -15 17 -61 69 -102
115 -41 47 -79 90 -85 96 -53 59 -159 178 -235 264 -51 58 -96 107 -99 110 -3
3 -21 23 -40 45 -27 32 -127 144 -186 209 -6 6 -44 49 -85 96 -41 47 -77 87
-80 90 -5 4 -105 117 -214 240 -249 281 -358 402 -394 438 -60 59 -167 119
-249 138 -58 14 -218 12 -272 -2z"/>
<path d="M5623 4285 c-145 -39 -270 -153 -327 -295 -23 -58 -30 -99 -30 -180
0 -65 4 -97 23 -206 6 -32 13 -72 16 -89 2 -16 7 -41 10 -55 3 -14 8 -45 11
-70 3 -25 8 -47 9 -50 2 -3 6 -26 10 -50 29 -198 67 -291 155 -380 64 -64 174
-124 255 -139 118 -22 255 5 355 69 177 113 256 312 215 536 -8 38 -16 85 -19
104 -3 19 -7 44 -10 55 -2 11 -7 43 -11 70 -5 28 -9 52 -10 55 -5 20 -16 82
-20 115 -27 185 -64 280 -145 368 -119 130 -316 188 -487 142z"/>
<path d="M6570 3936 c-181 -73 -196 -81 -211 -118 -28 -68 28 -150 98 -143 43
4 335 121 364 146 14 12 23 34 26 62 5 38 1 48 -23 76 -47 52 -76 49 -254 -23z"/>
<path d="M1768 3835 c-2 -1 -25 -5 -51 -8 -119 -14 -276 -128 -339 -244 -107
-197 -67 -445 96 -596 23 -21 133 -90 246 -154 113 -63 225 -127 250 -141 25
-15 59 -33 75 -42 17 -9 53 -29 80 -45 146 -82 275 -155 315 -177 25 -14 191
-107 370 -208 179 -101 350 -197 380 -213 30 -16 60 -33 65 -37 6 -4 30 -19
55 -32 25 -14 61 -34 80 -45 248 -140 555 -58 686 184 28 52 35 73 51 138 11
48 9 155 -4 209 -35 152 -123 254 -303 353 -71 39 -275 153 -460 258 -138 78
-169 95 -285 160 -27 15 -122 69 -210 118 -88 50 -230 129 -315 177 -236 132
-242 136 -285 160 -168 96 -278 153 -322 166 -45 13 -167 26 -175 19z"/>
<path d="M6452 3425 c-54 -45 -51 -123 5 -161 34 -23 306 -132 348 -140 59
-10 118 54 109 120 -4 37 -29 64 -79 86 -119 54 -298 120 -324 120 -17 0 -42
-11 -59 -25z"/>
<path d="M5659 2572 c-27 -14 -62 -65 -185 -267 -83 -137 -236 -389 -339 -560
-103 -170 -208 -334 -233 -364 -77 -91 -185 -161 -296 -193 -22 -6 -48 -14
-56 -16 -8 -3 -242 -7 -519 -9 -553 -5 -550 -4 -575 -65 -24 -55 0 -116 53
-138 21 -8 166 -10 542 -7 485 3 518 5 587 24 226 65 408 207 528 413 12 19
93 154 181 300 89 146 229 377 312 515 83 137 151 260 151 273 0 79 -81 129
-151 94z"/>
<path d="M2130 2124 c-233 -70 -333 -336 -199 -530 62 -91 151 -140 324 -179
19 -4 86 -22 275 -73 41 -12 152 -42 245 -68 143 -40 184 -48 260 -48 80 -1
96 2 147 28 73 37 127 91 164 163 26 51 29 69 29 148 0 82 -3 97 -33 157 -53
108 -131 163 -287 203 -38 10 -108 29 -155 43 -47 13 -96 27 -110 30 -14 2
-131 34 -260 69 -249 68 -326 79 -400 57z"/>
<path d="M2053 1229 c-126 -23 -217 -123 -228 -251 -13 -155 96 -284 256 -303
19 -2 63 -7 99 -10 36 -4 79 -9 95 -11 17 -2 59 -6 95 -9 36 -4 76 -8 90 -10
14 -2 57 -7 95 -11 39 -3 79 -8 90 -10 11 -3 61 -6 110 -8 108 -5 172 14 230
71 133 130 108 353 -49 442 -55 31 -79 38 -171 46 -33 3 -76 8 -95 10 -19 3
-62 7 -95 10 -33 4 -71 8 -85 10 -14 2 -54 7 -90 10 -36 4 -78 8 -95 10 -40 4
-165 17 -190 19 -11 1 -39 -1 -62 -5z"/>
</g>
</svg>
