<svg xmlns="http://www.w3.org/2000/svg" xmlns:xlink="http://www.w3.org/1999/xlink" width="1350" zoomAndPan="magnify" viewBox="0 0 1012.5 119.999999" height="160" preserveAspectRatio="xMidYMid meet" version="1.0"><defs><clipPath id="1d4a95527a"><path d="M 0 0.03125 L 1012 0.03125 L 1012 119.96875 L 0 119.96875 Z M 0 0.03125 " clip-rule="nonzero"/></clipPath><clipPath id="56ff38d9f2"><path d="M 23.039062 70.074219 L 65.789062 70.074219 L 65.789062 107.574219 L 23.039062 107.574219 Z M 23.039062 70.074219 " clip-rule="nonzero"/></clipPath><clipPath id="d178c1fdd4"><path d="M 23.039062 32.890625 L 65.789062 32.890625 L 65.789062 70.390625 L 23.039062 70.390625 Z M 23.039062 32.890625 " clip-rule="nonzero"/></clipPath><clipPath id="8288565944"><path d="M 23.039062 107.257812 L 65.789062 107.257812 L 65.789062 119.96875 L 23.039062 119.96875 Z M 23.039062 107.257812 " clip-rule="nonzero"/></clipPath><clipPath id="e66abb68e2"><path d="M 23.039062 0.03125 L 65.789062 0.03125 L 65.789062 33.183594 L 23.039062 33.183594 Z M 23.039062 0.03125 " clip-rule="nonzero"/></clipPath><clipPath id="4ebd98e194"><path d="M 0 88.011719 L 34.199219 88.011719 L 34.199219 119.96875 L 0 119.96875 Z M 0 88.011719 " clip-rule="nonzero"/></clipPath><clipPath id="2018ea50ec"><path d="M 0 50.808594 L 34.199219 50.808594 L 34.199219 88.308594 L 0 88.308594 Z M 0 50.808594 " clip-rule="nonzero"/></clipPath><clipPath id="b2e04249db"><path d="M 0 12.980469 L 34.199219 12.980469 L 34.199219 50.480469 L 0 50.480469 Z M 0 12.980469 " clip-rule="nonzero"/></clipPath><clipPath id="b0ef49b1d2"><path d="M 86.5 70.074219 L 129.25 70.074219 L 129.25 107.574219 L 86.5 107.574219 Z M 86.5 70.074219 " clip-rule="nonzero"/></clipPath><clipPath id="0a100bdf90"><path d="M 86.5 32.890625 L 129.25 32.890625 L 129.25 70.390625 L 86.5 70.390625 Z M 86.5 32.890625 " clip-rule="nonzero"/></clipPath><clipPath id="5401cfde03"><path d="M 86.5 107.257812 L 129.25 107.257812 L 129.25 119.96875 L 86.5 119.96875 Z M 86.5 107.257812 " clip-rule="nonzero"/></clipPath><clipPath id="5e0c696a3d"><path d="M 86.5 0.03125 L 129.25 0.03125 L 129.25 33.183594 L 86.5 33.183594 Z M 86.5 0.03125 " clip-rule="nonzero"/></clipPath><clipPath id="740cfde4fb"><path d="M 54.90625 88.011719 L 97.65625 88.011719 L 97.65625 119.96875 L 54.90625 119.96875 Z M 54.90625 88.011719 " clip-rule="nonzero"/></clipPath><clipPath id="7eaadf425f"><path d="M 54.90625 50.808594 L 97.65625 50.808594 L 97.65625 88.308594 L 54.90625 88.308594 Z M 54.90625 50.808594 " clip-rule="nonzero"/></clipPath><clipPath id="e8f5921946"><path d="M 54.90625 12.980469 L 97.65625 12.980469 L 97.65625 50.480469 L 54.90625 50.480469 Z M 54.90625 12.980469 " clip-rule="nonzero"/></clipPath><clipPath id="fd3632413f"><path d="M 149.957031 70.074219 L 192.707031 70.074219 L 192.707031 107.574219 L 149.957031 107.574219 Z M 149.957031 70.074219 " clip-rule="nonzero"/></clipPath><clipPath id="c04f6ce460"><path d="M 149.957031 32.890625 L 192.707031 32.890625 L 192.707031 70.390625 L 149.957031 70.390625 Z M 149.957031 32.890625 " clip-rule="nonzero"/></clipPath><clipPath id="2dcdf38109"><path d="M 149.957031 107.257812 L 192.707031 107.257812 L 192.707031 119.96875 L 149.957031 119.96875 Z M 149.957031 107.257812 " clip-rule="nonzero"/></clipPath><clipPath id="4664f297ba"><path d="M 149.957031 0.03125 L 192.707031 0.03125 L 192.707031 33.183594 L 149.957031 33.183594 Z M 149.957031 0.03125 " clip-rule="nonzero"/></clipPath><clipPath id="db2715587b"><path d="M 118.367188 88.011719 L 161.117188 88.011719 L 161.117188 119.96875 L 118.367188 119.96875 Z M 118.367188 88.011719 " clip-rule="nonzero"/></clipPath><clipPath id="e3ac669537"><path d="M 118.367188 50.808594 L 161.117188 50.808594 L 161.117188 88.308594 L 118.367188 88.308594 Z M 118.367188 50.808594 " clip-rule="nonzero"/></clipPath><clipPath id="b556e206f1"><path d="M 118.367188 12.980469 L 161.117188 12.980469 L 161.117188 50.480469 L 118.367188 50.480469 Z M 118.367188 12.980469 " clip-rule="nonzero"/></clipPath><clipPath id="7965b617ca"><path d="M 213.414062 70.074219 L 256.164062 70.074219 L 256.164062 107.574219 L 213.414062 107.574219 Z M 213.414062 70.074219 " clip-rule="nonzero"/></clipPath><clipPath id="5d125d8f1e"><path d="M 213.414062 32.890625 L 256.164062 32.890625 L 256.164062 70.390625 L 213.414062 70.390625 Z M 213.414062 32.890625 " clip-rule="nonzero"/></clipPath><clipPath id="10ca9b9e49"><path d="M 213.414062 107.257812 L 256.164062 107.257812 L 256.164062 119.96875 L 213.414062 119.96875 Z M 213.414062 107.257812 " clip-rule="nonzero"/></clipPath><clipPath id="9170c34210"><path d="M 213.414062 0.03125 L 256.164062 0.03125 L 256.164062 33.183594 L 213.414062 33.183594 Z M 213.414062 0.03125 " clip-rule="nonzero"/></clipPath><clipPath id="aa1c4a8ba6"><path d="M 181.824219 88.011719 L 224.574219 88.011719 L 224.574219 119.96875 L 181.824219 119.96875 Z M 181.824219 88.011719 " clip-rule="nonzero"/></clipPath><clipPath id="35b39c5a0d"><path d="M 181.824219 50.808594 L 224.574219 50.808594 L 224.574219 88.308594 L 181.824219 88.308594 Z M 181.824219 50.808594 " clip-rule="nonzero"/></clipPath><clipPath id="62ff1afaf0"><path d="M 181.824219 12.980469 L 224.574219 12.980469 L 224.574219 50.480469 L 181.824219 50.480469 Z M 181.824219 12.980469 " clip-rule="nonzero"/></clipPath><clipPath id="2a2b0e928d"><path d="M 0 70.304688 L 2.429688 70.304688 L 2.429688 107.804688 L 0 107.804688 Z M 0 70.304688 " clip-rule="nonzero"/></clipPath><clipPath id="1c1cf593f0"><path d="M 0 33.121094 L 2.429688 33.121094 L 2.429688 70.621094 L 0 70.621094 Z M 0 33.121094 " clip-rule="nonzero"/></clipPath><clipPath id="a667b87dd0"><path d="M 0 107.488281 L 2.429688 107.488281 L 2.429688 119.96875 L 0 119.96875 Z M 0 107.488281 " clip-rule="nonzero"/></clipPath><clipPath id="8df926b139"><path d="M 0 0.03125 L 2.429688 0.03125 L 2.429688 33.414062 L 0 33.414062 Z M 0 0.03125 " clip-rule="nonzero"/></clipPath><clipPath id="d8d85af314"><path d="M 371.691406 86.027344 L 414.441406 86.027344 L 414.441406 119.96875 L 371.691406 119.96875 Z M 371.691406 86.027344 " clip-rule="nonzero"/></clipPath><clipPath id="1eaf6aa665"><path d="M 371.691406 48.820312 L 414.441406 48.820312 L 414.441406 86.320312 L 371.691406 86.320312 Z M 371.691406 48.820312 " clip-rule="nonzero"/></clipPath><clipPath id="93f099d8c1"><path d="M 371.691406 10.992188 L 414.441406 10.992188 L 414.441406 48.492188 L 371.691406 48.492188 Z M 371.691406 10.992188 " clip-rule="nonzero"/></clipPath><clipPath id="21360bc45c"><path d="M 276.621094 70.304688 L 319.371094 70.304688 L 319.371094 107.804688 L 276.621094 107.804688 Z M 276.621094 70.304688 " clip-rule="nonzero"/></clipPath><clipPath id="f45d697134"><path d="M 276.621094 33.121094 L 319.371094 33.121094 L 319.371094 70.621094 L 276.621094 70.621094 Z M 276.621094 33.121094 " clip-rule="nonzero"/></clipPath><clipPath id="937339e1ea"><path d="M 276.621094 107.488281 L 319.371094 107.488281 L 319.371094 119.96875 L 276.621094 119.96875 Z M 276.621094 107.488281 " clip-rule="nonzero"/></clipPath><clipPath id="77251696fc"><path d="M 276.621094 0.03125 L 319.371094 0.03125 L 319.371094 33.414062 L 276.621094 33.414062 Z M 276.621094 0.03125 " clip-rule="nonzero"/></clipPath><clipPath id="8a960e2853"><path d="M 245.027344 88.242188 L 287.777344 88.242188 L 287.777344 119.96875 L 245.027344 119.96875 Z M 245.027344 88.242188 " clip-rule="nonzero"/></clipPath><clipPath id="f05505847e"><path d="M 245.027344 51.039062 L 287.777344 51.039062 L 287.777344 88.539062 L 245.027344 88.539062 Z M 245.027344 51.039062 " clip-rule="nonzero"/></clipPath><clipPath id="9dcce9dfd6"><path d="M 245.027344 13.210938 L 287.777344 13.210938 L 287.777344 50.710938 L 245.027344 50.710938 Z M 245.027344 13.210938 " clip-rule="nonzero"/></clipPath><clipPath id="76aee02d8b"><path d="M 340.078125 67.453125 L 382.828125 67.453125 L 382.828125 104.953125 L 340.078125 104.953125 Z M 340.078125 67.453125 " clip-rule="nonzero"/></clipPath><clipPath id="dccb639cc7"><path d="M 340.078125 30.269531 L 382.828125 30.269531 L 382.828125 67.769531 L 340.078125 67.769531 Z M 340.078125 30.269531 " clip-rule="nonzero"/></clipPath><clipPath id="586323625e"><path d="M 340.078125 104.636719 L 382.828125 104.636719 L 382.828125 119.96875 L 340.078125 119.96875 Z M 340.078125 104.636719 " clip-rule="nonzero"/></clipPath><clipPath id="3f3ce5219f"><path d="M 340.078125 0.03125 L 382.828125 0.03125 L 382.828125 30.5625 L 340.078125 30.5625 Z M 340.078125 0.03125 " clip-rule="nonzero"/></clipPath><clipPath id="2c4b8d82ab"><path d="M 308.488281 85.390625 L 351.238281 85.390625 L 351.238281 119.96875 L 308.488281 119.96875 Z M 308.488281 85.390625 " clip-rule="nonzero"/></clipPath><clipPath id="04cd363faf"><path d="M 308.488281 48.1875 L 351.238281 48.1875 L 351.238281 85.6875 L 308.488281 85.6875 Z M 308.488281 48.1875 " clip-rule="nonzero"/></clipPath><clipPath id="c490de5fce"><path d="M 308.488281 10.359375 L 351.238281 10.359375 L 351.238281 47.859375 L 308.488281 47.859375 Z M 308.488281 10.359375 " clip-rule="nonzero"/></clipPath><clipPath id="62b5c6c1cc"><path d="M 530.683594 67.222656 L 573.433594 67.222656 L 573.433594 104.722656 L 530.683594 104.722656 Z M 530.683594 67.222656 " clip-rule="nonzero"/></clipPath><clipPath id="c18b61fd33"><path d="M 530.683594 30.039062 L 573.433594 30.039062 L 573.433594 67.539062 L 530.683594 67.539062 Z M 530.683594 30.039062 " clip-rule="nonzero"/></clipPath><clipPath id="da1312ad80"><path d="M 530.683594 104.40625 L 573.433594 104.40625 L 573.433594 119.96875 L 530.683594 119.96875 Z M 530.683594 104.40625 " clip-rule="nonzero"/></clipPath><clipPath id="1a05203c8a"><path d="M 530.683594 0.03125 L 573.433594 0.03125 L 573.433594 30.332031 L 530.683594 30.332031 Z M 530.683594 0.03125 " clip-rule="nonzero"/></clipPath><clipPath id="4689726af5"><path d="M 499.09375 85.160156 L 541.839844 85.160156 L 541.839844 119.96875 L 499.09375 119.96875 Z M 499.09375 85.160156 " clip-rule="nonzero"/></clipPath><clipPath id="a76b5cc59c"><path d="M 499.09375 47.957031 L 541.839844 47.957031 L 541.839844 85.457031 L 499.09375 85.457031 Z M 499.09375 47.957031 " clip-rule="nonzero"/></clipPath><clipPath id="4522823c24"><path d="M 499.09375 10.128906 L 541.839844 10.128906 L 541.839844 47.628906 L 499.09375 47.628906 Z M 499.09375 10.128906 " clip-rule="nonzero"/></clipPath><clipPath id="c4012320f6"><path d="M 594.140625 67.222656 L 636.890625 67.222656 L 636.890625 104.722656 L 594.140625 104.722656 Z M 594.140625 67.222656 " clip-rule="nonzero"/></clipPath><clipPath id="5d4272e4ef"><path d="M 594.140625 30.039062 L 636.890625 30.039062 L 636.890625 67.539062 L 594.140625 67.539062 Z M 594.140625 30.039062 " clip-rule="nonzero"/></clipPath><clipPath id="37afe5aecb"><path d="M 594.140625 104.40625 L 636.890625 104.40625 L 636.890625 119.96875 L 594.140625 119.96875 Z M 594.140625 104.40625 " clip-rule="nonzero"/></clipPath><clipPath id="630ea83c6f"><path d="M 594.140625 0.03125 L 636.890625 0.03125 L 636.890625 30.332031 L 594.140625 30.332031 Z M 594.140625 0.03125 " clip-rule="nonzero"/></clipPath><clipPath id="3dee2359ff"><path d="M 562.550781 85.160156 L 605.300781 85.160156 L 605.300781 119.96875 L 562.550781 119.96875 Z M 562.550781 85.160156 " clip-rule="nonzero"/></clipPath><clipPath id="e33daf33f4"><path d="M 562.550781 47.957031 L 605.300781 47.957031 L 605.300781 85.457031 L 562.550781 85.457031 Z M 562.550781 47.957031 " clip-rule="nonzero"/></clipPath><clipPath id="18a96fb64c"><path d="M 562.550781 10.128906 L 605.300781 10.128906 L 605.300781 47.628906 L 562.550781 47.628906 Z M 562.550781 10.128906 " clip-rule="nonzero"/></clipPath><clipPath id="06b08a8a8d"><path d="M 657.597656 67.222656 L 700.347656 67.222656 L 700.347656 104.722656 L 657.597656 104.722656 Z M 657.597656 67.222656 " clip-rule="nonzero"/></clipPath><clipPath id="bd9f92bb2b"><path d="M 657.597656 30.039062 L 700.347656 30.039062 L 700.347656 67.539062 L 657.597656 67.539062 Z M 657.597656 30.039062 " clip-rule="nonzero"/></clipPath><clipPath id="612e5a4494"><path d="M 657.597656 104.40625 L 700.347656 104.40625 L 700.347656 119.96875 L 657.597656 119.96875 Z M 657.597656 104.40625 " clip-rule="nonzero"/></clipPath><clipPath id="32652ef153"><path d="M 657.597656 0.03125 L 700.347656 0.03125 L 700.347656 30.332031 L 657.597656 30.332031 Z M 657.597656 0.03125 " clip-rule="nonzero"/></clipPath><clipPath id="0b2df75f8a"><path d="M 626.007812 85.160156 L 668.757812 85.160156 L 668.757812 119.96875 L 626.007812 119.96875 Z M 626.007812 85.160156 " clip-rule="nonzero"/></clipPath><clipPath id="0e2f8e3773"><path d="M 626.007812 47.957031 L 668.757812 47.957031 L 668.757812 85.457031 L 626.007812 85.457031 Z M 626.007812 47.957031 " clip-rule="nonzero"/></clipPath><clipPath id="445a0f074c"><path d="M 626.007812 10.128906 L 668.757812 10.128906 L 668.757812 47.628906 L 626.007812 47.628906 Z M 626.007812 10.128906 " clip-rule="nonzero"/></clipPath><clipPath id="f6428d29e2"><path d="M 721.058594 67.222656 L 763.808594 67.222656 L 763.808594 104.722656 L 721.058594 104.722656 Z M 721.058594 67.222656 " clip-rule="nonzero"/></clipPath><clipPath id="fe2a3108a9"><path d="M 721.058594 30.039062 L 763.808594 30.039062 L 763.808594 67.539062 L 721.058594 67.539062 Z M 721.058594 30.039062 " clip-rule="nonzero"/></clipPath><clipPath id="0f4c158d9d"><path d="M 721.058594 104.40625 L 763.808594 104.40625 L 763.808594 119.96875 L 721.058594 119.96875 Z M 721.058594 104.40625 " clip-rule="nonzero"/></clipPath><clipPath id="e1f4b09ab6"><path d="M 721.058594 0.03125 L 763.808594 0.03125 L 763.808594 30.332031 L 721.058594 30.332031 Z M 721.058594 0.03125 " clip-rule="nonzero"/></clipPath><clipPath id="a95ed89001"><path d="M 689.464844 85.160156 L 732.214844 85.160156 L 732.214844 119.96875 L 689.464844 119.96875 Z M 689.464844 85.160156 " clip-rule="nonzero"/></clipPath><clipPath id="faecade14e"><path d="M 689.464844 47.957031 L 732.214844 47.957031 L 732.214844 85.457031 L 689.464844 85.457031 Z M 689.464844 47.957031 " clip-rule="nonzero"/></clipPath><clipPath id="a9106844a2"><path d="M 689.464844 10.128906 L 732.214844 10.128906 L 732.214844 47.628906 L 689.464844 47.628906 Z M 689.464844 10.128906 " clip-rule="nonzero"/></clipPath><clipPath id="8228a8e0af"><path d="M 403.847656 67.453125 L 446.597656 67.453125 L 446.597656 104.953125 L 403.847656 104.953125 Z M 403.847656 67.453125 " clip-rule="nonzero"/></clipPath><clipPath id="c80fc4651d"><path d="M 403.847656 30.269531 L 446.597656 30.269531 L 446.597656 67.769531 L 403.847656 67.769531 Z M 403.847656 30.269531 " clip-rule="nonzero"/></clipPath><clipPath id="05efb9c312"><path d="M 403.847656 104.636719 L 446.597656 104.636719 L 446.597656 119.96875 L 403.847656 119.96875 Z M 403.847656 104.636719 " clip-rule="nonzero"/></clipPath><clipPath id="6928c261e9"><path d="M 403.847656 0.03125 L 446.597656 0.03125 L 446.597656 30.5625 L 403.847656 30.5625 Z M 403.847656 0.03125 " clip-rule="nonzero"/></clipPath><clipPath id="cfc3f860ee"><path d="M 372.253906 85.390625 L 415.003906 85.390625 L 415.003906 119.96875 L 372.253906 119.96875 Z M 372.253906 85.390625 " clip-rule="nonzero"/></clipPath><clipPath id="7ef16679c0"><path d="M 372.253906 48.1875 L 415.003906 48.1875 L 415.003906 85.6875 L 372.253906 85.6875 Z M 372.253906 48.1875 " clip-rule="nonzero"/></clipPath><clipPath id="02dc0aec53"><path d="M 372.253906 10.359375 L 415.003906 10.359375 L 415.003906 47.859375 L 372.253906 47.859375 Z M 372.253906 10.359375 " clip-rule="nonzero"/></clipPath><clipPath id="451c6d6229"><path d="M 467.324219 67.453125 L 510.074219 67.453125 L 510.074219 104.953125 L 467.324219 104.953125 Z M 467.324219 67.453125 " clip-rule="nonzero"/></clipPath><clipPath id="8a9a7331dc"><path d="M 467.324219 30.269531 L 510.074219 30.269531 L 510.074219 67.769531 L 467.324219 67.769531 Z M 467.324219 30.269531 " clip-rule="nonzero"/></clipPath><clipPath id="03cb227a5c"><path d="M 467.324219 104.636719 L 510.074219 104.636719 L 510.074219 119.96875 L 467.324219 119.96875 Z M 467.324219 104.636719 " clip-rule="nonzero"/></clipPath><clipPath id="b5b881546f"><path d="M 467.324219 0.03125 L 510.074219 0.03125 L 510.074219 30.5625 L 467.324219 30.5625 Z M 467.324219 0.03125 " clip-rule="nonzero"/></clipPath><clipPath id="336896af4c"><path d="M 435.734375 85.390625 L 478.484375 85.390625 L 478.484375 119.96875 L 435.734375 119.96875 Z M 435.734375 85.390625 " clip-rule="nonzero"/></clipPath><clipPath id="b24414ec19"><path d="M 435.734375 48.1875 L 478.484375 48.1875 L 478.484375 85.6875 L 435.734375 85.6875 Z M 435.734375 48.1875 " clip-rule="nonzero"/></clipPath><clipPath id="2bebbcd369"><path d="M 435.734375 10.359375 L 478.484375 10.359375 L 478.484375 47.859375 L 435.734375 47.859375 Z M 435.734375 10.359375 " clip-rule="nonzero"/></clipPath><clipPath id="4d053eb629"><path d="M 879.335938 83.175781 L 922.085938 83.175781 L 922.085938 119.96875 L 879.335938 119.96875 Z M 879.335938 83.175781 " clip-rule="nonzero"/></clipPath><clipPath id="a3348f0f17"><path d="M 879.335938 45.96875 L 922.085938 45.96875 L 922.085938 83.46875 L 879.335938 83.46875 Z M 879.335938 45.96875 " clip-rule="nonzero"/></clipPath><clipPath id="b3cd0bfdcb"><path d="M 879.335938 8.140625 L 922.085938 8.140625 L 922.085938 45.640625 L 879.335938 45.640625 Z M 879.335938 8.140625 " clip-rule="nonzero"/></clipPath><clipPath id="3f2f09952c"><path d="M 784.261719 67.453125 L 827.011719 67.453125 L 827.011719 104.953125 L 784.261719 104.953125 Z M 784.261719 67.453125 " clip-rule="nonzero"/></clipPath><clipPath id="4af6a31ad9"><path d="M 784.261719 30.269531 L 827.011719 30.269531 L 827.011719 67.769531 L 784.261719 67.769531 Z M 784.261719 30.269531 " clip-rule="nonzero"/></clipPath><clipPath id="056334bb52"><path d="M 784.261719 104.636719 L 827.011719 104.636719 L 827.011719 119.96875 L 784.261719 119.96875 Z M 784.261719 104.636719 " clip-rule="nonzero"/></clipPath><clipPath id="a7a461af6e"><path d="M 784.261719 0.03125 L 827.011719 0.03125 L 827.011719 30.5625 L 784.261719 30.5625 Z M 784.261719 0.03125 " clip-rule="nonzero"/></clipPath><clipPath id="5c204bd10c"><path d="M 752.671875 85.390625 L 795.421875 85.390625 L 795.421875 119.96875 L 752.671875 119.96875 Z M 752.671875 85.390625 " clip-rule="nonzero"/></clipPath><clipPath id="7de2c9b124"><path d="M 752.671875 48.1875 L 795.421875 48.1875 L 795.421875 85.6875 L 752.671875 85.6875 Z M 752.671875 48.1875 " clip-rule="nonzero"/></clipPath><clipPath id="bda9e36139"><path d="M 752.671875 10.359375 L 795.421875 10.359375 L 795.421875 47.859375 L 752.671875 47.859375 Z M 752.671875 10.359375 " clip-rule="nonzero"/></clipPath><clipPath id="6affe7d96b"><path d="M 847.71875 64.601562 L 890.46875 64.601562 L 890.46875 102.101562 L 847.71875 102.101562 Z M 847.71875 64.601562 " clip-rule="nonzero"/></clipPath><clipPath id="cb89bb26ad"><path d="M 847.71875 27.417969 L 890.46875 27.417969 L 890.46875 64.917969 L 847.71875 64.917969 Z M 847.71875 27.417969 " clip-rule="nonzero"/></clipPath><clipPath id="a6e7a794d8"><path d="M 847.71875 101.785156 L 890.46875 101.785156 L 890.46875 119.96875 L 847.71875 119.96875 Z M 847.71875 101.785156 " clip-rule="nonzero"/></clipPath><clipPath id="e142eca334"><path d="M 847.71875 0.03125 L 890.46875 0.03125 L 890.46875 27.710938 L 847.71875 27.710938 Z M 847.71875 0.03125 " clip-rule="nonzero"/></clipPath><clipPath id="50ac8faf91"><path d="M 816.128906 82.539062 L 858.878906 82.539062 L 858.878906 119.96875 L 816.128906 119.96875 Z M 816.128906 82.539062 " clip-rule="nonzero"/></clipPath><clipPath id="4d6ade44ed"><path d="M 816.128906 45.335938 L 858.878906 45.335938 L 858.878906 82.835938 L 816.128906 82.835938 Z M 816.128906 45.335938 " clip-rule="nonzero"/></clipPath><clipPath id="76d1c04b92"><path d="M 816.128906 7.507812 L 858.878906 7.507812 L 858.878906 45.007812 L 816.128906 45.007812 Z M 816.128906 7.507812 " clip-rule="nonzero"/></clipPath><clipPath id="2b2955ee64"><path d="M 1006.734375 78.558594 L 1012 78.558594 L 1012 116.058594 L 1006.734375 116.058594 Z M 1006.734375 78.558594 " clip-rule="nonzero"/></clipPath><clipPath id="a3556c068c"><path d="M 1006.734375 41.355469 L 1012 41.355469 L 1012 78.855469 L 1006.734375 78.855469 Z M 1006.734375 41.355469 " clip-rule="nonzero"/></clipPath><clipPath id="e442dbadb3"><path d="M 1006.734375 3.527344 L 1012 3.527344 L 1012 41.027344 L 1006.734375 41.027344 Z M 1006.734375 3.527344 " clip-rule="nonzero"/></clipPath><clipPath id="b92c3f2351"><path d="M 911.488281 64.601562 L 954.238281 64.601562 L 954.238281 102.101562 L 911.488281 102.101562 Z M 911.488281 64.601562 " clip-rule="nonzero"/></clipPath><clipPath id="0b8a6a95fc"><path d="M 911.488281 27.417969 L 954.238281 27.417969 L 954.238281 64.917969 L 911.488281 64.917969 Z M 911.488281 27.417969 " clip-rule="nonzero"/></clipPath><clipPath id="545260aaa7"><path d="M 911.488281 101.785156 L 954.238281 101.785156 L 954.238281 119.96875 L 911.488281 119.96875 Z M 911.488281 101.785156 " clip-rule="nonzero"/></clipPath><clipPath id="5e1ab41d79"><path d="M 911.488281 0.03125 L 954.238281 0.03125 L 954.238281 27.710938 L 911.488281 27.710938 Z M 911.488281 0.03125 " clip-rule="nonzero"/></clipPath><clipPath id="e82718ee41"><path d="M 879.898438 82.539062 L 922.648438 82.539062 L 922.648438 119.96875 L 879.898438 119.96875 Z M 879.898438 82.539062 " clip-rule="nonzero"/></clipPath><clipPath id="b03ecd8493"><path d="M 879.898438 45.335938 L 922.648438 45.335938 L 922.648438 82.835938 L 879.898438 82.835938 Z M 879.898438 45.335938 " clip-rule="nonzero"/></clipPath><clipPath id="41c12e3afc"><path d="M 879.898438 7.507812 L 922.648438 7.507812 L 922.648438 45.007812 L 879.898438 45.007812 Z M 879.898438 7.507812 " clip-rule="nonzero"/></clipPath><clipPath id="d78907b918"><path d="M 974.96875 64.601562 L 1012 64.601562 L 1012 102.101562 L 974.96875 102.101562 Z M 974.96875 64.601562 " clip-rule="nonzero"/></clipPath><clipPath id="86adf53877"><path d="M 974.96875 27.417969 L 1012 27.417969 L 1012 64.917969 L 974.96875 64.917969 Z M 974.96875 27.417969 " clip-rule="nonzero"/></clipPath><clipPath id="8686e21a54"><path d="M 974.96875 101.785156 L 1012 101.785156 L 1012 119.96875 L 974.96875 119.96875 Z M 974.96875 101.785156 " clip-rule="nonzero"/></clipPath><clipPath id="31e81676dd"><path d="M 974.96875 0.03125 L 1012 0.03125 L 1012 27.710938 L 974.96875 27.710938 Z M 974.96875 0.03125 " clip-rule="nonzero"/></clipPath><clipPath id="54e4b71691"><path d="M 943.375 82.539062 L 986.125 82.539062 L 986.125 119.96875 L 943.375 119.96875 Z M 943.375 82.539062 " clip-rule="nonzero"/></clipPath><clipPath id="841f971ea0"><path d="M 943.375 45.335938 L 986.125 45.335938 L 986.125 82.835938 L 943.375 82.835938 Z M 943.375 45.335938 " clip-rule="nonzero"/></clipPath><clipPath id="e470e2a130"><path d="M 943.375 7.507812 L 986.125 7.507812 L 986.125 45.007812 L 943.375 45.007812 Z M 943.375 7.507812 " clip-rule="nonzero"/></clipPath></defs><g clip-path="url(#1d4a95527a)"><path fill="#ffffff" d="M 0 0.03125 L 1012.5 0.03125 L 1012.5 127.53125 L 0 127.53125 Z M 0 0.03125 " fill-opacity="1" fill-rule="nonzero"/><path fill="#ffffff" d="M 0 0.03125 L 1012.5 0.03125 L 1012.5 120.03125 L 0 120.03125 Z M 0 0.03125 " fill-opacity="1" fill-rule="nonzero"/><path fill="#003096" d="M 0 0.03125 L 1012.5 0.03125 L 1012.5 120.03125 L 0 120.03125 Z M 0 0.03125 " fill-opacity="1" fill-rule="nonzero"/></g><g clip-path="url(#56ff38d9f2)"><path fill="#003096" d="M 33.726562 107.574219 L 23.039062 88.824219 L 33.726562 70.074219 L 55.101562 70.074219 L 65.789062 88.824219 L 55.101562 107.574219 Z M 33.726562 107.574219 " fill-opacity="1" fill-rule="nonzero"/></g><g clip-path="url(#d178c1fdd4)"><path fill="#fffcf8" d="M 33.726562 70.386719 L 23.039062 51.640625 L 33.726562 32.890625 L 55.101562 32.890625 L 65.789062 51.640625 L 55.101562 70.386719 Z M 33.726562 70.386719 " fill-opacity="1" fill-rule="nonzero"/></g><g clip-path="url(#8288565944)"><path fill="#18130b" d="M 33.726562 144.757812 L 23.039062 126.007812 L 33.726562 107.257812 L 55.101562 107.257812 L 65.789062 126.007812 L 55.101562 144.757812 Z M 33.726562 144.757812 " fill-opacity="1" fill-rule="nonzero"/></g><g clip-path="url(#e66abb68e2)"><path fill="#fca311" d="M 33.726562 33.183594 L 23.039062 14.433594 L 33.726562 -4.316406 L 55.101562 -4.316406 L 65.789062 14.433594 L 55.101562 33.183594 Z M 33.726562 33.183594 " fill-opacity="1" fill-rule="nonzero"/></g><g clip-path="url(#4ebd98e194)"><path fill="#fffcf8" d="M 2.136719 125.511719 L -8.550781 106.761719 L 2.136719 88.011719 L 23.511719 88.011719 L 34.199219 106.761719 L 23.511719 125.511719 Z M 2.136719 125.511719 " fill-opacity="1" fill-rule="nonzero"/></g><g clip-path="url(#2018ea50ec)"><path fill="#fca311" d="M 2.136719 88.304688 L -8.550781 69.558594 L 2.136719 50.808594 L 23.511719 50.808594 L 34.199219 69.558594 L 23.511719 88.304688 Z M 2.136719 88.304688 " fill-opacity="1" fill-rule="nonzero"/></g><g clip-path="url(#b2e04249db)"><path fill="#18130b" d="M 2.136719 50.480469 L -8.550781 31.730469 L 2.136719 12.980469 L 23.511719 12.980469 L 34.199219 31.730469 L 23.511719 50.480469 Z M 2.136719 50.480469 " fill-opacity="1" fill-rule="nonzero"/></g><g clip-path="url(#b0ef49b1d2)"><path fill="#003096" d="M 97.1875 107.574219 L 86.5 88.824219 L 97.1875 70.074219 L 118.5625 70.074219 L 129.25 88.824219 L 118.5625 107.574219 Z M 97.1875 107.574219 " fill-opacity="1" fill-rule="nonzero"/></g><g clip-path="url(#0a100bdf90)"><path fill="#fffcf8" d="M 97.1875 70.386719 L 86.5 51.640625 L 97.1875 32.890625 L 118.5625 32.890625 L 129.25 51.640625 L 118.5625 70.386719 Z M 97.1875 70.386719 " fill-opacity="1" fill-rule="nonzero"/></g><g clip-path="url(#5401cfde03)"><path fill="#18130b" d="M 97.1875 144.757812 L 86.5 126.007812 L 97.1875 107.257812 L 118.5625 107.257812 L 129.25 126.007812 L 118.5625 144.757812 Z M 97.1875 144.757812 " fill-opacity="1" fill-rule="nonzero"/></g><g clip-path="url(#5e0c696a3d)"><path fill="#fca311" d="M 97.1875 33.183594 L 86.5 14.433594 L 97.1875 -4.316406 L 118.5625 -4.316406 L 129.25 14.433594 L 118.5625 33.183594 Z M 97.1875 33.183594 " fill-opacity="1" fill-rule="nonzero"/></g><g clip-path="url(#740cfde4fb)"><path fill="#fffcf8" d="M 65.59375 125.511719 L 54.90625 106.761719 L 65.59375 88.011719 L 86.96875 88.011719 L 97.65625 106.761719 L 86.96875 125.511719 Z M 65.59375 125.511719 " fill-opacity="1" fill-rule="nonzero"/></g><g clip-path="url(#7eaadf425f)"><path fill="#fca311" d="M 65.59375 88.304688 L 54.90625 69.558594 L 65.59375 50.808594 L 86.96875 50.808594 L 97.65625 69.558594 L 86.96875 88.304688 Z M 65.59375 88.304688 " fill-opacity="1" fill-rule="nonzero"/></g><g clip-path="url(#e8f5921946)"><path fill="#18130b" d="M 65.59375 50.480469 L 54.90625 31.730469 L 65.59375 12.980469 L 86.96875 12.980469 L 97.65625 31.730469 L 86.96875 50.480469 Z M 65.59375 50.480469 " fill-opacity="1" fill-rule="nonzero"/></g><g clip-path="url(#fd3632413f)"><path fill="#003096" d="M 160.644531 107.574219 L 149.957031 88.824219 L 160.644531 70.074219 L 182.019531 70.074219 L 192.707031 88.824219 L 182.019531 107.574219 Z M 160.644531 107.574219 " fill-opacity="1" fill-rule="nonzero"/></g><g clip-path="url(#c04f6ce460)"><path fill="#fffcf8" d="M 160.644531 70.386719 L 149.957031 51.640625 L 160.644531 32.890625 L 182.019531 32.890625 L 192.707031 51.640625 L 182.019531 70.386719 Z M 160.644531 70.386719 " fill-opacity="1" fill-rule="nonzero"/></g><g clip-path="url(#2dcdf38109)"><path fill="#18130b" d="M 160.644531 144.757812 L 149.957031 126.007812 L 160.644531 107.257812 L 182.019531 107.257812 L 192.707031 126.007812 L 182.019531 144.757812 Z M 160.644531 144.757812 " fill-opacity="1" fill-rule="nonzero"/></g><g clip-path="url(#4664f297ba)"><path fill="#fca311" d="M 160.644531 33.183594 L 149.957031 14.433594 L 160.644531 -4.316406 L 182.019531 -4.316406 L 192.707031 14.433594 L 182.019531 33.183594 Z M 160.644531 33.183594 " fill-opacity="1" fill-rule="nonzero"/></g><g clip-path="url(#db2715587b)"><path fill="#fffcf8" d="M 129.054688 125.511719 L 118.367188 106.761719 L 129.054688 88.011719 L 150.429688 88.011719 L 161.117188 106.761719 L 150.429688 125.511719 Z M 129.054688 125.511719 " fill-opacity="1" fill-rule="nonzero"/></g><g clip-path="url(#e3ac669537)"><path fill="#fca311" d="M 129.054688 88.304688 L 118.367188 69.558594 L 129.054688 50.808594 L 150.429688 50.808594 L 161.117188 69.558594 L 150.429688 88.304688 Z M 129.054688 88.304688 " fill-opacity="1" fill-rule="nonzero"/></g><g clip-path="url(#b556e206f1)"><path fill="#18130b" d="M 129.054688 50.480469 L 118.367188 31.730469 L 129.054688 12.980469 L 150.429688 12.980469 L 161.117188 31.730469 L 150.429688 50.480469 Z M 129.054688 50.480469 " fill-opacity="1" fill-rule="nonzero"/></g><g clip-path="url(#7965b617ca)"><path fill="#003096" d="M 224.101562 107.574219 L 213.414062 88.824219 L 224.101562 70.074219 L 245.476562 70.074219 L 256.164062 88.824219 L 245.476562 107.574219 Z M 224.101562 107.574219 " fill-opacity="1" fill-rule="nonzero"/></g><g clip-path="url(#5d125d8f1e)"><path fill="#fffcf8" d="M 224.101562 70.386719 L 213.414062 51.640625 L 224.101562 32.890625 L 245.476562 32.890625 L 256.164062 51.640625 L 245.476562 70.386719 Z M 224.101562 70.386719 " fill-opacity="1" fill-rule="nonzero"/></g><g clip-path="url(#10ca9b9e49)"><path fill="#18130b" d="M 224.101562 144.757812 L 213.414062 126.007812 L 224.101562 107.257812 L 245.476562 107.257812 L 256.164062 126.007812 L 245.476562 144.757812 Z M 224.101562 144.757812 " fill-opacity="1" fill-rule="nonzero"/></g><g clip-path="url(#9170c34210)"><path fill="#fca311" d="M 224.101562 33.183594 L 213.414062 14.433594 L 224.101562 -4.316406 L 245.476562 -4.316406 L 256.164062 14.433594 L 245.476562 33.183594 Z M 224.101562 33.183594 " fill-opacity="1" fill-rule="nonzero"/></g><g clip-path="url(#aa1c4a8ba6)"><path fill="#fffcf8" d="M 192.511719 125.511719 L 181.824219 106.761719 L 192.511719 88.011719 L 213.886719 88.011719 L 224.574219 106.761719 L 213.886719 125.511719 Z M 192.511719 125.511719 " fill-opacity="1" fill-rule="nonzero"/></g><g clip-path="url(#35b39c5a0d)"><path fill="#fca311" d="M 192.511719 88.304688 L 181.824219 69.558594 L 192.511719 50.808594 L 213.886719 50.808594 L 224.574219 69.558594 L 213.886719 88.304688 Z M 192.511719 88.304688 " fill-opacity="1" fill-rule="nonzero"/></g><g clip-path="url(#62ff1afaf0)"><path fill="#18130b" d="M 192.511719 50.480469 L 181.824219 31.730469 L 192.511719 12.980469 L 213.886719 12.980469 L 224.574219 31.730469 L 213.886719 50.480469 Z M 192.511719 50.480469 " fill-opacity="1" fill-rule="nonzero"/></g><g clip-path="url(#2a2b0e928d)"><path fill="#003096" d="M -29.632812 107.804688 L -40.320312 89.054688 L -29.632812 70.304688 L -8.257812 70.304688 L 2.429688 89.054688 L -8.257812 107.804688 Z M -29.632812 107.804688 " fill-opacity="1" fill-rule="nonzero"/></g><g clip-path="url(#1c1cf593f0)"><path fill="#fffcf8" d="M -29.632812 70.617188 L -40.320312 51.871094 L -29.632812 33.121094 L -8.257812 33.121094 L 2.429688 51.871094 L -8.257812 70.617188 Z M -29.632812 70.617188 " fill-opacity="1" fill-rule="nonzero"/></g><g clip-path="url(#a667b87dd0)"><path fill="#18130b" d="M -29.632812 144.988281 L -40.320312 126.238281 L -29.632812 107.488281 L -8.257812 107.488281 L 2.429688 126.238281 L -8.257812 144.988281 Z M -29.632812 144.988281 " fill-opacity="1" fill-rule="nonzero"/></g><g clip-path="url(#8df926b139)"><path fill="#fca311" d="M -29.632812 33.414062 L -40.320312 14.664062 L -29.632812 -4.085938 L -8.257812 -4.085938 L 2.429688 14.664062 L -8.257812 33.414062 Z M -29.632812 33.414062 " fill-opacity="1" fill-rule="nonzero"/></g><g clip-path="url(#d8d85af314)"><path fill="#fffcf8" d="M 382.378906 123.527344 L 371.691406 104.777344 L 382.378906 86.027344 L 403.753906 86.027344 L 414.441406 104.777344 L 403.753906 123.527344 Z M 382.378906 123.527344 " fill-opacity="1" fill-rule="nonzero"/></g><g clip-path="url(#1eaf6aa665)"><path fill="#fca311" d="M 382.378906 86.320312 L 371.691406 67.570312 L 382.378906 48.820312 L 403.753906 48.820312 L 414.441406 67.570312 L 403.753906 86.320312 Z M 382.378906 86.320312 " fill-opacity="1" fill-rule="nonzero"/></g><g clip-path="url(#93f099d8c1)"><path fill="#18130b" d="M 382.378906 48.492188 L 371.691406 29.742188 L 382.378906 10.992188 L 403.753906 10.992188 L 414.441406 29.742188 L 403.753906 48.492188 Z M 382.378906 48.492188 " fill-opacity="1" fill-rule="nonzero"/></g><g clip-path="url(#21360bc45c)"><path fill="#003096" d="M 287.308594 107.804688 L 276.621094 89.054688 L 287.308594 70.304688 L 308.683594 70.304688 L 319.371094 89.054688 L 308.683594 107.804688 Z M 287.308594 107.804688 " fill-opacity="1" fill-rule="nonzero"/></g><g clip-path="url(#f45d697134)"><path fill="#fffcf8" d="M 287.308594 70.617188 L 276.621094 51.871094 L 287.308594 33.121094 L 308.683594 33.121094 L 319.371094 51.871094 L 308.683594 70.617188 Z M 287.308594 70.617188 " fill-opacity="1" fill-rule="nonzero"/></g><g clip-path="url(#937339e1ea)"><path fill="#18130b" d="M 287.308594 144.988281 L 276.621094 126.238281 L 287.308594 107.488281 L 308.683594 107.488281 L 319.371094 126.238281 L 308.683594 144.988281 Z M 287.308594 144.988281 " fill-opacity="1" fill-rule="nonzero"/></g><g clip-path="url(#77251696fc)"><path fill="#fca311" d="M 287.308594 33.414062 L 276.621094 14.664062 L 287.308594 -4.085938 L 308.683594 -4.085938 L 319.371094 14.664062 L 308.683594 33.414062 Z M 287.308594 33.414062 " fill-opacity="1" fill-rule="nonzero"/></g><g clip-path="url(#8a960e2853)"><path fill="#fffcf8" d="M 255.714844 125.742188 L 245.027344 106.992188 L 255.714844 88.242188 L 277.089844 88.242188 L 287.777344 106.992188 L 277.089844 125.742188 Z M 255.714844 125.742188 " fill-opacity="1" fill-rule="nonzero"/></g><g clip-path="url(#f05505847e)"><path fill="#fca311" d="M 255.714844 88.535156 L 245.027344 69.789062 L 255.714844 51.039062 L 277.089844 51.039062 L 287.777344 69.789062 L 277.089844 88.535156 Z M 255.714844 88.535156 " fill-opacity="1" fill-rule="nonzero"/></g><g clip-path="url(#9dcce9dfd6)"><path fill="#18130b" d="M 255.714844 50.710938 L 245.027344 31.960938 L 255.714844 13.210938 L 277.089844 13.210938 L 287.777344 31.960938 L 277.089844 50.710938 Z M 255.714844 50.710938 " fill-opacity="1" fill-rule="nonzero"/></g><g clip-path="url(#76aee02d8b)"><path fill="#003096" d="M 350.765625 104.953125 L 340.078125 86.203125 L 350.765625 67.453125 L 372.140625 67.453125 L 382.828125 86.203125 L 372.140625 104.953125 Z M 350.765625 104.953125 " fill-opacity="1" fill-rule="nonzero"/></g><g clip-path="url(#dccb639cc7)"><path fill="#fffcf8" d="M 350.765625 67.765625 L 340.078125 49.019531 L 350.765625 30.269531 L 372.140625 30.269531 L 382.828125 49.019531 L 372.140625 67.765625 Z M 350.765625 67.765625 " fill-opacity="1" fill-rule="nonzero"/></g><g clip-path="url(#586323625e)"><path fill="#18130b" d="M 350.765625 142.136719 L 340.078125 123.386719 L 350.765625 104.636719 L 372.140625 104.636719 L 382.828125 123.386719 L 372.140625 142.136719 Z M 350.765625 142.136719 " fill-opacity="1" fill-rule="nonzero"/></g><g clip-path="url(#3f3ce5219f)"><path fill="#fca311" d="M 350.765625 30.5625 L 340.078125 11.8125 L 350.765625 -6.9375 L 372.140625 -6.9375 L 382.828125 11.8125 L 372.140625 30.5625 Z M 350.765625 30.5625 " fill-opacity="1" fill-rule="nonzero"/></g><g clip-path="url(#2c4b8d82ab)"><path fill="#fffcf8" d="M 319.175781 122.890625 L 308.488281 104.140625 L 319.175781 85.390625 L 340.550781 85.390625 L 351.238281 104.140625 L 340.550781 122.890625 Z M 319.175781 122.890625 " fill-opacity="1" fill-rule="nonzero"/></g><g clip-path="url(#04cd363faf)"><path fill="#fca311" d="M 319.175781 85.683594 L 308.488281 66.9375 L 319.175781 48.1875 L 340.550781 48.1875 L 351.238281 66.9375 L 340.550781 85.683594 Z M 319.175781 85.683594 " fill-opacity="1" fill-rule="nonzero"/></g><g clip-path="url(#c490de5fce)"><path fill="#18130b" d="M 319.175781 47.859375 L 308.488281 29.109375 L 319.175781 10.359375 L 340.550781 10.359375 L 351.238281 29.109375 L 340.550781 47.859375 Z M 319.175781 47.859375 " fill-opacity="1" fill-rule="nonzero"/></g><g clip-path="url(#62b5c6c1cc)"><path fill="#003096" d="M 541.371094 104.722656 L 530.683594 85.972656 L 541.371094 67.222656 L 562.746094 67.222656 L 573.433594 85.972656 L 562.746094 104.722656 Z M 541.371094 104.722656 " fill-opacity="1" fill-rule="nonzero"/></g><g clip-path="url(#c18b61fd33)"><path fill="#fffcf8" d="M 541.371094 67.539062 L 530.683594 48.789062 L 541.371094 30.039062 L 562.746094 30.039062 L 573.433594 48.789062 L 562.746094 67.539062 Z M 541.371094 67.539062 " fill-opacity="1" fill-rule="nonzero"/></g><g clip-path="url(#da1312ad80)"><path fill="#18130b" d="M 541.371094 141.90625 L 530.683594 123.15625 L 541.371094 104.40625 L 562.746094 104.40625 L 573.433594 123.15625 L 562.746094 141.90625 Z M 541.371094 141.90625 " fill-opacity="1" fill-rule="nonzero"/></g><g clip-path="url(#1a05203c8a)"><path fill="#fca311" d="M 541.371094 30.332031 L 530.683594 11.582031 L 541.371094 -7.167969 L 562.746094 -7.167969 L 573.433594 11.582031 L 562.746094 30.332031 Z M 541.371094 30.332031 " fill-opacity="1" fill-rule="nonzero"/></g><g clip-path="url(#4689726af5)"><path fill="#fffcf8" d="M 509.78125 122.660156 L 499.09375 103.910156 L 509.78125 85.160156 L 531.15625 85.160156 L 541.84375 103.910156 L 531.15625 122.660156 Z M 509.78125 122.660156 " fill-opacity="1" fill-rule="nonzero"/></g><g clip-path="url(#a76b5cc59c)"><path fill="#fca311" d="M 509.78125 85.457031 L 499.09375 66.707031 L 509.78125 47.957031 L 531.15625 47.957031 L 541.84375 66.707031 L 531.15625 85.457031 Z M 509.78125 85.457031 " fill-opacity="1" fill-rule="nonzero"/></g><g clip-path="url(#4522823c24)"><path fill="#18130b" d="M 509.78125 47.628906 L 499.09375 28.878906 L 509.78125 10.128906 L 531.15625 10.128906 L 541.84375 28.878906 L 531.15625 47.628906 Z M 509.78125 47.628906 " fill-opacity="1" fill-rule="nonzero"/></g><g clip-path="url(#c4012320f6)"><path fill="#003096" d="M 604.828125 104.722656 L 594.140625 85.972656 L 604.828125 67.222656 L 626.203125 67.222656 L 636.890625 85.972656 L 626.203125 104.722656 Z M 604.828125 104.722656 " fill-opacity="1" fill-rule="nonzero"/></g><g clip-path="url(#5d4272e4ef)"><path fill="#fffcf8" d="M 604.828125 67.539062 L 594.140625 48.789062 L 604.828125 30.039062 L 626.203125 30.039062 L 636.890625 48.789062 L 626.203125 67.539062 Z M 604.828125 67.539062 " fill-opacity="1" fill-rule="nonzero"/></g><g clip-path="url(#37afe5aecb)"><path fill="#18130b" d="M 604.828125 141.90625 L 594.140625 123.15625 L 604.828125 104.40625 L 626.203125 104.40625 L 636.890625 123.15625 L 626.203125 141.90625 Z M 604.828125 141.90625 " fill-opacity="1" fill-rule="nonzero"/></g><g clip-path="url(#630ea83c6f)"><path fill="#fca311" d="M 604.828125 30.332031 L 594.140625 11.582031 L 604.828125 -7.167969 L 626.203125 -7.167969 L 636.890625 11.582031 L 626.203125 30.332031 Z M 604.828125 30.332031 " fill-opacity="1" fill-rule="nonzero"/></g><g clip-path="url(#3dee2359ff)"><path fill="#fffcf8" d="M 573.238281 122.660156 L 562.550781 103.910156 L 573.238281 85.160156 L 594.613281 85.160156 L 605.300781 103.910156 L 594.613281 122.660156 Z M 573.238281 122.660156 " fill-opacity="1" fill-rule="nonzero"/></g><g clip-path="url(#e33daf33f4)"><path fill="#fca311" d="M 573.238281 85.457031 L 562.550781 66.707031 L 573.238281 47.957031 L 594.613281 47.957031 L 605.300781 66.707031 L 594.613281 85.457031 Z M 573.238281 85.457031 " fill-opacity="1" fill-rule="nonzero"/></g><g clip-path="url(#18a96fb64c)"><path fill="#18130b" d="M 573.238281 47.628906 L 562.550781 28.878906 L 573.238281 10.128906 L 594.613281 10.128906 L 605.300781 28.878906 L 594.613281 47.628906 Z M 573.238281 47.628906 " fill-opacity="1" fill-rule="nonzero"/></g><g clip-path="url(#06b08a8a8d)"><path fill="#003096" d="M 668.285156 104.722656 L 657.597656 85.972656 L 668.285156 67.222656 L 689.660156 67.222656 L 700.347656 85.972656 L 689.660156 104.722656 Z M 668.285156 104.722656 " fill-opacity="1" fill-rule="nonzero"/></g><g clip-path="url(#bd9f92bb2b)"><path fill="#fffcf8" d="M 668.285156 67.539062 L 657.597656 48.789062 L 668.285156 30.039062 L 689.660156 30.039062 L 700.347656 48.789062 L 689.660156 67.539062 Z M 668.285156 67.539062 " fill-opacity="1" fill-rule="nonzero"/></g><g clip-path="url(#612e5a4494)"><path fill="#18130b" d="M 668.285156 141.90625 L 657.597656 123.15625 L 668.285156 104.40625 L 689.660156 104.40625 L 700.347656 123.15625 L 689.660156 141.90625 Z M 668.285156 141.90625 " fill-opacity="1" fill-rule="nonzero"/></g><g clip-path="url(#32652ef153)"><path fill="#fca311" d="M 668.285156 30.332031 L 657.597656 11.582031 L 668.285156 -7.167969 L 689.660156 -7.167969 L 700.347656 11.582031 L 689.660156 30.332031 Z M 668.285156 30.332031 " fill-opacity="1" fill-rule="nonzero"/></g><g clip-path="url(#0b2df75f8a)"><path fill="#fffcf8" d="M 636.695312 122.660156 L 626.007812 103.910156 L 636.695312 85.160156 L 658.070312 85.160156 L 668.757812 103.910156 L 658.070312 122.660156 Z M 636.695312 122.660156 " fill-opacity="1" fill-rule="nonzero"/></g><g clip-path="url(#0e2f8e3773)"><path fill="#fca311" d="M 636.695312 85.457031 L 626.007812 66.707031 L 636.695312 47.957031 L 658.070312 47.957031 L 668.757812 66.707031 L 658.070312 85.457031 Z M 636.695312 85.457031 " fill-opacity="1" fill-rule="nonzero"/></g><g clip-path="url(#445a0f074c)"><path fill="#18130b" d="M 636.695312 47.628906 L 626.007812 28.878906 L 636.695312 10.128906 L 658.070312 10.128906 L 668.757812 28.878906 L 658.070312 47.628906 Z M 636.695312 47.628906 " fill-opacity="1" fill-rule="nonzero"/></g><g clip-path="url(#f6428d29e2)"><path fill="#003096" d="M 731.746094 104.722656 L 721.058594 85.972656 L 731.746094 67.222656 L 753.121094 67.222656 L 763.808594 85.972656 L 753.121094 104.722656 Z M 731.746094 104.722656 " fill-opacity="1" fill-rule="nonzero"/></g><g clip-path="url(#fe2a3108a9)"><path fill="#fffcf8" d="M 731.746094 67.539062 L 721.058594 48.789062 L 731.746094 30.039062 L 753.121094 30.039062 L 763.808594 48.789062 L 753.121094 67.539062 Z M 731.746094 67.539062 " fill-opacity="1" fill-rule="nonzero"/></g><g clip-path="url(#0f4c158d9d)"><path fill="#18130b" d="M 731.746094 141.90625 L 721.058594 123.15625 L 731.746094 104.40625 L 753.121094 104.40625 L 763.808594 123.15625 L 753.121094 141.90625 Z M 731.746094 141.90625 " fill-opacity="1" fill-rule="nonzero"/></g><g clip-path="url(#e1f4b09ab6)"><path fill="#fca311" d="M 731.746094 30.332031 L 721.058594 11.582031 L 731.746094 -7.167969 L 753.121094 -7.167969 L 763.808594 11.582031 L 753.121094 30.332031 Z M 731.746094 30.332031 " fill-opacity="1" fill-rule="nonzero"/></g><g clip-path="url(#a95ed89001)"><path fill="#fffcf8" d="M 700.152344 122.660156 L 689.464844 103.910156 L 700.152344 85.160156 L 721.527344 85.160156 L 732.214844 103.910156 L 721.527344 122.660156 Z M 700.152344 122.660156 " fill-opacity="1" fill-rule="nonzero"/></g><g clip-path="url(#faecade14e)"><path fill="#fca311" d="M 700.152344 85.457031 L 689.464844 66.707031 L 700.152344 47.957031 L 721.527344 47.957031 L 732.214844 66.707031 L 721.527344 85.457031 Z M 700.152344 85.457031 " fill-opacity="1" fill-rule="nonzero"/></g><g clip-path="url(#a9106844a2)"><path fill="#18130b" d="M 700.152344 47.628906 L 689.464844 28.878906 L 700.152344 10.128906 L 721.527344 10.128906 L 732.214844 28.878906 L 721.527344 47.628906 Z M 700.152344 47.628906 " fill-opacity="1" fill-rule="nonzero"/></g><g clip-path="url(#8228a8e0af)"><path fill="#003096" d="M 414.535156 104.953125 L 403.847656 86.203125 L 414.535156 67.453125 L 435.910156 67.453125 L 446.597656 86.203125 L 435.910156 104.953125 Z M 414.535156 104.953125 " fill-opacity="1" fill-rule="nonzero"/></g><g clip-path="url(#c80fc4651d)"><path fill="#fffcf8" d="M 414.535156 67.765625 L 403.847656 49.019531 L 414.535156 30.269531 L 435.910156 30.269531 L 446.597656 49.019531 L 435.910156 67.765625 Z M 414.535156 67.765625 " fill-opacity="1" fill-rule="nonzero"/></g><g clip-path="url(#05efb9c312)"><path fill="#18130b" d="M 414.535156 142.136719 L 403.847656 123.386719 L 414.535156 104.636719 L 435.910156 104.636719 L 446.597656 123.386719 L 435.910156 142.136719 Z M 414.535156 142.136719 " fill-opacity="1" fill-rule="nonzero"/></g><g clip-path="url(#6928c261e9)"><path fill="#fca311" d="M 414.535156 30.5625 L 403.847656 11.8125 L 414.535156 -6.9375 L 435.910156 -6.9375 L 446.597656 11.8125 L 435.910156 30.5625 Z M 414.535156 30.5625 " fill-opacity="1" fill-rule="nonzero"/></g><g clip-path="url(#cfc3f860ee)"><path fill="#fffcf8" d="M 382.941406 122.890625 L 372.253906 104.140625 L 382.941406 85.390625 L 404.316406 85.390625 L 415.003906 104.140625 L 404.316406 122.890625 Z M 382.941406 122.890625 " fill-opacity="1" fill-rule="nonzero"/></g><g clip-path="url(#7ef16679c0)"><path fill="#fca311" d="M 382.941406 85.683594 L 372.253906 66.9375 L 382.941406 48.1875 L 404.316406 48.1875 L 415.003906 66.9375 L 404.316406 85.683594 Z M 382.941406 85.683594 " fill-opacity="1" fill-rule="nonzero"/></g><g clip-path="url(#02dc0aec53)"><path fill="#18130b" d="M 382.941406 47.859375 L 372.253906 29.109375 L 382.941406 10.359375 L 404.316406 10.359375 L 415.003906 29.109375 L 404.316406 47.859375 Z M 382.941406 47.859375 " fill-opacity="1" fill-rule="nonzero"/></g><g clip-path="url(#451c6d6229)"><path fill="#003096" d="M 478.011719 104.953125 L 467.324219 86.203125 L 478.011719 67.453125 L 499.386719 67.453125 L 510.074219 86.203125 L 499.386719 104.953125 Z M 478.011719 104.953125 " fill-opacity="1" fill-rule="nonzero"/></g><g clip-path="url(#8a9a7331dc)"><path fill="#fffcf8" d="M 478.011719 67.765625 L 467.324219 49.019531 L 478.011719 30.269531 L 499.386719 30.269531 L 510.074219 49.019531 L 499.386719 67.765625 Z M 478.011719 67.765625 " fill-opacity="1" fill-rule="nonzero"/></g><g clip-path="url(#03cb227a5c)"><path fill="#18130b" d="M 478.011719 142.136719 L 467.324219 123.386719 L 478.011719 104.636719 L 499.386719 104.636719 L 510.074219 123.386719 L 499.386719 142.136719 Z M 478.011719 142.136719 " fill-opacity="1" fill-rule="nonzero"/></g><g clip-path="url(#b5b881546f)"><path fill="#fca311" d="M 478.011719 30.5625 L 467.324219 11.8125 L 478.011719 -6.9375 L 499.386719 -6.9375 L 510.074219 11.8125 L 499.386719 30.5625 Z M 478.011719 30.5625 " fill-opacity="1" fill-rule="nonzero"/></g><g clip-path="url(#336896af4c)"><path fill="#fffcf8" d="M 446.421875 122.890625 L 435.734375 104.140625 L 446.421875 85.390625 L 467.796875 85.390625 L 478.484375 104.140625 L 467.796875 122.890625 Z M 446.421875 122.890625 " fill-opacity="1" fill-rule="nonzero"/></g><g clip-path="url(#b24414ec19)"><path fill="#fca311" d="M 446.421875 85.683594 L 435.734375 66.9375 L 446.421875 48.1875 L 467.796875 48.1875 L 478.484375 66.9375 L 467.796875 85.683594 Z M 446.421875 85.683594 " fill-opacity="1" fill-rule="nonzero"/></g><g clip-path="url(#2bebbcd369)"><path fill="#18130b" d="M 446.421875 47.859375 L 435.734375 29.109375 L 446.421875 10.359375 L 467.796875 10.359375 L 478.484375 29.109375 L 467.796875 47.859375 Z M 446.421875 47.859375 " fill-opacity="1" fill-rule="nonzero"/></g><g clip-path="url(#4d053eb629)"><path fill="#fffcf8" d="M 890.023438 120.675781 L 879.335938 101.925781 L 890.023438 83.175781 L 911.398438 83.175781 L 922.085938 101.925781 L 911.398438 120.675781 Z M 890.023438 120.675781 " fill-opacity="1" fill-rule="nonzero"/></g><g clip-path="url(#a3348f0f17)"><path fill="#fca311" d="M 890.023438 83.46875 L 879.335938 64.71875 L 890.023438 45.96875 L 911.398438 45.96875 L 922.085938 64.71875 L 911.398438 83.46875 Z M 890.023438 83.46875 " fill-opacity="1" fill-rule="nonzero"/></g><g clip-path="url(#b3cd0bfdcb)"><path fill="#18130b" d="M 890.023438 45.640625 L 879.335938 26.890625 L 890.023438 8.144531 L 911.398438 8.144531 L 922.085938 26.890625 L 911.398438 45.640625 Z M 890.023438 45.640625 " fill-opacity="1" fill-rule="nonzero"/></g><g clip-path="url(#3f2f09952c)"><path fill="#003096" d="M 794.949219 104.953125 L 784.261719 86.203125 L 794.949219 67.453125 L 816.324219 67.453125 L 827.011719 86.203125 L 816.324219 104.953125 Z M 794.949219 104.953125 " fill-opacity="1" fill-rule="nonzero"/></g><g clip-path="url(#4af6a31ad9)"><path fill="#fffcf8" d="M 794.949219 67.765625 L 784.261719 49.019531 L 794.949219 30.269531 L 816.324219 30.269531 L 827.011719 49.019531 L 816.324219 67.765625 Z M 794.949219 67.765625 " fill-opacity="1" fill-rule="nonzero"/></g><g clip-path="url(#056334bb52)"><path fill="#18130b" d="M 794.949219 142.136719 L 784.261719 123.386719 L 794.949219 104.636719 L 816.324219 104.636719 L 827.011719 123.386719 L 816.324219 142.136719 Z M 794.949219 142.136719 " fill-opacity="1" fill-rule="nonzero"/></g><g clip-path="url(#a7a461af6e)"><path fill="#fca311" d="M 794.949219 30.5625 L 784.261719 11.8125 L 794.949219 -6.9375 L 816.324219 -6.9375 L 827.011719 11.8125 L 816.324219 30.5625 Z M 794.949219 30.5625 " fill-opacity="1" fill-rule="nonzero"/></g><g clip-path="url(#5c204bd10c)"><path fill="#fffcf8" d="M 763.359375 122.890625 L 752.671875 104.140625 L 763.359375 85.390625 L 784.734375 85.390625 L 795.421875 104.140625 L 784.734375 122.890625 Z M 763.359375 122.890625 " fill-opacity="1" fill-rule="nonzero"/></g><g clip-path="url(#7de2c9b124)"><path fill="#fca311" d="M 763.359375 85.683594 L 752.671875 66.9375 L 763.359375 48.1875 L 784.734375 48.1875 L 795.421875 66.9375 L 784.734375 85.683594 Z M 763.359375 85.683594 " fill-opacity="1" fill-rule="nonzero"/></g><g clip-path="url(#bda9e36139)"><path fill="#18130b" d="M 763.359375 47.859375 L 752.671875 29.109375 L 763.359375 10.359375 L 784.734375 10.359375 L 795.421875 29.109375 L 784.734375 47.859375 Z M 763.359375 47.859375 " fill-opacity="1" fill-rule="nonzero"/></g><g clip-path="url(#6affe7d96b)"><path fill="#003096" d="M 858.40625 102.101562 L 847.71875 83.351562 L 858.40625 64.601562 L 879.78125 64.601562 L 890.46875 83.351562 L 879.78125 102.101562 Z M 858.40625 102.101562 " fill-opacity="1" fill-rule="nonzero"/></g><g clip-path="url(#cb89bb26ad)"><path fill="#fffcf8" d="M 858.40625 64.917969 L 847.71875 46.167969 L 858.40625 27.417969 L 879.78125 27.417969 L 890.46875 46.167969 L 879.78125 64.917969 Z M 858.40625 64.917969 " fill-opacity="1" fill-rule="nonzero"/></g><g clip-path="url(#a6e7a794d8)"><path fill="#18130b" d="M 858.40625 139.285156 L 847.71875 120.535156 L 858.40625 101.785156 L 879.78125 101.785156 L 890.46875 120.535156 L 879.78125 139.285156 Z M 858.40625 139.285156 " fill-opacity="1" fill-rule="nonzero"/></g><g clip-path="url(#e142eca334)"><path fill="#fca311" d="M 858.40625 27.710938 L 847.71875 8.960938 L 858.40625 -9.789062 L 879.78125 -9.789062 L 890.46875 8.960938 L 879.78125 27.710938 Z M 858.40625 27.710938 " fill-opacity="1" fill-rule="nonzero"/></g><g clip-path="url(#50ac8faf91)"><path fill="#fffcf8" d="M 826.816406 120.039062 L 816.128906 101.289062 L 826.816406 82.539062 L 848.191406 82.539062 L 858.878906 101.289062 L 848.191406 120.039062 Z M 826.816406 120.039062 " fill-opacity="1" fill-rule="nonzero"/></g><g clip-path="url(#4d6ade44ed)"><path fill="#fca311" d="M 826.816406 82.835938 L 816.128906 64.085938 L 826.816406 45.335938 L 848.191406 45.335938 L 858.878906 64.085938 L 848.191406 82.835938 Z M 826.816406 82.835938 " fill-opacity="1" fill-rule="nonzero"/></g><g clip-path="url(#76d1c04b92)"><path fill="#18130b" d="M 826.816406 45.007812 L 816.128906 26.257812 L 826.816406 7.507812 L 848.191406 7.507812 L 858.878906 26.257812 L 848.191406 45.007812 Z M 826.816406 45.007812 " fill-opacity="1" fill-rule="nonzero"/></g><g clip-path="url(#2b2955ee64)"><path fill="#fffcf8" d="M 1017.421875 116.058594 L 1006.734375 97.308594 L 1017.421875 78.558594 L 1038.796875 78.558594 L 1049.484375 97.308594 L 1038.796875 116.058594 Z M 1017.421875 116.058594 " fill-opacity="1" fill-rule="nonzero"/></g><g clip-path="url(#a3556c068c)"><path fill="#fca311" d="M 1017.421875 78.855469 L 1006.734375 60.105469 L 1017.421875 41.355469 L 1038.796875 41.355469 L 1049.484375 60.105469 L 1038.796875 78.855469 Z M 1017.421875 78.855469 " fill-opacity="1" fill-rule="nonzero"/></g><g clip-path="url(#e442dbadb3)"><path fill="#18130b" d="M 1017.421875 41.027344 L 1006.734375 22.277344 L 1017.421875 3.527344 L 1038.796875 3.527344 L 1049.484375 22.277344 L 1038.796875 41.027344 Z M 1017.421875 41.027344 " fill-opacity="1" fill-rule="nonzero"/></g><g clip-path="url(#b92c3f2351)"><path fill="#003096" d="M 922.175781 102.101562 L 911.488281 83.351562 L 922.175781 64.601562 L 943.550781 64.601562 L 954.238281 83.351562 L 943.550781 102.101562 Z M 922.175781 102.101562 " fill-opacity="1" fill-rule="nonzero"/></g><g clip-path="url(#0b8a6a95fc)"><path fill="#fffcf8" d="M 922.175781 64.917969 L 911.488281 46.167969 L 922.175781 27.417969 L 943.550781 27.417969 L 954.238281 46.167969 L 943.550781 64.917969 Z M 922.175781 64.917969 " fill-opacity="1" fill-rule="nonzero"/></g><g clip-path="url(#545260aaa7)"><path fill="#18130b" d="M 922.175781 139.285156 L 911.488281 120.535156 L 922.175781 101.785156 L 943.550781 101.785156 L 954.238281 120.535156 L 943.550781 139.285156 Z M 922.175781 139.285156 " fill-opacity="1" fill-rule="nonzero"/></g><g clip-path="url(#5e1ab41d79)"><path fill="#fca311" d="M 922.175781 27.710938 L 911.488281 8.960938 L 922.175781 -9.789062 L 943.550781 -9.789062 L 954.238281 8.960938 L 943.550781 27.710938 Z M 922.175781 27.710938 " fill-opacity="1" fill-rule="nonzero"/></g><g clip-path="url(#e82718ee41)"><path fill="#fffcf8" d="M 890.585938 120.039062 L 879.898438 101.289062 L 890.585938 82.539062 L 911.960938 82.539062 L 922.648438 101.289062 L 911.960938 120.039062 Z M 890.585938 120.039062 " fill-opacity="1" fill-rule="nonzero"/></g><g clip-path="url(#b03ecd8493)"><path fill="#fca311" d="M 890.585938 82.835938 L 879.898438 64.085938 L 890.585938 45.335938 L 911.960938 45.335938 L 922.648438 64.085938 L 911.960938 82.835938 Z M 890.585938 82.835938 " fill-opacity="1" fill-rule="nonzero"/></g><g clip-path="url(#41c12e3afc)"><path fill="#18130b" d="M 890.585938 45.007812 L 879.898438 26.257812 L 890.585938 7.507812 L 911.960938 7.507812 L 922.648438 26.257812 L 911.960938 45.007812 Z M 890.585938 45.007812 " fill-opacity="1" fill-rule="nonzero"/></g><g clip-path="url(#d78907b918)"><path fill="#003096" d="M 985.65625 102.101562 L 974.96875 83.351562 L 985.65625 64.601562 L 1007.03125 64.601562 L 1017.71875 83.351562 L 1007.03125 102.101562 Z M 985.65625 102.101562 " fill-opacity="1" fill-rule="nonzero"/></g><g clip-path="url(#86adf53877)"><path fill="#fffcf8" d="M 985.65625 64.917969 L 974.96875 46.167969 L 985.65625 27.417969 L 1007.03125 27.417969 L 1017.71875 46.167969 L 1007.03125 64.917969 Z M 985.65625 64.917969 " fill-opacity="1" fill-rule="nonzero"/></g><g clip-path="url(#8686e21a54)"><path fill="#18130b" d="M 985.65625 139.285156 L 974.96875 120.535156 L 985.65625 101.785156 L 1007.03125 101.785156 L 1017.71875 120.535156 L 1007.03125 139.285156 Z M 985.65625 139.285156 " fill-opacity="1" fill-rule="nonzero"/></g><g clip-path="url(#31e81676dd)"><path fill="#fca311" d="M 985.65625 27.710938 L 974.96875 8.960938 L 985.65625 -9.789062 L 1007.03125 -9.789062 L 1017.71875 8.960938 L 1007.03125 27.710938 Z M 985.65625 27.710938 " fill-opacity="1" fill-rule="nonzero"/></g><g clip-path="url(#54e4b71691)"><path fill="#fffcf8" d="M 954.0625 120.039062 L 943.375 101.289062 L 954.0625 82.539062 L 975.4375 82.539062 L 986.125 101.289062 L 975.4375 120.039062 Z M 954.0625 120.039062 " fill-opacity="1" fill-rule="nonzero"/></g><g clip-path="url(#841f971ea0)"><path fill="#fca311" d="M 954.0625 82.835938 L 943.375 64.085938 L 954.0625 45.335938 L 975.4375 45.335938 L 986.125 64.085938 L 975.4375 82.835938 Z M 954.0625 82.835938 " fill-opacity="1" fill-rule="nonzero"/></g><g clip-path="url(#e470e2a130)"><path fill="#18130b" d="M 954.0625 45.007812 L 943.375 26.257812 L 954.0625 7.507812 L 975.4375 7.507812 L 986.125 26.257812 L 975.4375 45.007812 Z M 954.0625 45.007812 " fill-opacity="1" fill-rule="nonzero"/></g></svg>